<svg xmlns="http://www.w3.org/2000/svg" width="40" height="40" viewBox="0 0 32 32" fill="none">
<path d="M13.3175 17.6006V22.0219H20.9852C20.5661 23.4684 19.6505 24.7201 18.4001 25.5562C17.1311 26.4145 15.5333 26.8431 13.6069 26.8418C11.0028 26.8418 8.90881 26.063 7.32502 24.5053C5.74123 22.9476 4.95125 20.9722 4.95505 18.5791C4.95505 16.1631 5.73299 14.1642 7.28886 12.5824C8.84473 11.0005 10.8276 10.209 13.2376 10.2077C13.9071 10.2066 14.5747 10.2782 15.2287 10.4213V5.48317C14.5808 5.39548 13.9276 5.35151 13.2738 5.35156C9.51225 5.35156 6.3599 6.63204 3.8167 9.19299C1.2735 11.7539 0.00126906 14.8826 0 18.5791C0 22.2527 1.28429 25.3636 3.85287 27.9118C6.42145 30.4601 9.65756 31.7316 13.5612 31.7266C17.2275 31.7266 20.2174 30.6031 22.5309 28.3562C24.8444 26.1094 26.0018 23.1739 26.0031 19.55V17.6006H13.3175Z" fill="#002576"/>
<path d="M17.3984 5.30469H25.6848V13.6551H17.3984V5.30469Z" fill="#002576"/>
<path d="M21.8984 0.414062H25.2964V3.82061H21.8984V0.414062Z" fill="#002576"/>
<path d="M27.7969 4.90625H30.3839V7.5632H27.7969V4.90625Z" fill="#002576"/>
<path d="M28.9609 0H31.3633V2.45478H28.9609V0Z" fill="#002576"/>
<path d="M17.3984 5.30469H25.6848V13.6551H17.3984V5.30469Z" fill="#46A4FC"/>
<path d="M21.8984 0.414062H25.2964V3.82061H21.8984V0.414062Z" fill="#46A4FC"/>
<path d="M27.7969 4.90625H30.3839V7.5632H27.7969V4.90625Z" fill="#46A4FC"/>
<path d="M28.9609 0H31.3633V2.45478H28.9609V0Z" fill="#46A4FC"/>
</svg>