<svg width="351" height="60" viewBox="0 0 351 60" fill="none" xmlns="http://www.w3.org/2000/svg">
<path d="M20.2661 27.1413V33.8177H31.9345C31.2967 36.002 29.9035 37.8922 28.0007 39.1547C26.0694 40.4508 23.638 41.0979 20.7065 41.096C16.7436 41.096 13.5571 39.9199 11.147 37.5677C8.7368 35.2155 7.53463 32.2326 7.54042 28.6189C7.54042 24.9706 8.72426 21.9521 11.0919 19.5635C13.4596 17.1748 16.4771 15.9795 20.1445 15.9776C21.1633 15.9759 22.1792 16.0841 23.1746 16.3002V8.84327C22.1885 8.71084 21.1946 8.64445 20.1995 8.64453C14.4754 8.64453 9.67827 10.5781 5.80812 14.4453C1.93797 18.3125 0.00193121 23.037 0 28.6189C0 34.1662 1.95439 38.8638 5.86316 42.7118C9.77194 46.5598 14.6965 48.4799 20.6369 48.4723C26.2162 48.4723 30.7662 46.7758 34.2868 43.3829C37.8074 39.99 39.5686 35.5573 39.5706 30.0849V27.1413H20.2661Z" fill="white"/>
<path d="M51.7466 25.059C52.3309 23.3991 53.493 22.0016 55.0229 21.1189C56.5708 20.2363 58.3284 19.7827 60.1126 19.8055V27.6858C58.0849 27.405 56.0239 27.8722 54.319 28.9992C52.6137 30.1301 51.7601 32.009 51.7582 34.6358V47.7235H44.6465V20.3614H51.7466V25.059Z" fill="white"/>
<path d="M69.2062 36.9335C70.1583 40.3648 72.7452 42.0795 76.9668 42.0776C79.6821 42.0776 81.7369 41.1655 83.1312 39.3414L88.8554 42.6248C86.1381 46.5304 82.1386 48.4823 76.8567 48.4803C72.3048 48.4803 68.6539 47.1122 65.9038 44.376C63.1538 41.6398 61.7778 38.1922 61.7759 34.0331C61.7759 29.9106 63.1335 26.4726 65.8488 23.7191C68.5641 20.9656 72.0499 19.5879 76.3063 19.5859C80.3406 19.5859 83.67 20.9723 86.2946 23.745C88.9191 26.5177 90.2313 29.9471 90.2313 34.0331C90.2253 35.0061 90.1332 35.9766 89.9561 36.9335H69.2062ZM69.0961 31.4611H83.111C82.7054 29.6005 81.8701 28.2141 80.6052 27.302C79.3516 26.3947 77.8365 25.9148 76.286 25.934C74.378 25.934 72.8002 26.414 71.5526 27.3741C70.3051 28.3341 69.4833 29.6965 69.0874 31.4611H69.0961Z" fill="white"/>
<path d="M116.035 20.3643H122.97V46.4131C122.97 50.6374 121.566 53.8661 118.758 56.0993C115.95 58.3324 112.57 59.4451 108.619 59.4374C105.647 59.4374 103.032 58.872 100.774 57.741C98.5611 56.6539 96.7413 54.911 95.566 52.7524L101.62 49.2962C103.015 51.8519 105.418 53.1288 108.831 53.1269C111.067 53.1269 112.828 52.5431 114.114 51.3757C115.401 50.2082 116.043 48.5483 116.041 46.3958V43.4493C113.949 46.2239 111.014 47.6103 107.234 47.6084C103.345 47.6084 100.088 46.2498 97.4634 43.5328C94.8389 40.8158 93.5305 37.5093 93.5382 33.6133C93.5045 31.7835 93.8375 29.9652 94.5179 28.2646C95.1983 26.564 96.2124 25.0151 97.5011 23.7083C98.7438 22.382 100.254 21.3311 101.932 20.6239C103.611 19.9167 105.42 19.5692 107.243 19.6039C111.021 19.6039 113.956 20.9903 116.049 23.763L116.035 20.3643ZM102.808 38.9907C104.258 40.3963 106.103 41.0981 108.341 41.0962C110.579 41.0942 112.423 40.3924 113.871 38.9907C115.321 37.5852 116.047 35.7879 116.047 33.5989C116.047 31.4465 115.321 29.6684 113.871 28.2648C112.421 26.8611 110.577 26.1584 108.341 26.1564C106.103 26.1564 104.258 26.8592 102.808 28.2648C101.358 29.6703 100.63 31.4532 100.624 33.6133C100.624 35.7927 101.352 37.5852 102.808 38.9907Z" fill="white"/>
<path d="M150.489 20.3643H157.424V46.4131C157.424 50.6374 156.02 53.8661 153.212 56.0993C150.404 58.3324 147.024 59.4451 143.073 59.4374C140.101 59.4374 137.486 58.872 135.228 57.741C133.014 56.6571 131.192 54.9173 130.014 52.7611L136.068 49.3048C137.461 51.8605 139.864 53.1374 143.279 53.1355C145.515 53.1355 147.276 52.5518 148.562 51.3843C149.849 50.2169 150.491 48.5569 150.489 46.4044V43.4493C148.397 46.2239 145.462 47.6103 141.683 47.6084C137.791 47.6084 134.534 46.2498 131.912 43.5328C129.289 40.8158 127.978 37.5093 127.978 33.6133C127.944 31.7835 128.277 29.9652 128.957 28.2646C129.638 26.564 130.652 25.0151 131.941 23.7083C133.183 22.382 134.693 21.3311 136.372 20.6239C138.05 19.9167 139.86 19.5692 141.683 19.6039C145.46 19.6039 148.395 20.9903 150.489 23.763V20.3643ZM137.25 38.9994C138.699 40.4011 140.543 41.1019 142.783 41.1019C145.024 41.1019 146.867 40.4001 148.313 38.9965C149.762 37.5909 150.487 35.7937 150.489 33.6047C150.489 31.4522 149.764 29.6742 148.313 28.2705C146.863 26.8669 145.02 26.1622 142.783 26.1564C140.543 26.1564 138.699 26.8592 137.25 28.2648C135.802 29.6703 135.078 31.4532 135.078 33.6133C135.078 35.7927 135.802 37.5852 137.25 38.9907V38.9994Z" fill="white"/>
<path d="M190.722 9.41797H193.639V47.7249H190.722V29.3837H168.321V47.7249H165.401V9.41797H168.321V26.6561H190.722V9.41797Z" fill="#46A4FC"/>
<path d="M215.266 48.3183C211.23 48.3183 207.809 46.9416 205.003 44.1881C202.197 41.4346 200.793 38.0503 200.791 34.0353C200.791 30.0222 202.195 26.6389 205.003 23.8854C207.811 21.1319 211.232 19.7542 215.266 19.7523C217.161 19.7183 219.043 20.0672 220.798 20.7776C222.554 21.488 224.145 22.5453 225.478 23.8854C228.284 26.6389 229.687 30.0222 229.687 34.0353C229.687 38.0484 228.284 41.4326 225.478 44.1881C224.145 45.5277 222.553 46.5846 220.798 47.2945C219.043 48.0045 217.161 48.3528 215.266 48.3183ZM206.984 42.2986C209.181 44.472 212.154 45.6921 215.253 45.6921C218.352 45.6921 221.325 44.472 223.522 42.2986C225.676 40.0809 226.88 37.1183 226.88 34.0353C226.88 30.9522 225.676 27.9896 223.522 25.7719C221.325 23.5985 218.352 22.3785 215.253 22.3785C212.154 22.3785 209.181 23.5985 206.984 25.7719C204.815 27.9819 203.601 30.9474 203.601 34.0353C203.601 37.1231 204.815 40.0886 206.984 42.2986Z" fill="#46A4FC"/>
<path d="M237.615 27.4381C237.601 28.0644 237.755 28.6831 238.06 29.231C238.366 29.779 238.812 30.2367 239.353 30.5574C240.638 31.3697 242.048 31.968 243.527 32.3287L248.452 33.6162C250.03 34.0092 251.47 34.8251 252.615 35.9751C253.739 37.1157 254.301 38.6393 254.301 40.546C254.32 41.6237 254.083 42.6907 253.61 43.6604C253.137 44.6302 252.441 45.4755 251.578 46.1279C249.762 47.5872 247.386 48.3168 244.449 48.3168C241.807 48.3168 239.578 47.761 237.763 46.6492C236.042 45.6462 234.715 44.0927 233.997 42.2424L236.364 40.8743C236.87 42.36 237.898 43.6139 239.26 44.4055C240.67 45.2638 242.408 45.692 244.475 45.6901C246.541 45.6882 248.239 45.2417 249.567 44.3508C250.206 43.946 250.728 43.3823 251.08 42.7154C251.432 42.0485 251.602 41.3016 251.575 40.5489C251.589 39.9115 251.439 39.281 251.141 38.7168C250.842 38.1525 250.405 37.6729 249.869 37.323C248.606 36.4652 247.197 35.8408 245.712 35.4797L240.787 34.1894C239.214 33.797 237.772 33.0027 236.604 31.8852C235.468 30.7907 234.9 29.3314 234.898 27.5072C234.898 25.3183 235.767 23.4759 237.505 21.9801C239.243 20.4843 241.49 19.7364 244.246 19.7364C246.255 19.6979 248.235 20.2133 249.967 21.2255C251.551 22.1591 252.809 23.5534 253.571 25.2203L251.253 26.5337C250.729 25.2146 249.755 24.1207 248.501 23.4432C247.187 22.7236 245.708 22.3554 244.208 22.3747C242.337 22.3747 240.769 22.8326 239.504 23.7485C238.903 24.1572 238.416 24.7091 238.086 25.3537C237.756 25.9984 237.594 26.7151 237.615 27.4381Z" fill="#46A4FC"/>
<path d="M273.941 23.0343H265.743V40.811C265.743 42.3817 266.033 43.5127 266.612 44.2039C267.192 44.8952 268.09 45.2879 269.306 45.3819C270.852 45.4664 272.403 45.4202 273.941 45.2437V47.7236C270.237 48.2708 267.476 48.0154 265.659 46.9574C263.842 45.8994 262.933 43.8506 262.933 40.811V23.0343H256.882V20.3614H262.933V13.5123L265.743 12.6914V20.3614H273.941V23.0343Z" fill="#46A4FC"/>
<path d="M283.463 13.1051C283.052 13.5075 282.499 13.7331 281.922 13.7331C281.345 13.7331 280.792 13.5075 280.381 13.1051C280.166 12.9057 279.997 12.6636 279.883 12.3946C279.769 12.1256 279.714 11.8358 279.72 11.544C279.718 11.2614 279.776 10.9815 279.89 10.7225C280.004 10.4634 280.171 10.2311 280.381 10.0405C280.791 9.6367 281.345 9.41016 281.922 9.41016C282.499 9.41016 283.053 9.6367 283.463 10.0405C283.673 10.2311 283.84 10.4634 283.954 10.7225C284.068 10.9815 284.125 11.2614 284.123 11.544C284.13 11.8358 284.075 12.1256 283.961 12.3946C283.847 12.6636 283.677 12.9057 283.463 13.1051ZM280.546 47.7254V20.3633H283.298V47.7254H280.546Z" fill="#46A4FC"/>
<path d="M304.377 19.7539C307.641 19.7539 310.238 20.7485 312.167 22.7378C314.096 24.7271 315.062 27.3807 315.064 30.6988V47.7266H312.248V30.6988C312.248 28.1469 311.542 26.1221 310.13 24.6244C308.719 23.1266 306.728 22.3787 304.157 22.3807C301.334 22.3807 299.022 23.311 297.222 25.1716C295.422 27.0322 294.523 29.732 294.525 33.2708V47.7266H291.773V20.3645H294.525V25.5489C296.507 21.6875 299.791 19.7558 304.377 19.7539Z" fill="#46A4FC"/>
<path d="M347.253 20.3628H350.005V46.4116C350.005 50.3901 348.702 53.5277 346.097 55.8242C343.492 58.1207 340.226 59.2727 336.3 59.2804C333.147 59.2804 330.45 58.6967 328.209 57.5292C326.099 56.4883 324.382 54.7998 323.311 52.7135L325.733 51.3454C327.494 54.8843 331.016 56.6537 336.3 56.6537C339.713 56.6537 342.391 55.7329 344.336 53.8915C346.281 52.0501 347.253 49.5597 347.253 46.4202V41.3683C346.157 43.478 344.489 45.2408 342.439 46.4577C340.317 47.7112 337.887 48.3553 335.42 48.3183C333.542 48.3523 331.677 48.0033 329.94 47.293C328.203 46.5826 326.631 45.5259 325.321 44.188C322.548 41.4346 321.162 38.0503 321.164 34.0353C321.166 30.0202 322.552 26.6369 325.321 23.8854C326.632 22.5468 328.204 21.4894 329.941 20.7786C331.679 20.0677 333.544 19.7184 335.422 19.7522C337.89 19.7166 340.319 20.3606 342.441 21.6129C344.49 22.8309 346.156 24.5923 347.253 26.6993V20.3628ZM327.311 42.2986C329.514 44.4717 332.492 45.6911 335.595 45.6911C338.698 45.6911 341.675 44.4717 343.878 42.2986C346.047 40.0886 347.261 37.1231 347.261 34.0353C347.261 30.9474 346.047 27.9819 343.878 25.7719C341.675 23.5988 338.698 22.3795 335.595 22.3795C332.492 22.3795 329.514 23.5988 327.311 25.7719C325.14 27.9809 323.925 30.9468 323.925 34.0353C323.925 37.1238 325.14 40.0897 327.311 42.2986Z" fill="#46A4FC"/>
<path d="M26.468 8.57422H39.0779V21.1838H26.468V8.57422Z" fill="#46A4FC"/>
<path d="M33.3276 1.19141H38.4985V6.33548H33.3276V1.19141Z" fill="#46A4FC"/>
<path d="M42.3088 7.97656H46.2456V11.9887H42.3088V7.97656Z" fill="#46A4FC"/>
<path d="M44.0728 0.566406H47.7285V4.27326H44.0728V0.566406Z" fill="#46A4FC"/>
<path d="M26.468 8.57422H39.0779V21.1838H26.468V8.57422Z" fill="#46A4FC"/>
<path d="M33.3276 1.19141H38.4985V6.33548H33.3276V1.19141Z" fill="#46A4FC"/>
<path d="M42.3088 7.97656H46.2456V11.9887H42.3088V7.97656Z" fill="#46A4FC"/>
<path d="M44.0728 0.566406H47.7285V4.27326H44.0728V0.566406Z" fill="#46A4FC"/>
</svg>
