<svg width="37" height="37" viewBox="0 0 37 37" fill="none" xmlns="http://www.w3.org/2000/svg">
<path d="M5.69696 36.4388H1.70909C1.25581 36.4388 0.821097 36.2607 0.50058 35.9436C0.180064 35.6266 0 35.1965 0 34.7481V25.1673C0 24.7189 0.180064 24.2888 0.50058 23.9718C0.821097 23.6547 1.25581 23.4766 1.70909 23.4766H5.69696C6.15024 23.4766 6.58495 23.6547 6.90547 23.9718C7.22599 24.2888 7.40605 24.7189 7.40605 25.1673V34.7481C7.40605 35.1965 7.22599 35.6266 6.90547 35.9436C6.58495 36.2607 6.15024 36.4388 5.69696 36.4388ZM1.70909 24.6037C1.558 24.6037 1.41309 24.6631 1.30625 24.7688C1.19941 24.8745 1.13939 25.0178 1.13939 25.1673V34.7481C1.13939 34.8976 1.19941 35.0409 1.30625 35.1466C1.41309 35.2523 1.558 35.3117 1.70909 35.3117H5.69696C5.84805 35.3117 5.99296 35.2523 6.0998 35.1466C6.20664 35.0409 6.26666 34.8976 6.26666 34.7481V25.1673C6.26666 25.0178 6.20664 24.8745 6.0998 24.7688C5.99296 24.6631 5.84805 24.6037 5.69696 24.6037H1.70909Z" fill="#00CB6A"/>
<path d="M3.41808 33.0568C3.73272 33.0568 3.98778 32.8045 3.98778 32.4933C3.98778 32.182 3.73272 31.9297 3.41808 31.9297C3.10345 31.9297 2.84839 32.182 2.84839 32.4933C2.84839 32.8045 3.10345 33.0568 3.41808 33.0568Z" fill="#00CB6A"/>
<path d="M23.3579 29.6748H15.9518C15.8007 29.6748 15.6558 29.6155 15.549 29.5098C15.4421 29.4041 15.3821 29.2607 15.3821 29.1113C15.3821 28.9618 15.4421 28.8184 15.549 28.7127C15.6558 28.6071 15.8007 28.5477 15.9518 28.5477H23.3579C23.6601 28.5477 23.9499 28.4289 24.1635 28.2175C24.3772 28.0062 24.4973 27.7195 24.4973 27.4205C24.4973 27.1216 24.3772 26.8349 24.1635 26.6235C23.9499 26.4121 23.6601 26.2934 23.3579 26.2934H15.9518C15.8638 26.2933 15.7771 26.273 15.6983 26.2342C15.667 26.2229 13.505 25.1662 11.3943 25.1662C9.28353 25.1662 7.12153 26.2229 7.0902 26.2342C7.02417 26.2692 6.95184 26.2909 6.87731 26.2982C6.80279 26.3056 6.72753 26.2983 6.65585 26.2768C6.58417 26.2554 6.51746 26.2201 6.45954 26.1732C6.40162 26.1262 6.35361 26.0684 6.31826 26.0031C6.28291 25.9378 6.26091 25.8663 6.25352 25.7925C6.24613 25.7188 6.25348 25.6444 6.27517 25.5735C6.29686 25.5025 6.33246 25.4365 6.37993 25.3792C6.4274 25.3219 6.48581 25.2745 6.55183 25.2395L6.58317 25.2254C6.68002 25.1662 9.00723 24.0391 11.3943 24.0391C13.4964 24.0391 15.5559 24.9239 16.08 25.1662H23.3579C23.9622 25.1662 24.5419 25.4037 24.9692 25.8265C25.3966 26.2493 25.6367 26.8226 25.6367 27.4205C25.6367 28.0184 25.3966 28.5918 24.9692 29.0146C24.5419 29.4373 23.9622 29.6748 23.3579 29.6748Z" fill="#00CB6A"/>
<path d="M23.7403 35.3373H23.7033L6.79757 34.1848C6.64648 34.1743 6.50577 34.1049 6.40641 33.9918C6.30705 33.8787 6.25718 33.7312 6.26775 33.5817C6.27833 33.4323 6.34849 33.2931 6.46281 33.1948C6.57713 33.0965 6.72623 33.0471 6.87733 33.0576L23.6065 34.2017L34.7526 27.8332C35.0006 27.6773 35.1781 27.4326 35.248 27.1502C35.3179 26.8678 35.2748 26.5696 35.1278 26.3179C34.9807 26.0662 34.741 25.8805 34.4588 25.7995C34.1765 25.7185 33.8736 25.7485 33.6132 25.8833L33.5334 25.9199L23.9739 29.5832C23.837 29.6448 23.6809 29.6503 23.5399 29.5985C23.3989 29.5468 23.2842 29.4419 23.221 29.3068C23.1579 29.1718 23.1512 29.0175 23.2026 28.8776C23.254 28.7377 23.3593 28.6237 23.4954 28.5603C23.5162 28.5494 23.5381 28.5409 23.5609 28.5349L33.0833 24.8716C33.6122 24.5779 34.2373 24.5041 34.8212 24.6663C35.405 24.8286 35.8998 25.2136 36.1967 25.7367C36.4936 26.2599 36.5683 26.8783 36.4043 27.4559C36.2403 28.0335 35.8511 28.523 35.3223 28.8167L24.0252 35.2696C23.9378 35.3164 23.8396 35.3397 23.7403 35.3373Z" fill="#00CB6A"/>
<path d="M20.1537 14.739C19.1055 14.739 17.573 14.4572 15.9494 13.13C13.061 10.794 13.4228 8.09163 13.4398 7.9761C13.4548 7.87527 13.4972 7.78036 13.5624 7.70146C13.6276 7.62257 13.7132 7.56264 13.8101 7.52806C13.9184 7.48861 16.5134 6.60661 19.4017 8.937C22.2901 11.2674 21.934 13.9669 21.9112 14.0825C21.8962 14.1833 21.8539 14.2782 21.7886 14.3571C21.7234 14.436 21.6378 14.4959 21.5409 14.5305C21.0924 14.6715 20.6243 14.7419 20.1537 14.739ZM16.67 12.2593C18.4788 13.7218 20.0882 13.6682 20.7946 13.5668C20.769 12.8679 20.4898 11.2928 18.681 9.82745C16.8723 8.36215 15.2629 8.41851 14.5564 8.51995C14.5821 9.21879 14.8612 10.794 16.67 12.2593Z" fill="#00CB6A"/>
<path d="M27.9929 17.5247C27.0339 17.5504 26.0927 17.2655 25.3125 16.7132C25.2327 16.6482 25.1723 16.5631 25.1377 16.4668C25.1031 16.3705 25.0956 16.2667 25.116 16.1665C25.1359 16.0735 25.6145 13.8953 28.4857 12.8921C31.357 11.8889 33.1088 13.2894 33.1829 13.3486C33.2627 13.4135 33.3231 13.4987 33.3577 13.595C33.3924 13.6913 33.3999 13.7951 33.3794 13.8953C33.3595 13.9883 32.8809 16.1665 30.0097 17.1668C29.3635 17.4008 28.6811 17.5219 27.9929 17.5247ZM26.3608 16.0369C26.882 16.2989 28.0129 16.6681 29.6308 16.1017C31.2488 15.5381 31.9096 14.549 32.1346 14.0193C31.6134 13.7572 30.4825 13.3881 28.8646 13.9516C27.2466 14.5152 26.6 15.5071 26.3608 16.0369Z" fill="#00CB6A"/>
<path d="M32.6498 25.3168C32.1969 24.1107 31.4905 23.3076 30.5562 22.9272C29.2402 22.3946 27.7988 22.8596 26.9614 23.209C25.7536 21.5183 24.3778 21.0139 23.3381 20.9096C23.378 18.9004 23.6088 16.8993 24.0275 14.9329C24.4084 13.0224 25.0076 11.161 25.8135 9.38445C25.8599 9.25161 25.8545 9.1064 25.7982 8.97731C25.742 8.84822 25.6391 8.74457 25.5096 8.6867C25.3801 8.62883 25.2334 8.62091 25.0984 8.6645C24.9633 8.70809 24.8495 8.80005 24.7795 8.92232V8.95049C23.9468 10.7877 23.3276 12.7124 22.9336 14.6877C22.4902 16.7436 22.2432 18.8362 22.1959 20.9378C20.7685 21.1793 19.4585 21.8713 18.4615 22.9103C15.8267 21.7212 13.8698 23.4739 13.1804 24.6377C13.1224 24.7648 13.114 24.9087 13.157 25.0416C13.2 25.1745 13.2913 25.2869 13.4132 25.357C13.5352 25.4271 13.679 25.45 13.8171 25.4212C13.9551 25.3925 14.0774 25.3141 14.1603 25.2012C14.3198 24.9392 15.7868 22.6651 18.3219 24.0938C18.4417 24.1604 18.5817 24.182 18.7162 24.1545C18.8507 24.1271 18.9707 24.0525 19.054 23.9445C19.712 23.0991 21.3841 21.9438 23.0419 22.017C24.2981 22.0762 25.3833 22.8173 26.2635 24.2178C26.3374 24.3349 26.4522 24.4212 26.5861 24.4601C26.72 24.4991 26.8637 24.4881 26.9899 24.4291C27.5852 24.1474 28.9838 23.5077 30.1232 23.967C30.7527 24.2234 31.2427 24.8124 31.5816 25.7085C31.6222 25.8159 31.6949 25.9085 31.7901 25.974C31.8853 26.0394 31.9984 26.0746 32.1143 26.0748C32.1825 26.0755 32.2502 26.063 32.3137 26.0382C32.4546 25.9862 32.5691 25.8812 32.632 25.746C32.695 25.6109 32.7014 25.4566 32.6498 25.3168Z" fill="#00CB6A"/>
<path d="M27.9434 10.2142C26.9477 10.2227 25.9615 10.0229 25.0493 9.62807C24.9706 9.58975 24.9018 9.53396 24.8485 9.46504C24.7951 9.39612 24.7586 9.31594 24.7417 9.23074C24.7075 9.06167 23.9698 5.07436 27.875 2.13531C31.7803 -0.80375 35.4434 0.948976 35.6058 1.02506C35.6845 1.06337 35.7533 1.11916 35.8066 1.18808C35.86 1.257 35.8966 1.33719 35.9134 1.42238C35.9476 1.58864 36.6854 5.57595 32.7801 8.515C31.4055 9.60093 29.7024 10.1993 27.9434 10.2142ZM25.8241 8.72916C26.6787 9.03349 29.305 9.72669 32.0908 7.61891C34.8766 5.51113 34.8908 2.80033 34.8196 1.92396C33.9822 1.61681 31.3331 0.932068 28.5501 3.03139C25.7814 5.1279 25.7529 7.84998 25.8241 8.72916Z" fill="#00CB6A"/>
</svg>
