<svg width="825" height="844" viewBox="0 0 825 844" fill="none" xmlns="http://www.w3.org/2000/svg">
<rect width="825" height="844" rx="10" fill="#002576"/>
<g clip-path="url(#clip0_10952_4665)">
<g opacity="0.7">
<mask id="mask0_10952_4665" style="mask-type:alpha" maskUnits="userSpaceOnUse" x="10" y="477" width="438" height="255">
<path d="M18.1302 479.863L16.0994 481.019C8.58408 485.305 9.47347 492.883 18.1154 497.925L410.766 727.445C419.393 732.487 432.497 733.096 440.012 728.81L442.043 727.653C449.558 723.367 448.669 715.789 440.027 710.747L47.3763 481.227C38.7492 476.185 25.6455 475.577 18.1302 479.863Z" fill="url(#paint0_linear_10952_4665)"/>
</mask>
<g mask="url(#mask0_10952_4665)">
<path opacity="0.66" d="M18.1302 479.863L16.0994 481.019C8.58408 485.305 9.47347 492.883 18.1154 497.925L410.766 727.445C419.393 732.487 432.497 733.096 440.012 728.81L442.043 727.653C449.558 723.367 448.669 715.789 440.027 710.747L47.3763 481.227C38.7492 476.185 25.6455 475.577 18.1302 479.863Z" fill="url(#paint1_linear_10952_4665)"/>
</g>
<mask id="mask1_10952_4665" style="mask-type:alpha" maskUnits="userSpaceOnUse" x="167" y="505" width="234" height="137">
<path d="M174.5 507.874L172.469 509.031C164.954 513.317 165.843 520.895 174.485 525.937L364.132 636.804C372.76 641.846 385.863 642.454 393.379 638.169L395.409 637.012C402.925 632.726 402.035 625.148 393.393 620.106L203.746 509.239C195.119 504.197 182.03 503.589 174.5 507.874Z" fill="url(#paint2_linear_10952_4665)"/>
</mask>
<g mask="url(#mask1_10952_4665)">
<path opacity="0.66" d="M174.5 507.874L172.469 509.031C164.954 513.317 165.843 520.895 174.485 525.937L364.132 636.804C372.76 641.846 385.863 642.454 393.379 638.169L395.409 637.012C402.925 632.726 402.035 625.148 393.393 620.106L203.746 509.239C195.119 504.197 182.03 503.589 174.5 507.874Z" fill="url(#paint3_linear_10952_4665)"/>
</g>
<mask id="mask2_10952_4665" style="mask-type:alpha" maskUnits="userSpaceOnUse" x="267" y="500" width="402" height="234">
<path d="M274.793 503.116L272.763 504.273C265.247 508.558 266.137 516.136 274.778 521.178L631.987 729.774C640.614 734.816 653.718 735.424 661.233 731.138L663.264 729.981C670.779 725.696 669.89 718.118 661.248 713.075L304.039 504.48C295.412 499.423 282.309 498.815 274.793 503.116Z" fill="url(#paint4_linear_10952_4665)"/>
</mask>
<g mask="url(#mask2_10952_4665)">
<path opacity="0.66" d="M274.793 503.116L272.763 504.273C265.247 508.558 266.137 516.136 274.778 521.178L631.987 729.774C640.614 734.816 653.718 735.424 661.233 731.138L663.264 729.981C670.779 725.696 669.89 718.118 661.248 713.075L304.039 504.48C295.412 499.423 282.309 498.815 274.793 503.116Z" fill="url(#paint5_linear_10952_4665)"/>
</g>
<mask id="mask3_10952_4665" style="mask-type:alpha" maskUnits="userSpaceOnUse" x="61" y="316" width="711" height="416">
<path d="M68.3065 319.018L66.2757 320.175C58.7603 324.461 59.6497 332.039 68.2916 337.081L734.652 727.459C743.279 732.501 756.383 733.109 763.898 728.824L765.929 727.667C773.444 723.381 772.555 715.803 763.913 710.761L97.5525 320.383C88.9106 315.326 75.8218 314.718 68.3065 319.018Z" fill="url(#paint6_linear_10952_4665)"/>
</mask>
<g mask="url(#mask3_10952_4665)">
<path opacity="0.66" d="M68.3065 319.018L66.2757 320.175C58.7603 324.461 59.6497 332.039 68.2916 337.081L734.652 727.459C743.279 732.501 756.383 733.109 763.898 728.824L765.929 727.667C773.444 723.381 772.555 715.803 763.913 710.761L97.5525 320.383C88.9106 315.326 75.8218 314.718 68.3065 319.018Z" fill="url(#paint7_linear_10952_4665)"/>
</g>
<mask id="mask4_10952_4665" style="mask-type:alpha" maskUnits="userSpaceOnUse" x="21" y="109" width="794" height="464">
<path d="M28.7139 111.861L26.6832 113.018C19.1678 117.303 20.0572 124.881 28.6991 129.924L777.624 568.202C786.251 573.244 799.355 573.852 806.87 569.566L808.901 568.41C816.417 564.124 815.527 556.546 806.885 551.504L57.96 113.225C49.3181 108.183 36.2293 107.56 28.7139 111.861Z" fill="url(#paint8_linear_10952_4665)"/>
</mask>
<g mask="url(#mask4_10952_4665)">
<path opacity="0.66" d="M28.7139 111.861L26.6832 113.018C19.1678 117.303 20.0572 124.881 28.6991 129.924L777.624 568.202C786.251 573.244 799.355 573.852 806.87 569.566L808.901 568.41C816.417 564.124 815.527 556.546 806.885 551.504L57.96 113.225C49.3181 108.183 36.2293 107.56 28.7139 111.861Z" fill="url(#paint9_linear_10952_4665)"/>
</g>
<mask id="mask5_10952_4665" style="mask-type:alpha" maskUnits="userSpaceOnUse" x="189" y="146" width="551" height="323">
<path d="M196.512 149.738L194.481 150.894C186.966 155.18 187.855 162.758 196.497 167.8L703.597 464.232C712.224 469.274 725.328 469.882 732.843 465.597L734.874 464.44C742.39 460.154 741.5 452.576 732.858 447.534L225.758 151.102C217.131 146.06 204.027 145.452 196.512 149.738Z" fill="url(#paint10_linear_10952_4665)"/>
</mask>
<g mask="url(#mask5_10952_4665)">
<path opacity="0.66" d="M196.512 149.738L194.481 150.894C186.966 155.18 187.855 162.758 196.497 167.8L703.597 464.232C712.224 469.274 725.328 469.882 732.843 465.597L734.874 464.44C742.39 460.154 741.5 452.576 732.858 447.534L225.758 151.102C217.131 146.06 204.027 145.452 196.512 149.738Z" fill="url(#paint11_linear_10952_4665)"/>
</g>
<mask id="mask6_10952_4665" style="mask-type:alpha" maskUnits="userSpaceOnUse" x="196" y="332" width="471" height="275">
<path d="M203.968 334.931L201.937 336.088C194.422 340.374 195.311 347.952 203.953 352.994L630.252 602.193C638.879 607.235 651.983 607.843 659.498 603.557L661.529 602.401C669.045 598.115 668.155 590.537 659.513 585.495L233.214 336.296C224.587 331.253 211.498 330.631 203.968 334.931Z" fill="url(#paint12_linear_10952_4665)"/>
</mask>
<g mask="url(#mask6_10952_4665)">
<path opacity="0.66" d="M203.968 334.931L201.937 336.088C194.422 340.374 195.311 347.952 203.953 352.994L630.252 602.193C638.879 607.235 651.983 607.843 659.498 603.557L661.529 602.401C669.045 598.115 668.155 590.537 659.513 585.495L233.214 336.296C224.587 331.253 211.498 330.631 203.968 334.931Z" fill="url(#paint13_linear_10952_4665)"/>
</g>
<mask id="mask7_10952_4665" style="mask-type:alpha" maskUnits="userSpaceOnUse" x="285" y="320" width="204" height="119">
<path d="M292.492 323.273L290.461 324.43C282.946 328.715 283.835 336.293 292.477 341.335L452.226 434.718C460.853 439.761 473.957 440.369 481.472 436.083L483.503 434.926C491.019 430.64 490.129 423.062 481.487 418.02L321.738 324.637C313.111 319.595 300.022 318.987 292.492 323.273Z" fill="url(#paint14_linear_10952_4665)"/>
</mask>
<g mask="url(#mask7_10952_4665)">
<path opacity="0.66" d="M292.492 323.273L290.461 324.43C282.946 328.715 283.835 336.293 292.477 341.335L452.226 434.718C460.853 439.761 473.957 440.369 481.472 436.083L483.503 434.926C491.019 430.64 490.129 423.062 481.487 418.02L321.738 324.637C313.111 319.595 300.022 318.987 292.492 323.273Z" fill="url(#paint15_linear_10952_4665)"/>
</g>
</g>
<path d="M201.505 670.246L424.922 532.172L407.257 521.434L187.456 655.193L201.505 670.246Z" fill="url(#paint16_linear_10952_4665)"/>
<path d="M128.775 681.856L255.001 599.222L240.608 590.035L89.3018 681.856H128.775Z" fill="url(#paint17_linear_10952_4665)"/>
<path d="M453.509 695.577L538.906 638.414L524.431 629.086L507.053 637.87L417.534 695.577H453.509Z" fill="url(#paint18_linear_10952_4665)"/>
<path d="M478.748 676.577L636.004 574.633L635.512 564.397L626.814 558.371L609.624 567.115L452.363 676.577H478.748Z" fill="url(#paint19_linear_10952_4665)"/>
<path d="M368.707 657.581L587.456 526.028L586.96 515.829L578.208 509.824L560.906 518.536L356.321 646.32L368.707 657.581Z" fill="url(#paint20_linear_10952_4665)"/>
<path d="M539.532 595.311L591.676 562.599L589.888 558.009L581.242 552.039L564.151 560.702L527.296 584.111L539.532 595.311Z" fill="url(#paint21_linear_10952_4665)"/>
<path d="M265.727 447.706C263.716 444.532 254.688 448.483 255.009 449.567C255.456 451.071 258.299 474.79 265.981 480.793C273.462 486.643 282.688 474.88 288.624 468.797C289.469 467.933 290.574 466.667 289.129 464.893C289.115 464.875 287.515 463.33 286.777 463.244C285.487 463.094 283.923 465.246 282.804 466.081C280.929 467.48 273.167 474.548 271.086 472.467C265.569 466.945 269.825 454.173 265.727 447.706Z" fill="#33ADF8"/>
<path d="M296.942 459.665C296.746 459.899 303.732 453.797 303.545 454.012C303.302 454.289 303.863 454.496 301.172 457.348C300.861 457.675 297.293 461.287 297.04 461.557C296.865 461.74 302.217 459.486 302.217 459.486C302.027 460.905 295.407 463.426 295.359 463.467C289.944 467.852 288.904 466.271 288.904 466.271L288.891 466.26C288.279 466.452 287.355 466.284 286.495 465.757C285.308 465.03 285.513 464.03 285.951 463.371C286.028 463.255 286.14 463.167 286.267 463.095L286.257 463.087C286.257 463.087 294.344 457.47 294.625 457.276C294.903 457.084 298.493 454.017 298.493 454.017L301.663 452.875C301.273 454.195 299.244 454.925 299.244 454.925L296.384 457.793L299.707 455.358L303.012 452.828C303.102 454.145 300.13 456.49 300.13 456.49L296.942 459.665Z" fill="#9E684D"/>
<path d="M286.304 463.771L286.289 463.765L287.135 463.135L287.14 463.138C287.341 462.93 287.572 462.733 287.82 462.544L287.806 462.535C287.806 462.535 289.749 459.339 290.681 458.554C291.261 458.063 294.25 456.563 294.25 456.563L297.217 456C297.217 456 296.814 457.47 294.562 457.687L292.981 459.224C292.981 459.224 293.55 460.624 293.2 462.642C293.048 463.505 292.681 464.166 291.987 464.902H291.988C291.988 464.902 290.673 466.596 290.092 467.159C288.651 468.553 285.773 469.292 284.86 467.98C284.116 466.911 284.77 465.197 286.304 463.771Z" fill="#B7835F"/>
<path d="M225.449 599.694V596.795C225.449 595.541 226.223 594.405 227.421 593.905L228.333 593.525C229.798 592.914 231.5 593.186 232.669 594.23C234.512 595.874 236.906 598.345 239.328 601.181C240.403 602.439 241.142 603.434 241.785 604.114C242.709 605.09 242.433 606.64 241.24 607.29L240.47 607.71C239.807 608.072 238.994 608.068 238.332 607.702L226.218 600.977C225.742 600.713 225.449 600.223 225.449 599.694Z" fill="#DFE9F8"/>
<path d="M241.28 606.028C241.156 606.554 240.792 607.039 240.215 607.33L239.431 607.725C238.756 608.063 237.932 608.061 237.26 607.717L225.449 601.645" stroke="#120667" stroke-width="0.5"/>
<path d="M226.504 587.103L232.723 584.758L232.801 593.589L232.792 593.595C233.045 594.539 232.195 595.866 230.717 596.717C229.084 597.658 227.322 597.658 226.776 596.717C226.667 596.527 226.629 596.311 226.629 596.086L226.616 596.084L226.504 587.103Z" fill="#002576"/>
<path d="M228.752 596.806C229.213 597.631 230.706 597.631 232.088 596.806C233.471 595.982 234.216 594.646 233.757 593.822C233.295 592.997 231.801 592.997 230.42 593.822C229.038 594.646 228.29 595.982 228.752 596.806Z" fill="#DFE9F8"/>
<path d="M233.892 595.314C233.221 595.293 232.4 595.474 231.613 595.856C230.126 596.579 229.319 597.755 229.817 598.479" stroke="#120667" stroke-width="0.5"/>
<path d="M234.948 596.369C234.444 596.347 233.829 596.528 233.239 596.911C232.122 597.634 231.519 598.808 231.892 599.533" stroke="#120667" stroke-width="0.5"/>
<path d="M237.06 598.478C236.555 598.457 235.941 598.637 235.352 599.019C234.236 599.743 233.631 600.919 234.003 601.643" stroke="#120667" stroke-width="0.5"/>
<path d="M234.949 595.314C234.277 595.292 233.457 595.474 232.67 595.856C231.183 596.579 230.377 597.753 230.874 598.479" stroke="#120667" stroke-width="0.5"/>
<path d="M236.003 597.424C235.499 597.403 234.885 597.583 234.295 597.966C233.178 598.689 232.574 599.865 232.946 600.588" stroke="#120667" stroke-width="0.5"/>
<path d="M242.337 606.922L240.226 607.977" stroke="#120667" stroke-width="0.5"/>
<path d="M238.115 591.713V588.606C238.115 587.261 238.89 586.045 240.087 585.51L240.997 585.103C242.465 584.448 244.166 584.74 245.335 585.858C247.177 587.619 249.57 590.267 251.995 593.306C253.068 594.654 253.808 595.721 254.452 596.448C255.373 597.492 255.099 599.154 253.906 599.851L253.135 600.3C252.473 600.688 251.659 600.686 250.999 600.291L238.884 593.087C238.408 592.803 238.115 592.279 238.115 591.713Z" fill="#DFE9F8"/>
<path d="M253.946 598.316C253.823 598.929 253.456 599.495 252.88 599.836L252.096 600.296C251.421 600.693 250.598 600.689 249.925 600.287L238.115 593.203" stroke="#120667" stroke-width="0.5"/>
<path d="M239.169 579.537L245.208 577.367L245.467 585.429L245.458 585.434C245.705 586.306 244.878 587.535 243.443 588.323C241.858 589.195 240.145 589.195 239.617 588.323C239.511 588.146 239.474 587.947 239.474 587.737L239.46 587.736L239.169 579.537Z" fill="#002576"/>
<path d="M241.418 589.417C241.878 590.24 243.371 590.24 244.754 589.417C246.135 588.592 246.882 587.255 246.422 586.431C245.96 585.606 244.466 585.606 243.086 586.431C241.702 587.255 240.955 588.592 241.418 589.417Z" fill="#DFE9F8"/>
<path d="M246.557 586.873C245.883 586.851 245.065 587.03 244.278 587.414C242.791 588.137 241.986 589.313 242.481 590.037" stroke="#120667" stroke-width="0.5"/>
<path d="M247.613 588.982C247.109 588.961 246.495 589.142 245.905 589.524C244.789 590.247 244.184 591.421 244.558 592.147" stroke="#120667" stroke-width="0.5"/>
<path d="M249.723 591.091C249.219 591.071 248.606 591.25 248.016 591.632C246.899 592.357 246.294 593.532 246.667 594.256" stroke="#120667" stroke-width="0.5"/>
<path d="M247.612 587.927C246.941 587.907 246.119 588.087 245.336 588.469C243.846 589.192 243.041 590.366 243.536 591.092" stroke="#120667" stroke-width="0.5"/>
<path d="M248.668 590.037C248.164 590.017 247.551 590.196 246.96 590.579C245.844 591.303 245.24 592.477 245.612 593.201" stroke="#120667" stroke-width="0.5"/>
<path d="M255 598.477L252.889 600.587" stroke="#120667" stroke-width="0.5"/>
<path d="M238.219 581.822L238.125 580.228C238.002 579.038 239.03 577.468 240.793 576.364C242.95 575.015 245.36 574.886 246.175 576.076C246.413 576.422 246.472 576.846 246.407 577.303L246.466 577.282L246.558 578.812L246.538 578.821C246.607 579.999 245.586 581.525 243.863 582.602C241.706 583.951 239.298 584.08 238.48 582.892C238.365 582.722 238.297 582.534 238.254 582.334L238.25 582.336L238.239 582.16C238.227 582.049 238.211 581.94 238.219 581.822Z" fill="#33ADF8"/>
<path d="M225.449 588.228L225.471 588.22C225.356 586.884 226.381 585.126 228.138 583.889C230.293 582.372 232.701 582.226 233.516 583.563C233.715 583.89 233.798 584.275 233.782 584.692L233.796 584.685L233.892 586.536L233.871 586.545C234.004 587.883 232.973 589.661 231.204 590.906C229.047 592.423 226.639 592.57 225.827 591.232C225.676 590.986 225.61 590.697 225.584 590.398L225.565 590.406L225.449 588.228Z" fill="#33ADF8"/>
<path d="M229.064 520.468C229.221 516.023 231.128 496.987 232.438 492.659C236.243 480.092 255.967 477.754 256.632 482.66C259.909 506.848 245.31 572.268 245.052 575.788C245.754 576.849 244.818 578.686 242.957 579.889C241.097 581.093 239.019 581.208 238.314 580.149C238.211 579.99 238.152 579.811 238.118 579.626H238.111V579.533C238.092 579.396 238.089 579.254 238.104 579.106C238.066 575.529 244.086 515.226 244.391 512.945C244.391 512.945 231.921 580.761 232.573 584.234L232.564 584.238C232.912 585.32 231.996 586.912 230.319 587.997C228.459 589.2 226.382 589.316 225.677 588.255C225.528 588.027 225.467 587.762 225.46 587.478L225.449 587.482C225.449 587.482 228.966 523.195 229.064 520.468Z" fill="#120667"/>
<path d="M257.004 443.344C257.39 443.257 254.568 443.636 252.759 444.303C247.83 446.127 240.598 450.029 236.15 452.133C232.808 453.714 229.556 456.209 227.826 458.386L227.806 458.354C227.806 458.354 227.711 458.481 227.578 458.661C227.529 458.729 227.478 458.793 227.432 458.862C223.642 464.044 232.683 480.268 232.683 480.268C233.378 481.642 233.161 482.186 233.263 483.723C233.334 484.768 232.215 487.668 234.613 487.659H234.913L256.323 475.393C258.144 475.393 257.629 473.333 257.762 472.545C258.531 467.998 266.081 456.09 266.081 456.09C268.222 449.845 263.594 443.344 257.004 443.344Z" fill="#33ADF8"/>
<path d="M236.431 490.567C238.291 493.716 244.305 493.725 249.863 490.59C255.422 487.455 258.42 482.363 256.559 479.215L236.003 489.512C236.092 489.883 236.233 490.237 236.431 490.567Z" fill="#002576"/>
<path d="M240.226 489.77L238.115 490.557V492.936H240.226V489.77Z" fill="#120667"/>
<path d="M256.057 482.383L253.946 482.854V488.715H256.057V482.383Z" fill="#120667"/>
<path d="M252.89 482.383L248.668 484.717V491.881H252.89V482.383Z" fill="#120667"/>
<path d="M233.494 487.874C235.714 491.799 242.888 491.812 249.518 487.903C256.151 483.995 259.727 477.648 257.508 473.725C255.289 469.8 248.114 469.788 241.483 473.697C234.852 477.604 231.276 483.952 233.494 487.874Z" fill="#33ADF8"/>
<path d="M249.484 448.702V440.164H241.521V448.702C241.521 450.711 239.996 454.771 238.115 454.771L245.476 463.383L252.89 454.771C251.009 454.771 249.484 450.711 249.484 448.702Z" fill="#9E684D"/>
<path d="M249.724 444.82L249.685 441.223L241.281 441.495L241.282 443.481C242.582 444.697 244.248 445.519 247.97 445.439C248.585 445.426 249.408 445.199 249.724 444.82Z" fill="#723925"/>
<path d="M246.963 426.464C243.449 426.195 240.398 428.881 240.148 432.458L239.978 434.89C239.94 434.891 239.914 434.855 239.877 434.86C238.787 434.989 238.004 436.015 238.128 437.15C238.242 438.214 239.132 438.927 240.134 438.92C240.856 441.832 243.253 444.11 246.355 444.346C249.516 444.587 252.142 443.899 252.487 438.951L252.874 433.425C253.123 429.848 250.478 426.731 246.963 426.464Z" fill="#B7835F"/>
<path fill-rule="evenodd" clip-rule="evenodd" d="M246.618 426.465C242.865 426.182 239.607 429.006 239.34 432.771L239.232 434.304L239.169 435.215L239.735 436.999L241.326 436.552L240.804 434.591C242.816 434.403 242.138 432.351 242.138 432.351C241.486 431.045 242.644 429.737 242.644 429.737C245.296 427.486 247.029 430.212 247.029 430.212C247.298 430.993 248.053 431.521 248.902 431.694C250.182 431.955 251.424 431.101 251.676 429.789C251.711 429.606 251.834 429.55 251.834 429.55C250.698 427.778 248.798 426.627 246.618 426.465Z" fill="black"/>
<path d="M249.648 443.332C249.729 444.973 249.376 447.226 248.293 448.84C248.293 448.84 242.423 448.667 241.707 447.364C241.575 447.126 241.572 446.842 241.56 446.56L241.493 446.587L239.629 449.655L237.06 454.178L245.586 463.385L256.057 451.858L249.648 443.332Z" fill="#33ADF8"/>
<path d="M247.614 452.578L248.465 450.719L251.117 451.115C251.117 451.115 252.923 452.774 250.809 453.656C248.695 454.54 247.614 452.578 247.614 452.578Z" fill="#002576"/>
<path d="M248.492 452.828C248.492 452.828 248.46 462.044 246.45 466.501C244.44 470.957 245.845 474.761 248.613 474.992L249.296 472.655C249.296 472.655 247.966 472.61 247.722 471.187C247.397 469.285 249 466.301 249.304 465.196C249.731 463.638 250.481 460.685 250.779 452.828H248.492Z" fill="#002576"/>
<path d="M282.99 465.496L286.663 470.279L286.005 470.773C282.59 469.066 282.441 465.906 282.441 465.906L282.99 465.496Z" fill="url(#paint22_linear_10952_4665)"/>
<path d="M286.438 463.387C286.438 463.387 287.27 466.507 289.83 467.718L287.47 470.775C284.212 468.674 283.498 465.44 283.498 465.44L286.438 463.387Z" fill="#33ADF8"/>
<path d="M287.643 468.919C287.795 469.169 287.713 469.494 287.463 469.645C287.213 469.793 286.889 469.714 286.739 469.462C286.59 469.215 286.67 468.891 286.92 468.739C287.17 468.59 287.492 468.67 287.643 468.919Z" fill="#002576"/>
<path d="M214.946 480.034C222.752 477.782 224.378 461.486 226.763 458.636C227.241 458.068 227.842 457.488 228.524 456.926C231.442 454.521 238.229 457.429 238.114 458.579C237.802 461.729 228.933 483.152 221.726 487.767C214.253 492.553 206.303 488.515 192.246 478.435C191.261 477.729 189.946 476.67 191.028 474.613C191.039 474.592 192.318 472.738 193.024 472.513C194.259 472.114 196.186 473.975 197.439 474.603C202.103 476.933 208.918 481.774 214.946 480.034Z" fill="#33ADF8"/>
<path d="M230.727 479.056C230.727 479.056 233.594 472.397 234.133 468.664L234.949 470.872C234.949 470.872 233.623 476.043 231.754 480.274L230.727 479.056Z" fill="url(#paint23_linear_10952_4665)"/>
<path d="M180.022 464.825C180.022 464.825 183.346 469.423 183.584 469.694C183.74 469.869 187.291 474.132 188.977 476.139C189.886 477.22 191.448 477.424 192.6 476.618C193.707 475.846 194.091 474.38 193.533 473.139C192.805 471.52 190.467 467.936 188.619 466.083L187.165 463.431C187.165 463.431 187.434 462.376 186.418 460.947L186.035 463.325L187.481 466.917L184.816 463.299C184.816 463.299 184.342 460.808 182.313 460.223L183.455 463.563L185.363 466.776L183.018 463.881C183.018 463.881 183.144 461.575 181.35 460.532L181.85 464.459L183.941 467.787L180.912 463.934C180.912 463.934 180.47 462.024 179.011 461.77L180.022 464.825Z" fill="#B7835F"/>
<path d="M196.333 473.941L193.788 479.865L194.499 480.274C197.384 477.754 196.928 474.283 196.928 474.283L196.333 473.941Z" fill="url(#paint24_linear_10952_4665)"/>
<path d="M193.364 472.883C193.364 472.883 193.122 476.077 190.622 477.715L193.798 480.271C196.863 477.636 196.955 474.354 196.955 474.354L193.364 472.883Z" fill="#33ADF8"/>
<path d="M192.764 478.505C192.664 478.779 192.803 479.084 193.077 479.183C193.349 479.284 193.654 479.144 193.753 478.872C193.856 478.597 193.717 478.295 193.443 478.194C193.169 478.091 192.865 478.233 192.764 478.505Z" fill="#002576"/>
<path fill-rule="evenodd" clip-rule="evenodd" d="M397.481 257.587C333.406 294.576 281.386 384.663 281.386 458.639C281.386 532.615 333.406 562.644 397.481 525.656C461.555 488.669 513.576 398.581 513.576 324.605C513.576 250.63 461.555 220.6 397.481 257.587Z" fill="#33ADF8"/>
<path fill-rule="evenodd" clip-rule="evenodd" d="M315.159 533.006L336.363 545.709L348.932 514.047L315.159 533.006Z" fill="#33ADF8"/>
<path fill-rule="evenodd" clip-rule="evenodd" d="M477.648 248.086L499.856 260.423L470.304 272.36L477.648 248.086Z" fill="#33ADF8"/>
<path fill-rule="evenodd" clip-rule="evenodd" d="M417.534 268.194C353.459 305.313 301.439 395.718 301.439 469.954C301.439 544.19 353.459 574.324 417.534 537.207C481.609 500.089 533.629 409.683 533.629 335.447C533.629 261.211 481.609 231.076 417.534 268.194Z" fill="#120667"/>
<path fill-rule="evenodd" clip-rule="evenodd" d="M419.963 524.923C360.042 559.656 317.271 528.98 317.271 462.925C317.271 396.87 361.308 315.873 419.963 281.872C474.818 250.076 523.075 274.635 523.075 343.626C523.075 407.725 479.882 490.188 419.963 524.923ZM517.789 346.69C517.789 283.012 473.954 256.723 419.963 288.02C365.969 319.318 322.135 396.426 322.135 460.104C322.135 523.783 365.969 550.072 419.963 518.775C473.954 487.477 517.789 410.369 517.789 346.69ZM394.821 515.594L421.061 411.641L448.387 480.734C449.487 480.098 449.487 481.371 449.487 481.371C439.642 490.874 429.796 499.117 419.963 504.818C411.215 509.888 402.47 513.684 394.821 515.594ZM340.156 407.828C334.684 423.677 332.498 438.884 332.498 454.097C332.498 494.666 352.177 517.481 381.701 516.853L340.156 407.828ZM491.023 360.934C495.395 343.196 497.592 330.507 497.592 320.366C497.592 318.469 497.318 317.045 497.043 315.62C496.769 314.194 496.494 312.766 496.494 310.86C503.053 320.997 507.425 334.949 507.425 352.698C507.425 389.456 489.933 432.558 463.695 465.517L491.023 360.934ZM346.706 390.08L352.177 386.908C360.925 381.838 375.132 372.34 375.132 372.34C379.505 369.806 380.603 376.776 375.132 381.209C375.132 381.209 370.768 383.74 365.297 388.172L396.998 480.096L416.687 401.498L403.567 365.988C399.194 368.524 394.821 369.796 394.821 369.796C390.439 372.336 390.439 363.468 395.909 360.297C395.909 360.297 410.127 353.317 418.864 348.253C427.62 343.178 441.828 333.68 441.828 333.68C446.201 331.143 447.289 338.119 442.926 341.912C442.926 341.912 438.554 344.446 433.081 348.881L464.793 439.525L473.529 400.237C476.813 384.394 479.001 372.972 479.001 364.104C479.001 351.427 474.627 345.082 471.352 340.647C470.533 339.464 469.714 338.37 468.924 337.313C465.488 332.718 462.597 328.853 462.597 321.64C462.597 312.761 469.155 300.092 476.813 295.651L477.901 295.02C463.693 286.769 442.926 288.666 419.963 301.977C389.35 319.722 362.023 353.312 346.706 390.08Z" fill="#DEECFF"/>
<path d="M533.125 396.228L531.546 394.83C531.326 395.744 532.408 396.549 532.408 396.549L533.609 398.628C534.407 401.73 536.853 404.611 536.853 404.611L536.865 404.61C537.138 404.984 537.766 405.274 538.521 405.331C539.565 405.409 539.911 404.738 539.959 404.166C539.966 404.066 539.941 403.968 539.898 403.871H539.907C539.907 403.871 537.724 397.159 537.649 396.93C537.573 396.698 536.418 393.628 536.418 393.628L535.069 391.617C534.684 392.554 535.55 393.84 535.55 393.84L536.363 396.485L535.117 394.127L533.138 392.214C533.11 393.618 534.339 394.609 534.339 394.609L535.227 396.968L533.985 394.756L532.556 392.632C532.165 394.013 533.19 395.084 533.19 395.084L534.533 398.249L533.125 396.228Z" fill="#EBA87C"/>
<path d="M539.913 404.485C539.664 404.134 539.46 403.848 539.425 403.775L539.438 403.774C539.438 403.774 539.585 400.84 539.2 399.962C538.961 399.417 537.215 397.667 537.215 397.667L535.83 396.895C535.83 396.895 535.88 398.022 537.093 398.983L537.461 399.742C537.461 399.742 536.253 400.63 535.897 402.251C535.679 402.749 535.688 403.464 535.928 404.23L536.865 405.728L537.593 406.364C537.698 406.627 540.352 405.045 539.913 404.485Z" fill="#FFC398"/>
<path d="M568.607 461.277L576.345 504.483C576.345 504.483 574.417 511.086 565.292 515.103C565.292 515.103 570.178 514.929 571.692 514.409C573.878 513.656 579.462 509.561 579.462 509.561L580.55 508.554C580.55 508.554 582.1 505.078 580.101 503.772C580.101 503.772 578.827 469.615 578.622 466.162C578.614 466.047 568.607 461.277 568.607 461.277Z" fill="#FFC398"/>
<path d="M580.066 470.773L582.693 508.086C582.693 508.086 583.288 517.672 586.767 522.488C586.767 522.488 588.081 512.967 586.784 509.036C586.365 507.764 586.373 506.431 586.496 505.097C587.235 497.019 589.367 473.713 589.565 470.908C589.574 470.795 580.066 470.773 580.066 470.773Z" fill="#FFC398"/>
<path d="M583.232 510.953C583.232 510.953 584.414 522.988 588.027 525.655C588.027 525.655 589.353 518.108 587.607 509.824C587.607 509.824 587.604 519.893 586.882 521.255L583.232 510.953Z" fill="#0C022F"/>
<path d="M568.659 514.062C568.659 514.062 573.604 513.762 576.117 510.323C578.631 506.884 577.104 507.363 579.512 504.547C579.512 504.547 581.364 505.354 581.096 509.018L579.633 514.277C579.43 514.448 578.766 514.581 578.576 514.397L578.903 510.349C578.903 510.349 573.461 515.003 571.464 515.388C569.468 515.773 564.696 516.562 565.353 515.903L568.659 514.062Z" fill="#0C022F"/>
<path d="M570.15 467.493C570.15 467.493 572.33 472.033 578.651 473.244V470.767L580.282 471.445L580.398 473.926C580.398 473.926 584.42 476.335 589.275 473.926L589.565 470.386L569.513 462.332L570.15 467.493Z" fill="#E08C5C"/>
<path d="M600.119 401.115C600.119 402.864 598.7 404.282 596.954 404.282C595.205 404.282 593.786 402.864 593.786 401.115C593.786 399.367 595.205 397.949 596.954 397.949C598.7 397.949 600.119 399.367 600.119 401.115Z" fill="#002576"/>
<path d="M591.572 469.925C591.581 469.884 591.6 469.848 591.606 469.807C592.746 465.92 600.746 437.182 591.467 425.463L568.402 416.949C559.025 430.34 568.402 461.757 568.402 461.757L568.464 461.78C568.978 464.996 571.893 468.719 576.317 471.288C582.427 474.836 589.038 474.824 591.084 471.263C591.262 470.953 591.348 470.605 591.447 470.263L591.467 470.271C591.467 470.271 591.508 470.14 591.572 469.925Z" fill="#33ADF8"/>
<path d="M593.788 422.248L593.183 422.043C592.001 419 589.174 415.801 585.209 413.488C582.033 411.637 578.625 410.617 575.615 410.617H575.593C572.512 410.625 570.204 411.695 569.097 413.633C569.064 413.689 569.059 413.758 569.028 413.816L568.458 413.621L568.475 416.092C568.414 417.546 568.802 419.145 569.756 420.823C571.258 423.464 573.844 425.942 577.031 427.8C580.207 429.65 583.614 430.67 586.622 430.67H586.647C589.727 430.664 592.033 429.593 593.143 427.651C593.565 426.91 593.723 426.066 593.754 425.187L593.788 425.2V422.248Z" fill="#120667"/>
<path d="M573.884 383.634V383.569C573.884 383.569 575.903 383.388 576.358 380.688C576.358 380.688 576.364 380.44 576.376 380.305C576.695 375.76 580.737 372.33 585.404 372.641C589.9 372.943 593.25 376.631 593.209 380.963C593.209 380.963 592.716 385.937 596.109 387.943C597.821 388.956 598.369 390.626 598.684 392.379C600.823 392.88 602.375 394.745 602.22 396.953C602.045 399.417 599.854 401.276 597.325 401.106C596.285 401.036 595.401 400.578 594.671 399.958C593.568 400.469 592.376 400.813 591.071 400.726C588.174 400.531 585.843 398.697 584.817 396.242L580.712 391.467C579.723 393.576 577.509 394.992 574.993 394.824C571.751 394.607 569.304 391.87 569.527 388.714C569.701 386.208 571.528 384.253 573.884 383.634Z" fill="#002576"/>
<path d="M574.789 392.672C574.789 392.672 562.124 448.956 536.795 406.172L540.884 402.353C540.884 402.353 555.792 431.378 562.425 394.394L574.789 392.672Z" fill="#DFE9F8"/>
<path d="M564.236 416.963L563.592 407.453L563.18 408.372L563.582 418.007L564.236 416.963Z" fill="#C2D3EB"/>
<path d="M570.858 389.508C568.338 389.509 566.823 390.475 566.169 392.452C565.464 394.58 565.175 396.836 565.334 399.097L566.462 415.352C566.809 417.564 567.924 416.42 569.56 417.883C570.799 420.744 573.52 423.723 577.302 425.914C581.533 428.366 585.888 428.62 589.171 428.461C590.082 428.418 591.17 428.725 592.23 429.034C593.828 429.501 595.366 429.967 596.152 429.223C596.152 429.223 597.992 427.943 597.792 423.2C597.651 419.936 600.221 418.821 601.7 413.635C602.363 411.311 602.381 408.28 601.887 407.061C601.111 405.15 600.13 404.562 600.13 404.562L577.357 391.369C575.885 390.516 573.095 389.508 570.867 389.508H570.858Z" fill="#120667"/>
<path d="M597.454 402.02L597.364 401.876C597.364 401.876 582.433 393.42 578.099 390.773C573.764 388.128 570.845 388.467 570.845 388.467C564.865 388.467 560.661 394.348 562.606 399.994L565.303 422.926C565.303 422.926 566.745 426.938 568.199 422.701C569.509 418.883 567.695 408.948 568.426 402.348C568.998 397.188 571.821 394.476 573.066 393.647C575.499 392.026 578.798 393.07 578.798 393.07C578.798 393.07 582.786 394.576 587.465 397.552C590.876 399.723 592.934 403.473 591.624 405.468C590.727 407.043 589.892 408.984 589.577 411.159C588.169 420.848 591.46 429.574 591.46 429.574C591.46 436.555 600.111 435.932 600.111 435.932L602.809 413.001C604.419 408.327 601.788 403.548 597.454 402.02Z" fill="#DFE9F8"/>
<path d="M586.218 395.45C586.144 392.745 586.218 387.398 586.218 387.398H580.495V393.587C579.913 393.521 579.357 393.517 578.851 393.582C577.807 393.716 575.845 393.915 575.845 393.915L577.928 407.451L589.566 400.699C589.566 400.699 588.501 398.751 587.069 397.117C586.814 396.823 586.231 395.872 586.218 395.45Z" fill="url(#paint25_linear_10952_4665)"/>
<path d="M580.21 390.617L580.066 385.285L586.399 387.669L586.353 389.863C585.113 391.514 580.895 392.444 580.21 390.617Z" fill="#E08C5C"/>
<path d="M580.295 389.234C577.763 388.421 575.968 387.049 577.418 383.05L579.034 378.586C580.083 375.695 583.213 374.083 586.026 374.985C588.837 375.889 590.271 378.964 589.221 381.856L587.984 385.274C586.831 388.456 583.388 390.227 580.295 389.234Z" fill="#EBA87C"/>
<path d="M590.347 386.592C589.771 387.353 588.484 387.622 587.473 387.191C586.457 386.762 586.099 385.796 586.672 385.035C587.246 384.273 588.533 384.006 589.549 384.436C590.562 384.865 590.921 385.831 590.347 386.592Z" fill="#EBA87C"/>
<path d="M588.676 374.957C586.965 372.835 578.631 373.1 577.253 377.645C577.15 377.982 576.961 379.188 576.9 379.529C579.231 380.614 583.693 379.653 585.61 378.428C585.38 380.662 586.476 383.358 588.669 384.044C589.697 384.368 590.723 384.238 591.66 383.889C591.906 383.416 589.149 375.542 588.676 374.957Z" fill="#002576"/>
<path d="M574.788 400.265V396.895H581.121V400.265C581.121 403.015 579.87 405.816 578.268 406.145V412.931C578.268 413.226 578.486 413.486 578.79 413.532C580.132 413.734 581.121 414.402 581.121 415.205C581.121 416.167 579.702 416.947 577.954 416.947C576.206 416.947 574.788 416.167 574.788 415.205C574.788 414.402 575.778 413.734 577.118 413.532C577.422 413.486 577.641 413.226 577.641 412.931V406.144C576.04 405.806 574.788 402.931 574.788 400.265Z" fill="#DFE9F8"/>
<path d="M574.788 396.897C574.788 398.065 576.206 399.007 577.954 399.007C579.704 399.007 581.121 398.065 581.121 396.897C581.121 395.729 579.704 394.785 577.954 394.785C576.206 394.785 574.788 395.729 574.788 396.897Z" fill="#DFE9F8"/>
<path d="M575.917 402.393L575.845 401.117H580.067L579.995 402.393C579.995 403.791 579.19 405.125 578.158 405.339H577.755C576.723 405.118 575.917 403.771 575.917 402.393Z" fill="#9B31F7"/>
<path d="M575.845 400.587C575.845 401.461 576.79 402.17 577.956 402.17C579.121 402.17 580.067 401.461 580.067 400.587C580.067 399.712 579.121 399.004 577.956 399.004C576.79 399.004 575.845 399.712 575.845 400.587Z" fill="#DD2FAC"/>
<path fill-rule="evenodd" clip-rule="evenodd" d="M581.121 396.896C581.121 395.73 579.704 394.785 577.954 394.785C576.206 394.785 574.788 395.73 574.788 396.896C574.788 398.062 576.206 399.007 577.954 399.007C579.704 399.007 581.121 398.062 581.121 396.896ZM575.295 396.896C575.295 396.174 576.388 395.37 577.954 395.37C579.521 395.37 580.614 396.174 580.614 396.896C580.614 397.618 579.521 398.422 577.954 398.422C576.388 398.422 575.295 397.618 575.295 396.896Z" fill="#BDD2EF"/>
<path d="M595.862 414.84C595.862 414.84 596.953 428.292 589.565 417.026L589.578 418.18C589.578 418.18 593.377 425.192 595.431 422.777C597.485 420.364 596.865 416.678 596.865 416.678L595.862 414.84Z" fill="#C2D3EB"/>
<path d="M576.993 400.082C576.993 400.082 579.458 402.907 579.597 403.1C579.738 403.293 583.232 407.942 583.232 407.942L581.383 410.613C581.383 410.613 578.36 408.665 576.679 405.986L575.198 404.667C575.198 404.667 574.5 404.707 573.733 403.841L575.277 403.897L577.351 405.334L575.417 403.08C575.417 403.08 573.912 402.436 573.805 401.005L575.758 402.208L577.534 403.903L576.015 401.957C576.015 401.957 574.549 401.738 574.122 400.403L576.527 401.253L578.352 403.086L576.318 400.558C576.318 400.558 575.174 400.011 575.202 399.004L576.993 400.082Z" fill="#FFC398"/>
<path d="M602.148 405.706C610.215 421.466 594.48 462.706 580.066 409.882C580.453 407.207 581.841 405.942 584.169 406C584.169 406 594.48 437.635 598.961 418.806C598.961 418.806 600.619 402.719 602.148 405.706Z" fill="#DFE9F8"/>
<path d="M534.38 342.016L534.685 344.944C532.965 345.19 531.736 347.03 531.946 349.046L529.449 349.403C529.072 345.772 531.286 342.457 534.38 342.016Z" fill="#33ADF8"/>
<path d="M414.063 321.965L414.366 324.475C412.647 324.687 411.419 326.264 411.628 327.992L409.131 328.297C408.754 325.184 410.969 322.345 414.063 321.965Z" fill="#33ADF8"/>
<path d="M541.768 311.406L542.072 314.335C540.354 314.582 539.125 316.42 539.334 318.438L536.837 318.794C536.46 315.162 538.674 311.849 541.768 311.406Z" fill="#33ADF8"/>
<path d="M314.857 355.734L315.16 358.245C313.441 358.456 312.213 360.032 312.423 361.761L309.925 362.067C309.548 358.954 311.762 356.113 314.857 355.734Z" fill="#33ADF8"/>
<path d="M455.226 273.41L455.529 275.92C453.81 276.13 452.581 277.708 452.791 279.436L450.293 279.743C449.917 276.629 452.131 273.788 455.226 273.41Z" fill="#33ADF8"/>
<path d="M496.385 359.953L496.689 362.883C494.97 363.129 493.741 364.969 493.951 366.985L491.454 367.341C491.076 363.709 493.289 360.395 496.385 359.953Z" fill="#002576"/>
<path d="M335.963 268.137L336.267 271.066C334.549 271.311 333.32 273.152 333.529 275.168L331.032 275.525C330.654 271.892 332.869 268.579 335.963 268.137Z" fill="#33ADF8"/>
<path d="M360.238 307.184L360.541 310.114C358.822 310.359 357.594 312.199 357.803 314.217L355.306 314.571C354.929 310.94 357.143 307.625 360.238 307.184Z" fill="#33ADF8"/>
<path d="M276.859 307.184L277.164 310.112C275.445 310.356 274.217 312.198 274.425 314.214L271.929 314.571C271.552 310.94 273.765 307.624 276.859 307.184Z" fill="#33ADF8"/>
<path d="M377.064 249.141L377.428 252.069C375.365 252.316 373.892 254.155 374.143 256.171L371.146 256.528C370.693 252.897 373.35 249.583 377.064 249.141Z" fill="#002576"/>
<path d="M309.763 330.052C309.511 328.036 310.985 326.193 313.049 325.947L312.686 323.02C308.97 323.461 306.315 326.775 306.767 330.407L309.763 330.052Z" fill="url(#paint26_linear_10952_4665)"/>
<path d="M397.482 391.575L397.125 389.077C395.108 389.287 393.268 388.059 393.023 386.34L390.094 386.642C390.536 389.74 393.85 391.953 397.482 391.575Z" fill="#33ADF8"/>
<path d="M467.502 336.739L467.138 334.228C469.201 334.017 470.675 332.44 470.423 330.713L473.42 330.406C473.873 333.52 471.216 336.359 467.502 336.739Z" fill="#002576"/>
<path d="M425.285 336.739L424.921 333.811C426.984 333.565 428.456 331.725 428.206 329.709L431.203 329.352C431.655 332.983 428.999 336.299 425.285 336.739Z" fill="#002576"/>
<path d="M358.796 337.793L358.43 335.283C360.493 335.073 361.968 333.496 361.715 331.766L364.712 331.461C365.166 334.574 362.509 337.416 358.796 337.793Z" fill="#002576"/>
<path d="M410.845 359.528C408.828 359.736 406.986 358.508 406.742 356.789L403.813 357.093C404.255 360.19 407.568 362.401 411.201 362.024L410.845 359.528Z" fill="url(#paint27_linear_10952_4665)"/>
<path d="M361.597 283.923L361.291 281.425C359.562 281.635 357.986 280.407 357.775 278.688L355.264 278.992C355.644 282.088 358.485 284.299 361.597 283.923Z" fill="#120667"/>
<path d="M379.844 362.068L379.54 359.139C381.259 358.893 382.487 357.053 382.278 355.036L384.775 354.68C385.152 358.312 382.939 361.627 379.844 362.068Z" fill="#120667"/>
<path d="M516.437 247.027L516.741 249.539C515.022 249.749 513.793 251.325 514.003 253.054L511.506 253.36C511.128 250.247 513.343 247.406 516.437 247.027Z" fill="#33ADF8"/>
<path d="M499.857 314.532L499.5 312.035C497.483 312.245 495.643 311.015 495.397 309.297L492.469 309.601C492.909 312.698 496.226 314.909 499.857 314.532Z" fill="#33ADF8"/>
<path d="M512.521 284.978L512.215 282.48C510.487 282.69 508.91 281.462 508.7 279.742L506.188 280.047C506.567 283.142 509.409 285.353 512.521 284.978Z" fill="#120667"/>
<path d="M486.093 271.301L483.596 271.607C483.805 273.334 482.576 274.913 480.858 275.123L481.163 277.633C484.257 277.255 486.47 274.414 486.093 271.301Z" fill="url(#paint28_linear_10952_4665)"/>
<path d="M463.221 351.512L462.917 349.002C464.636 348.79 465.864 347.214 465.656 345.485L468.152 345.18C468.529 348.293 466.315 351.132 463.221 351.512Z" fill="#120667"/>
<path d="M462.164 397.95L461.86 395.438C463.579 395.228 464.808 393.651 464.597 391.921L467.095 391.617C467.473 394.73 465.258 397.57 462.164 397.95Z" fill="#002576"/>
<path d="M425.976 236.423L425.621 233.427C423.604 233.677 421.764 232.203 421.52 230.141L418.588 230.506C419.032 234.221 422.347 236.875 425.976 236.423Z" fill="#33ADF8"/>
<path d="M314.104 211.102L313.798 208.606C312.07 208.815 310.493 207.586 310.282 205.867L307.771 206.171C308.151 209.268 310.992 211.479 314.104 211.102Z" fill="#33ADF8"/>
<path d="M529.407 212.149L529.102 209.153C527.373 209.404 525.796 207.93 525.587 205.867L523.075 206.232C523.454 209.948 526.296 212.602 529.407 212.149Z" fill="#33ADF8"/>
<path d="M344.66 371.566L341.664 371.924C341.914 373.94 340.441 375.781 338.377 376.025L338.742 378.954C342.457 378.513 345.112 375.2 344.66 371.566Z" fill="url(#paint29_linear_10952_4665)"/>
<path d="M327.519 407.453L327.823 410.383C326.104 410.629 324.875 412.467 325.085 414.483L322.588 414.841C322.21 411.209 324.424 407.895 327.519 407.453Z" fill="#002576"/>
<path d="M262.084 275.523L262.389 278.034C260.67 278.244 259.441 279.821 259.651 281.551L257.154 281.856C256.777 278.743 258.991 275.901 262.084 275.523Z" fill="#002576"/>
<path d="M470.001 256.527L470.303 259.038C468.584 259.249 467.356 260.825 467.566 262.554L465.068 262.86C464.691 259.747 466.906 256.906 470.001 256.527Z" fill="#120667"/>
<path d="M387.616 289.246L387.982 292.176C385.919 292.42 384.445 294.26 384.695 296.278L381.7 296.634C381.248 293.001 383.903 289.688 387.616 289.246Z" fill="#120667"/>
<path d="M435.172 179.48L435.476 182.409C433.757 182.654 432.529 184.495 432.739 186.511L430.24 186.868C429.865 183.236 432.078 179.921 435.172 179.48Z" fill="#002576"/>
<path d="M535.375 263.914L535.74 266.425C533.678 266.635 532.203 268.213 532.454 269.941L529.457 270.247C529.005 267.133 531.661 264.293 535.375 263.914Z" fill="#002576"/>
<path d="M551.207 237.527L551.572 240.039C549.509 240.249 548.035 241.827 548.285 243.555L545.289 243.86C544.837 240.747 547.493 237.906 551.207 237.527Z" fill="#002576"/>
<path d="M308.076 282.911L307.771 279.982C309.491 279.737 310.719 277.897 310.51 275.88L313.007 275.523C313.383 279.156 311.17 282.471 308.076 282.911Z" fill="#002576"/>
<path d="M305.357 253.359L305.661 256.29C303.943 256.534 302.714 258.375 302.922 260.392L300.426 260.747C300.049 257.115 302.264 253.802 305.357 253.359Z" fill="#33ADF8"/>
<path d="M277.469 268.134L277.165 265.205C278.884 264.959 280.112 263.119 279.904 261.103L282.4 260.746C282.777 264.378 280.564 267.692 277.469 268.134Z" fill="#002576"/>
<path d="M302.858 297.688L302.493 295.177C304.555 294.966 306.03 293.39 305.778 291.662L308.775 291.355C309.227 294.469 306.572 297.309 302.858 297.688Z" fill="#120667"/>
<path d="M436.167 254.414L436.531 256.926C434.469 257.136 432.995 258.713 433.246 260.442L430.249 260.747C429.797 257.633 432.453 254.793 436.167 254.414Z" fill="#120667"/>
<path d="M413.27 277.633L410.774 277.988C410.983 280.005 409.753 281.844 408.035 282.09L408.34 285.021C411.435 284.578 413.648 281.264 413.27 277.633Z" fill="url(#paint30_linear_10952_4665)"/>
<path d="M462.611 236.473L462.916 239.403C461.196 239.648 459.969 241.488 460.177 243.505L457.68 243.861C457.304 240.229 459.516 236.915 462.611 236.473Z" fill="#002576"/>
<path d="M452.32 287.129L449.824 287.485C450.032 289.501 448.803 291.342 447.085 291.587L447.39 294.517C450.486 294.074 452.697 290.761 452.32 287.129Z" fill="url(#paint31_linear_10952_4665)"/>
<path d="M470.253 306.129L467.257 306.434C467.509 308.161 466.032 309.741 463.971 309.951L464.335 312.461C468.051 312.084 470.707 309.241 470.253 306.129Z" fill="url(#paint32_linear_10952_4665)"/>
<path d="M300.334 401.117L297.336 401.423C297.588 403.152 296.114 404.728 294.051 404.939L294.416 407.45C298.131 407.07 300.786 404.23 300.334 401.117Z" fill="url(#paint33_linear_10952_4665)"/>
<path d="M388.989 318.793L385.994 319.097C386.246 320.828 384.77 322.403 382.707 322.615L383.071 325.125C386.788 324.746 389.441 321.906 388.989 318.793Z" fill="url(#paint34_linear_10952_4665)"/>
<path d="M557.213 293.466L556.847 290.536C558.91 290.291 560.384 288.451 560.134 286.434L563.13 286.078C563.581 289.711 560.926 293.023 557.213 293.466Z" fill="#002576"/>
<path d="M242.295 233.305L239.797 233.611C240.007 235.339 238.777 236.917 237.06 237.127L237.364 239.637C240.457 239.258 242.672 236.419 242.295 233.305Z" fill="url(#paint35_linear_10952_4665)"/>
<path d="M386.927 199.581L387.232 202.579C388.96 202.327 390.538 203.801 390.748 205.864L393.26 205.499C392.881 201.783 390.038 199.129 386.927 199.581Z" fill="#33ADF8"/>
<path d="M467.138 199.489L466.781 196.992C464.764 197.201 462.925 195.973 462.679 194.254L459.75 194.558C460.192 197.654 463.508 199.866 467.138 199.489Z" fill="#002576"/>
<path d="M488.549 241.747L488.245 238.818C489.964 238.572 491.191 236.733 490.983 234.716L493.48 234.359C493.857 237.991 491.644 241.305 488.549 241.747Z" fill="#120667"/>
<path d="M333.406 234.36L333.102 231.849C334.821 231.638 336.05 230.062 335.84 228.333L338.337 228.027C338.715 231.14 336.5 233.981 333.406 234.36Z" fill="#120667"/>
<path d="M380.288 231.823C378.56 232.032 376.983 230.806 376.772 229.086L374.262 229.39C374.64 232.485 377.481 234.698 380.594 234.321L380.288 231.823Z" fill="url(#paint36_linear_10952_4665)"/>
<path d="M491.411 215.409L491.768 217.906C493.785 217.697 495.624 218.924 495.869 220.644L498.799 220.34C498.356 217.244 495.042 215.033 491.411 215.409Z" fill="#002576"/>
<path d="M276.108 355.692L275.802 353.196C274.073 353.405 272.495 352.177 272.286 350.457L269.775 350.762C270.153 353.858 272.995 356.07 276.108 355.692Z" fill="#120667"/>
<path d="M451.306 220.682L451.613 223.18C453.341 222.97 454.919 224.199 455.129 225.918L457.639 225.615C457.26 222.517 454.419 220.306 451.306 220.682Z" fill="#120667"/>
<path d="M347.876 202.745L348.233 205.243C350.251 205.033 352.09 206.261 352.335 207.98L355.264 207.677C354.823 204.58 351.507 202.368 347.876 202.745Z" fill="#120667"/>
<path d="M330.99 178.467L331.348 180.965C333.363 180.756 335.204 181.983 335.449 183.703L338.378 183.399C337.937 180.303 334.62 178.092 330.99 178.467Z" fill="#120667"/>
<path d="M272.942 192.195L273.247 195.192C274.976 194.94 276.553 196.414 276.763 198.477L279.274 198.113C278.896 194.396 276.053 191.742 272.942 192.195Z" fill="#002576"/>
<path d="M403.813 256.569L404.169 259.067C406.186 258.857 408.027 260.085 408.271 261.804L411.201 261.5C410.759 258.404 407.443 256.192 403.813 256.569Z" fill="#002576"/>
<path d="M539.962 196.325L539.605 193.827C537.588 194.037 535.749 192.809 535.504 191.09L532.574 191.393C533.016 194.49 536.331 196.702 539.962 196.325Z" fill="#120667"/>
<path d="M577.597 214.431C575.58 214.683 573.741 213.208 573.495 211.145L570.567 211.509C571.009 215.223 574.324 217.879 577.955 217.427L577.597 214.431Z" fill="url(#paint37_linear_10952_4665)"/>
<path d="M429.892 209.153C428.163 209.404 426.587 207.93 426.376 205.867L423.866 206.232C424.245 209.948 427.087 212.602 430.199 212.149L429.892 209.153Z" fill="url(#paint38_linear_10952_4665)"/>
<path d="M399.235 224.985C397.218 225.238 395.378 223.76 395.133 221.699L392.203 222.063C392.645 225.779 395.96 228.434 399.591 227.981L399.235 224.985Z" fill="url(#paint39_linear_10952_4665)"/>
<path d="M506.937 191.721C505.21 191.93 503.63 190.701 503.419 188.98L500.91 189.285C501.289 192.381 504.13 194.592 507.243 194.216L506.937 191.721Z" fill="url(#paint40_linear_10952_4665)"/>
<path d="M283.192 230.26C281.461 230.511 279.887 229.035 279.676 226.973L277.165 227.336C277.544 231.052 280.384 233.707 283.497 233.255L283.192 230.26Z" fill="url(#paint41_linear_10952_4665)"/>
<path d="M539.918 221.699L537.42 222.056C537.63 224.073 536.404 225.915 534.683 226.16L534.987 229.087C538.083 228.646 540.295 225.333 539.918 221.699Z" fill="url(#paint42_linear_10952_4665)"/>
<path d="M571.975 531.985L575.845 519.32L563.18 529.193L571.975 531.985Z" fill="#002576"/>
<path d="M565.952 538.176L564.561 537.869L562.635 538.19L559.644 536.211L558.959 536.667L560.632 538.704L559.845 542.543L562.865 542.105L563.41 541.669L564.67 541.545L565.856 540.451L566.347 538.94L565.952 538.176Z" fill="#150773"/>
<path d="M570.569 564.541C570.569 564.541 565.478 564.36 563.869 564.675C562.263 564.991 561.537 562.755 562.687 562.057C563.838 561.361 568.787 561.568 568.787 561.568L570.569 564.541Z" fill="#FFC398"/>
<path d="M563.18 555.75C563.18 555.75 567.481 564.167 570.894 565.763L572.625 562.76L572.679 557.206L570.622 553.098L563.18 555.75Z" fill="#EBA87C"/>
<path d="M575.972 544.652C576.179 544.763 583.672 548.235 583.873 548.39C584.077 548.544 588.427 551.417 588.802 554.49C589.176 557.565 590 558.884 590.59 559.518C591.18 560.154 594.443 561.646 591.555 563.228C588.668 564.808 587.579 561.438 587.579 561.438C587.579 561.438 584.559 562.215 581.746 559.804C581.746 559.804 580.696 560.614 580.022 560.763L580.403 560.055L578.916 561.259L579.183 560.409L577.967 561.115L578.199 560.171L575.845 563.327C575.845 563.327 577.158 561.709 576.472 559.086L575.972 544.652Z" fill="#EBA87C"/>
<path d="M569.513 553.482C569.513 553.482 571.223 555.662 571.682 556.663C571.987 557.326 572.636 559.068 571.982 559.873C571.327 560.68 571.776 562.217 571.947 562.672C572.115 563.129 576.611 563.652 576.611 563.652C576.611 563.652 579.261 560.959 577.85 559.013C577.85 559.013 579.13 553.375 579.002 551.472C578.93 550.391 577.784 547.314 577.784 547.314L575.523 546.766L569.513 553.482Z" fill="#FFC398"/>
<path d="M564.221 528.163C564.191 527.883 561.079 523.308 559.127 523.552C557.172 523.796 558.007 527.916 558.575 529.006C559.145 530.095 559.555 532.648 559.466 533.042C559.466 533.042 564.521 530.882 564.221 528.163Z" fill="#EBA87C"/>
<path d="M563.2 529.583C565.22 527.724 569.824 529.847 569.824 529.847C569.824 529.847 572.537 533.954 573.355 535.372C574.307 537.024 576.643 539.114 576.643 539.114L575.429 539.824L576.688 540.17L575.426 540.724L576.959 542.089L575.509 541.949C575.509 541.949 576.07 542.72 577.331 543.623C578.012 544.112 580.067 545.234 580.067 545.234L578.086 545.559L579.186 547.314L575.283 548.873L568.978 538.188L558.959 533.829L560.351 533.425C562.57 532.124 561.177 531.443 563.2 529.583Z" fill="#FFC398"/>
<path d="M559.282 537.266L558.55 538.606L559.215 538.382L558.26 539.347C558.26 539.347 559.207 539.194 559.151 539.208C559.095 539.221 557.902 541.08 557.902 541.08L559.186 540.96L558.798 543.822L557.943 546.764L561.068 545.585L560.509 541.723L559.944 537.921L559.282 537.266Z" fill="#FFC398"/>
<path d="M576.534 525.01C576.015 524.49 575.39 524.163 573.736 525.936C572.081 527.713 570.409 528.807 569.255 529.321C567.482 530.108 568.806 533.492 571.856 535.763C575.329 538.35 580.48 528.953 576.534 525.01Z" fill="#EBA87C"/>
<path d="M565.295 532.93C565.264 533.509 565.473 534.027 565.762 534.089C566.052 534.151 566.313 533.732 566.344 533.152C566.374 532.573 566.164 532.053 565.875 531.99C565.585 531.928 565.326 532.349 565.295 532.93Z" fill="#0C022F"/>
<path d="M560.02 531.872C559.957 532.45 560.377 532.972 560.956 533.034C561.534 533.097 562.056 532.676 562.118 532.098C562.181 531.516 561.76 530.996 561.182 530.936C560.6 530.873 560.082 531.293 560.02 531.872Z" fill="#0C022F"/>
<path d="M557.915 534.955L558.802 533.362C558.802 533.362 561.609 532.866 562.157 532.467C562.708 532.069 562.949 531.176 563.116 530.165C563.285 529.156 564.098 528.873 564.613 528.82C564.613 528.82 563.776 529.319 563.657 529.853C563.539 530.386 563.749 532.249 562.716 532.813C561.682 533.378 561.981 535.205 562.953 535.247C563.923 535.288 564.014 535.232 564.34 534.523C564.34 534.523 564.767 535.731 566.715 535.749C566.715 535.749 567.348 535.773 567.417 534.907C567.484 534.039 568.559 533.697 569.083 534.784C569.606 535.869 570.207 537.446 571.059 537.606C571.059 537.606 570.997 537.993 570.226 537.864C570.226 537.864 570.663 538.351 571.352 538.448C571.352 538.448 571.048 538.939 569.746 538.818C569.746 538.818 569.48 540.167 570.402 540.662C570.672 540.807 570.902 541.082 571.108 541.397L573.933 543.416L572.89 544.09L574.788 548.674L574.113 548.644L574.525 550.003L573.541 550.069C573.541 550.069 573.708 551.751 573.695 551.881C573.681 552.01 572.314 551.291 572.301 551.42C572.288 551.551 572.787 554.1 572.787 554.1L571.306 553.675L571.182 555.28L568.932 553.676L567.677 555.551L566.598 554.512L566.424 556.201L565.295 555.64C565.295 555.64 565.022 557.053 565.004 557.227C564.987 557.399 562.794 556.457 562.794 556.457L564.819 559.773C564.927 561.185 564.496 562.554 563.979 563.46C563.461 564.365 563.449 565.713 562.634 566.293C561.639 567.004 559.46 567.1 558.53 565.875C557.185 564.107 559.454 563.547 560.029 561.821C560.342 560.881 560.18 556.739 559.166 555.489C558.15 554.239 558.73 552.727 558.756 552.467C558.783 552.208 558.151 552.574 558.151 552.574L558.667 549.167L557.919 549.092L560.166 543.896L558.825 543.809L559.739 542.968L562.901 541.961L563.066 541.518L564.645 541.428L566.173 539.76L566.188 538.798L565.402 538.187L562.549 538.432L559.228 536.827L558.944 537.132L559.339 537.9C559.339 537.9 557.741 537.014 557.915 534.955Z" fill="#DFE9F8"/>
<path d="M571.561 562.594C571.688 564.131 569.398 564.284 569.517 566.25C569.6 567.594 573.321 568.602 575.236 567.182C575.236 567.182 576.278 566.571 576.102 565.069C576.08 564.879 576.267 564.215 576.859 563.774C577.449 563.335 571.561 562.594 571.561 562.594Z" fill="#DFE9F8"/>
<path d="M590.454 558.518C590.454 558.518 593.577 560.347 592.508 562.115C591.343 564.039 589.156 564.12 588.385 562.539C587.663 561.063 587.419 560.409 587.458 560C587.496 559.59 588.076 558.865 588.192 558.801C589.562 558.044 590.454 558.518 590.454 558.518Z" fill="#DFE9F8"/>
<path d="M557.906 533.921C557.845 534.496 558.504 535.04 559.378 535.136C560.249 535.23 561.005 534.843 561.064 534.267C561.124 533.692 560.465 533.15 559.592 533.054C558.72 532.958 557.964 533.345 557.906 533.921Z" fill="#0C022F"/>
<path d="M559.729 538.206C559.729 538.206 558.682 537.823 559.03 537.355C559.379 536.887 561.181 538.4 562.387 538.695C563.594 538.989 564.653 538.491 565.324 538.604C565.993 538.716 567.32 539.297 565.174 541.361C565.174 541.361 564.608 541.847 563.716 541.794C562.825 541.744 563.146 541.945 562.909 542.151C562.672 542.357 561.03 542.543 561.03 542.543" stroke="#0C022F" stroke-width="0.5"/>
<path d="M558.717 544.562C558.717 544.562 557.635 543.919 557.964 542.631C558.503 540.519 559.872 538.224 560.924 537.266C560.924 537.266 562.252 538.193 563.179 538.22C563.179 538.22 561.902 539.247 561.671 540.764C561.44 542.281 561.513 545.206 558.717 544.562Z" fill="#D36A83"/>
<path d="M642.863 427.504C644.32 427.504 645.501 426.087 645.501 424.338C645.501 422.589 644.32 421.172 642.863 421.172C641.405 421.172 640.224 422.589 640.224 424.338C640.224 426.087 641.405 427.504 642.863 427.504Z" fill="#0C022F"/>
<path d="M641.28 424.335C642.446 424.335 643.391 423.39 643.391 422.224C643.391 421.058 642.446 420.113 641.28 420.113C640.114 420.113 639.169 421.058 639.169 422.224C639.169 423.39 640.114 424.335 641.28 424.335Z" fill="#002576"/>
<path d="M641.809 440.165C643.849 440.165 645.503 438.511 645.503 436.471C645.503 434.431 643.849 432.777 641.809 432.777C639.769 432.777 638.115 434.431 638.115 436.471C638.115 438.511 639.769 440.165 641.809 440.165Z" fill="#0C022F"/>
<path d="M639.697 437.001C641.737 437.001 643.391 435.347 643.391 433.307C643.391 431.267 641.737 429.613 639.697 429.613C637.657 429.613 636.003 431.267 636.003 433.307C636.003 435.347 637.657 437.001 639.697 437.001Z" fill="#0C022F"/>
<path d="M644.973 433.833C647.013 433.833 648.667 432.179 648.667 430.139C648.667 428.099 647.013 426.445 644.973 426.445C642.933 426.445 641.279 428.099 641.279 430.139C641.279 432.179 642.933 433.833 644.973 433.833Z" fill="#0C022F"/>
<path d="M644.974 437C646.432 437 647.613 435.818 647.613 434.361C647.613 432.904 646.432 431.723 644.974 431.723C643.517 431.723 642.336 432.904 642.336 434.361C642.336 435.818 643.517 437 644.974 437Z" fill="#0C022F"/>
<path d="M643.39 430.669C645.139 430.669 646.557 429.015 646.557 426.975C646.557 424.935 645.139 423.281 643.39 423.281C641.642 423.281 640.224 424.935 640.224 426.975C640.224 429.015 641.642 430.669 643.39 430.669Z" fill="#0C022F"/>
<path fill-rule="evenodd" clip-rule="evenodd" d="M579.938 445.024C579.435 444.906 578.595 443.81 579.254 443.783C579.079 443.312 578.938 442.904 579.221 442.708C579.335 442.629 579.694 442.519 579.926 442.465C580.352 442.369 584.166 442.047 584.333 442.563C584.411 442.812 587.403 451.245 587.403 451.245H587.395C587.436 451.35 587.463 451.455 587.453 451.564C587.406 452.183 587.065 452.91 586.03 452.824C585.281 452.763 584.659 452.447 584.388 452.045H584.375C584.375 452.045 582.102 449.899 581.034 447.077C580.897 446.712 579.213 445.896 579.122 445.512C579.357 445.233 579.581 445.164 579.938 445.024Z" fill="#9E684D"/>
<path fill-rule="evenodd" clip-rule="evenodd" d="M579.994 441.968C579.994 441.968 580.366 441.08 579.409 441.243L577.955 442.057C577.955 442.057 578.615 442.609 579.994 441.968Z" fill="#B7835F"/>
<path fill-rule="evenodd" clip-rule="evenodd" d="M637.585 431.726C637.585 431.726 643.868 431.884 641.963 426.713C641.963 426.713 643.612 422.634 639.961 420.152C639.961 420.152 641.573 416.618 637.362 416.356C637.362 416.356 635.243 413.219 632.209 415.97C632.209 415.97 627.809 414.27 626.146 418.949C626.146 418.949 624.523 418.91 624.395 420.65C624.335 421.507 625.27 422.437 626.101 423.215C626.981 424.039 627.023 425.332 627.146 427.424C627.311 430.211 637.585 431.726 637.585 431.726Z" fill="#0C022F"/>
<path d="M628.616 518.266L631.537 557.102C631.537 557.102 632.196 567.079 636.06 572.091C636.06 572.091 637.521 562.181 636.08 558.089C635.615 556.766 635.623 555.378 635.758 553.989C636.579 545.582 638.948 521.325 639.17 518.406C639.178 518.288 628.616 518.266 628.616 518.266Z" fill="#B7835F"/>
<path d="M579.012 442.658V439.109H585.344V442.658C585.344 445.553 584.092 448.5 582.491 448.847V455.991C582.491 456.301 582.708 456.575 583.013 456.623C584.354 456.835 585.344 457.538 585.344 458.384C585.344 459.398 583.925 460.218 582.177 460.218C580.428 460.218 579.012 459.398 579.012 458.384C579.012 457.538 580 456.835 581.341 456.623C581.645 456.575 581.864 456.301 581.864 455.991V448.846C580.264 448.49 579.012 445.464 579.012 442.658Z" fill="#DFE9F8" fill-opacity="0.8"/>
<path d="M579.012 439.112C579.012 440.279 580.428 441.222 582.177 441.222C583.925 441.222 585.344 440.279 585.344 439.112C585.344 437.946 583.925 437 582.177 437C580.428 437 579.012 437.946 579.012 439.112Z" fill="#DFE9F8"/>
<path d="M580.154 444.927L580.066 443.332H585.343L585.253 444.927C585.253 446.673 584.247 448.341 582.956 448.609H582.452C581.161 448.332 580.154 446.649 580.154 444.927Z" fill="#002576"/>
<path d="M580.066 443.333C580.066 443.916 581.247 444.388 582.705 444.388C584.163 444.388 585.343 443.916 585.343 443.333C585.343 442.75 584.163 442.277 582.705 442.277C581.247 442.277 580.066 442.75 580.066 443.333Z" fill="#120667"/>
<path fill-rule="evenodd" clip-rule="evenodd" d="M585.344 439.111C585.344 437.946 583.926 437 582.177 437C580.43 437 579.012 437.946 579.012 439.111C579.012 440.277 580.43 441.222 582.177 441.222C583.926 441.222 585.344 440.277 585.344 439.111ZM579.519 439.111C579.519 438.389 580.61 437.585 582.177 437.585C583.746 437.585 584.839 438.389 584.839 439.111C584.839 439.832 583.746 440.638 582.177 440.638C580.61 440.638 579.519 439.832 579.519 439.111Z" fill="#BDD2EF"/>
<path fill-rule="evenodd" clip-rule="evenodd" d="M579.51 442.277C579.51 442.277 578.5 442.554 579.356 443.454L581.123 444.388C581.123 444.388 581.079 443.265 579.51 442.277Z" fill="#B7835F"/>
<path fill-rule="evenodd" clip-rule="evenodd" d="M579.719 445.424C579.719 445.424 580.43 445.566 581.123 445.076C581.123 445.076 580.581 444.48 580.13 444.013C579.68 443.542 579.277 443.332 579.277 443.332C579.277 443.332 578.448 444.376 579.719 445.424Z" fill="#B7835F"/>
<path fill-rule="evenodd" clip-rule="evenodd" d="M579.407 446.446C579.407 446.446 580.51 446.67 581.123 446.176C581.123 446.176 579.753 445.559 579.511 445.455C579.27 445.35 578.58 445.876 579.407 446.446Z" fill="#B7835F"/>
<path d="M588.448 450.923C588.137 450.574 587.882 450.287 587.836 450.214L587.853 450.213C587.853 450.213 588.037 447.277 587.556 446.4C587.257 445.854 585.075 444.105 585.075 444.105L583.344 443.332C583.344 443.332 583.406 444.459 584.925 445.421L585.383 446.179C585.383 446.179 583.872 447.066 583.43 448.687C583.155 449.186 583.167 449.902 583.469 450.667L584.636 452.166L585.548 452.801C585.679 453.066 588.997 451.483 588.448 450.923Z" fill="#B7835F"/>
<path d="M617.154 509.824L624.892 553.878C624.892 553.878 622.965 560.61 613.839 564.705C613.839 564.705 618.725 564.529 620.239 563.997C622.426 563.23 628.011 559.056 628.011 559.056L629.098 558.029C629.098 558.029 630.646 554.484 628.649 553.153C628.649 553.153 627.376 518.325 627.168 514.804C627.162 514.686 617.154 509.824 617.154 509.824Z" fill="#B7835F"/>
<path fill-rule="evenodd" clip-rule="evenodd" d="M617.115 465.496C617.115 465.496 610.694 482.757 615.83 514.742C620.969 546.728 623.015 548.4 623.015 548.4C623.015 548.4 625.891 550.428 628.881 547.762L628.62 511.348L630.641 550.66C630.641 550.66 633.648 553.459 636.853 551.083C636.853 551.083 641.902 513.921 643.277 503.996C645.343 489.071 644.666 479.012 641.277 472.176C639.382 468.356 617.115 465.496 617.115 465.496Z" fill="#120667"/>
<path fill-rule="evenodd" clip-rule="evenodd" d="M627.681 491.923C628.038 493.422 628.495 502.521 628.537 508.17L628.615 517.209C628.615 517.209 628.148 513.303 627.929 510.35C627.535 505.042 627.203 498.24 626.598 493.912C626.204 491.08 627.148 489.708 627.681 491.923Z" fill="#0C022F"/>
<path d="M631.782 560.553C631.782 560.553 632.963 572.589 636.575 575.257C636.575 575.257 637.905 567.71 636.157 559.426C636.157 559.426 636.154 569.496 635.433 570.858L631.782 560.553Z" fill="#33ADF8"/>
<path d="M617.43 562.613C617.43 562.613 622.705 562.313 625.386 558.874C628.065 555.434 626.437 555.912 629.006 553.098C629.006 553.098 630.982 553.904 630.697 557.568L629.137 562.827C628.92 563.001 628.211 563.132 628.007 562.949L628.356 558.9C628.356 558.9 622.552 563.555 620.423 563.941C618.294 564.324 613.205 565.112 613.904 564.453L617.43 562.613Z" fill="#33ADF8"/>
<path d="M642.335 468.686L641.729 468.479C640.549 465.438 637.72 462.238 633.758 459.925C630.581 458.076 627.173 457.055 624.161 457.055H624.139C621.06 457.063 618.751 458.133 617.645 460.072C617.611 460.128 617.605 460.198 617.575 460.253L617.005 460.06L617.022 462.529C616.961 463.985 617.348 465.583 618.304 467.26C619.805 469.903 622.392 472.379 625.578 474.237C628.754 476.086 632.162 477.107 635.169 477.107H635.193C638.275 477.1 640.58 476.029 641.69 474.089C642.113 473.347 642.269 472.503 642.301 471.625L642.335 471.638V468.686Z" fill="#33ADF8"/>
<path d="M623.337 439.109C623.337 439.109 610.32 497.402 584.287 453.093L588.489 449.138C588.489 449.138 603.812 479.199 610.629 440.893L623.337 439.109Z" fill="#0C022F"/>
<path d="M612.785 463.399L612.141 453.891L611.729 454.81L612.131 464.445L612.785 463.399Z" fill="#120F2D"/>
<path d="M619.565 435.945C616.973 435.947 615.414 436.938 614.743 438.965C614.017 441.151 613.721 443.466 613.881 445.786L615.043 462.471C615.4 464.738 616.548 463.566 618.23 465.068C619.502 468.004 622.304 471.061 626.193 473.31C630.543 475.826 635.024 476.087 638.402 475.924C639.338 475.878 640.457 476.195 641.547 476.513C643.19 476.991 644.772 477.47 645.581 476.705C645.581 476.705 647.475 475.39 647.266 470.525C647.123 467.173 649.767 466.029 651.287 460.707C651.969 458.323 651.988 455.212 651.481 453.96C650.681 452 649.673 451.397 649.673 451.397L626.249 437.855C624.734 436.981 621.865 435.945 619.573 435.945H619.565Z" fill="#002576"/>
<path d="M646.977 448.758C646.977 448.758 631.54 439.966 627.087 437.26C622.632 434.557 619.634 434.905 619.634 434.905C613.487 434.905 609.168 440.914 611.166 446.687L613.938 470.128C613.938 470.128 615.417 474.229 616.913 469.899C618.257 465.996 616.395 455.842 617.145 449.093C617.733 443.819 620.634 441.046 621.914 440.2C624.415 438.541 627.805 439.608 627.805 439.608C627.805 439.608 631.903 441.149 636.71 444.19C640.216 446.409 642.332 450.244 640.984 452.283C640.063 453.893 639.205 455.878 638.882 458.1C637.434 468.001 640.814 476.922 640.814 476.922C640.814 484.061 649.707 483.425 649.707 483.425L652.374 459.669C654.028 454.891 651.557 451.105 646.977 448.758Z" fill="#0C022F"/>
<path fill-rule="evenodd" clip-rule="evenodd" d="M644.58 483.095C644.58 483.095 644.881 473.47 644.486 468.264C644.148 463.733 646.006 465.588 646.25 468.011C646.493 470.431 647.612 483.425 647.612 483.425C647.612 483.425 646.078 483.537 644.58 483.095Z" fill="#120F2D"/>
<path d="M639.445 513.644C639.445 513.644 641.342 508.954 641.49 508.67C641.636 508.384 645.05 501.383 645.05 501.383L648.668 502.95C648.668 502.95 648.423 507.214 646.279 510.822L645.565 513.435C645.565 513.435 645.975 514.306 645.401 515.759L644.657 513.755L645.192 510.321L643.661 514.021C643.661 514.021 643.722 516.294 642.162 517.214L642.495 514.06L643.479 510.868L642.078 513.871C642.078 513.871 642.6 515.864 641.313 517.136L641.014 513.6L642.128 510.266L640.337 514.245C640.337 514.245 640.32 516.006 639.169 516.52L639.445 513.644Z" fill="#B7835F"/>
<path d="M629.492 433.836V440.352C628.873 440.282 628.28 440.276 627.739 440.346C626.626 440.485 624.534 440.694 624.534 440.694C624.035 445.649 624.874 450.381 626.755 454.944C628.473 452.572 632.453 450.204 639.168 447.836C639.168 447.836 638.034 445.786 636.506 444.065C636.232 443.757 635.61 442.754 635.599 442.313C635.519 439.464 635.599 433.836 635.599 433.836H629.492Z" fill="url(#paint43_linear_10952_4665)"/>
<path d="M628.763 437.054L628.616 431.723L634.949 434.105L634.904 436.3C633.663 437.953 629.447 438.881 628.763 437.054Z" fill="#7C4E2E"/>
<path d="M629.615 435.649C627.296 434.779 625.651 433.307 626.979 429.023L628.463 424.242C629.423 421.142 632.291 419.414 634.869 420.382C637.447 421.351 638.759 424.646 637.8 427.745L636.665 431.405C635.606 434.815 632.452 436.713 629.615 435.649Z" fill="#B7835F"/>
<path d="M638.897 432.764C638.324 433.777 637.035 434.135 636.022 433.561C635.006 432.989 634.65 431.699 635.222 430.685C635.796 429.67 637.083 429.313 638.097 429.888C639.113 430.461 639.47 431.748 638.897 432.764Z" fill="#B7835F"/>
<path fill-rule="evenodd" clip-rule="evenodd" d="M644.133 457.942C644.133 457.942 648.334 484.78 643.391 502.645C643.391 502.645 645.142 504.721 648.969 504.532C648.969 504.532 654.548 487.177 654.974 476.213C655.24 469.311 653.454 454.4 650.903 452.166C648.353 449.934 644.133 457.942 644.133 457.942Z" fill="#0C022F"/>
<path fill-rule="evenodd" clip-rule="evenodd" d="M627.586 426.446C627.586 426.446 629.976 423.17 636.002 424.957C636.002 424.957 635.086 420.039 631.582 420.114C628.078 420.188 627.401 425.604 627.586 426.446Z" fill="#0C022F"/>
<path fill-rule="evenodd" clip-rule="evenodd" d="M632.916 420.113C633.943 420.113 640.225 421.647 640.225 422.634C640.225 423.622 638.8 429.65 637.519 429.612C636.98 429.597 636.334 428.346 635.84 427.019C635.304 425.588 634.944 424.072 635.066 423.914C635.405 423.485 632.31 420.113 632.916 420.113Z" fill="#0C022F"/>
<path fill-rule="evenodd" clip-rule="evenodd" d="M638.115 430.199C638.115 430.199 637.012 430.862 636.867 431.724C636.867 431.724 636.246 431.121 636.839 430.028C636.839 430.028 634.233 427.087 635.141 424.336C635.141 424.336 636.19 428.902 638.115 430.199Z" fill="#14102E"/>
<path d="M511.09 490.801C511.09 490.801 511.351 496.901 514.72 500.635C514.72 500.635 515.771 501.87 515.422 502.851C515.073 503.83 512.888 505.574 512.888 505.574C512.888 505.574 508.726 508.342 507.094 510.27C507.094 510.27 505.749 511.543 506.337 514.397C506.924 517.249 507.866 517.907 507.866 517.907C507.866 517.907 508.845 518.716 509.901 517.907C509.901 517.907 509.31 514.893 511.309 513.044C513.31 511.195 515.834 509.466 517.148 508.316C518.828 506.844 524.749 502.635 525.104 499.473L525.964 501.06C526.414 501.886 527.429 502.338 528.306 501.973C528.734 501.796 529.158 501.436 529.478 500.758C529.478 500.758 531.568 497.252 529.658 488.715L511.09 490.801Z" fill="#120667"/>
<path d="M528.215 631.635C527.755 632.459 526.262 632.459 524.879 631.635C523.498 630.812 522.75 629.475 523.21 628.651C523.673 627.825 525.167 627.825 526.547 628.649C527.931 629.475 528.677 630.812 528.215 631.635Z" fill="#0C022F"/>
<path d="M535.568 635.471L538.534 636.474C539.514 635.962 540.068 634.969 539.943 633.943L539.862 633.262C539.711 632.009 538.82 630.894 537.511 630.498C535.426 629.864 533.439 630.926 529.66 630.424C528.592 630.281 525.318 628.199 524.378 629.527C523.773 630.383 524.393 631.682 524.961 631.986C524.961 631.986 526.905 633.293 528.368 633.965C529.593 634.529 530.433 634.778 531.789 634.951C532.796 635.08 534.107 635.255 535.568 635.471Z" fill="#0C022F"/>
<path d="M538.796 639.021C538.427 639.846 537.232 639.846 536.127 639.021C535.021 638.197 534.424 636.862 534.792 636.038C535.161 635.212 536.357 635.212 537.461 636.036C538.567 636.862 539.165 638.197 538.796 639.021Z" fill="#0C022F"/>
<path d="M538.796 636.011C538.427 636.629 537.232 636.629 536.127 636.011C535.021 635.394 534.424 634.392 534.792 633.773C535.161 633.154 536.357 633.154 537.461 633.772C538.567 634.392 539.165 635.394 538.796 636.011Z" fill="#0C022F"/>
<path d="M538.905 638.585V635.98L534.686 634.363L534.683 636.91L538.905 638.585Z" fill="#0C022F"/>
<path d="M533.628 630.524C533.628 630.524 530.92 630.692 529.893 630.576C529.618 630.547 529.324 630.565 528.456 630.213C527.584 629.862 527.106 630.882 527.367 631.176C527.652 631.5 528.829 632.445 533.628 632.216V630.524Z" fill="#FFC398"/>
<path d="M529.353 630.888C529.167 631.3 528.571 631.3 528.018 630.888C527.464 630.476 527.166 629.809 527.35 629.395C527.535 628.983 528.133 628.983 528.684 629.395C529.237 629.807 529.536 630.476 529.353 630.888Z" fill="#FFC398"/>
<path d="M511.329 641.132C510.869 641.955 509.375 641.955 507.993 641.132C506.611 640.308 505.864 638.97 506.324 638.147C506.785 637.321 508.279 637.321 509.662 638.145C511.044 638.97 511.79 640.308 511.329 641.132Z" fill="#0C022F"/>
<path d="M517.627 644.822L520.595 645.971C521.573 645.386 522.127 644.249 522.002 643.078L521.922 642.299C521.772 640.868 520.879 639.594 519.571 639.139C517.485 638.416 515.5 639.63 511.718 639.055C510.65 638.894 507.375 636.513 506.437 638.031C505.832 639.009 506.453 640.494 507.02 640.842C507.02 640.842 508.963 642.334 510.428 643.103C511.652 643.747 512.491 644.031 513.849 644.229C514.854 644.376 516.167 644.577 517.627 644.822Z" fill="#0C022F"/>
<path d="M521.884 647.617C521.423 648.235 519.929 648.235 518.546 647.617C517.164 646.999 516.418 645.997 516.878 645.379C517.339 644.759 518.834 644.759 520.215 645.378C521.596 645.997 522.343 646.999 521.884 647.617Z" fill="#0C022F"/>
<path d="M521.884 645.508C521.423 646.125 519.929 646.125 518.546 645.508C517.164 644.889 516.418 643.887 516.878 643.269C517.339 642.65 518.834 642.65 520.215 643.268C521.596 643.887 522.343 644.889 521.884 645.508Z" fill="#0C022F"/>
<path d="M522.019 648.081V645.478L516.746 643.859L516.742 646.407L522.019 648.081Z" fill="#0C022F"/>
<path d="M515.687 639.157C515.687 639.157 512.979 639.407 511.951 639.235C511.677 639.192 511.383 639.22 510.514 638.691C509.644 638.165 509.166 639.693 509.425 640.134C509.712 640.62 510.887 642.039 515.687 641.695V639.157Z" fill="#FFC398"/>
<path d="M507.563 565.217C509.192 578.78 513.423 615.775 514.212 640.695L523.485 636.914C523.485 636.914 524.241 570.264 524.27 568.916C524.27 568.916 531.454 603.918 530.97 632.232L539.961 628.703C539.961 628.703 538.736 571.552 535.256 551.951C534.771 549.217 533.876 546.579 532.627 544.106L529.711 538.32L508.437 547.223L507.554 554.665C507.136 558.169 507.14 561.712 507.563 565.217Z" fill="#33ADF8"/>
<path d="M508.869 549.569C510.805 552.867 517.08 552.868 522.884 549.57C528.689 546.274 531.825 540.929 529.89 537.629C527.955 534.333 521.68 534.331 515.875 537.628C510.07 540.926 506.935 546.271 508.869 549.569Z" fill="#33ADF8"/>
<path d="M513.821 640.669C514.65 642.112 517.339 642.112 519.827 640.67C522.315 639.228 523.659 636.888 522.829 635.445C521.999 634.003 519.311 634.003 516.822 635.445C514.335 636.887 512.991 639.226 513.821 640.669Z" fill="#33ADF8"/>
<path d="M530.707 632.381C531.536 633.618 534.226 633.618 536.713 632.383C539.201 631.145 540.544 629.14 539.716 627.903C538.885 626.668 536.197 626.668 533.709 627.903C531.221 629.138 529.877 631.144 530.707 632.381Z" fill="#33ADF8"/>
<path d="M487.053 538.817L484.895 540.275C485.961 540.809 487.251 539.763 487.251 539.763L490.141 538.958C494.181 538.931 498.401 536.887 498.401 536.887L498.403 536.871C498.938 536.657 499.472 536 499.748 535.12C500.133 533.905 499.402 533.297 498.712 533.071C498.592 533.03 498.463 533.033 498.332 533.054L498.333 533.043C498.333 533.043 489.468 533.639 489.164 533.661C488.858 533.682 484.759 534.142 484.759 534.142L481.913 535.144C482.96 535.877 484.784 535.233 484.784 535.233L488.26 535.053L485.013 535.832L482.114 537.609C483.833 538.062 485.396 536.899 485.396 536.899L488.544 536.544L485.477 537.361L482.467 538.423C484.061 539.3 485.661 538.399 485.661 538.399L489.929 537.747L487.053 538.817Z" fill="#EBA87C"/>
<path d="M512.502 529.969L512.506 529.955L498.313 532.515V532.52C498.034 532.553 497.747 532.612 497.455 532.688L497.457 532.672C497.457 532.672 494.108 531.669 492.932 531.681C492.193 531.688 489.261 531.526 489.261 531.526L487.19 532.063C487.19 532.063 487.882 532.89 489.59 532.456L492.123 533.858C492.123 533.858 492.886 536.697 496.941 537.262V537.263L510.818 536.095L510.82 536.083C511.503 536.043 512.228 535.913 512.967 535.653C515.517 534.76 517.162 532.84 516.648 531.365C516.228 530.166 514.501 529.646 512.502 529.969Z" fill="#FFC398"/>
<path d="M509.941 511.197C509.995 511.165 526.376 501.783 526.376 501.783L526.378 501.787C526.911 501.42 527.708 501.301 528.609 501.438C529.353 501.549 530.165 501.828 530.954 502.281C531.774 502.752 532.446 503.338 532.917 503.949C533.442 504.629 533.668 505.493 533.623 506.351L532.515 528.146L532.474 528.162C532.755 531.29 529.898 535.358 525.229 538.035C519.655 541.233 513.63 541.232 511.771 538.034C511.399 537.393 511.23 536.669 511.23 535.901L511.223 535.904L507.285 515.084C507.013 513.895 508.094 512.256 509.941 511.197Z" fill="#DFE9F8"/>
<path d="M490.763 543.327L502.434 548.87L502.524 548.857C505.023 548.484 506.013 545.518 504.211 543.805L493.248 539.343C491.413 536.591 488.527 533.192 488.292 533.042C488.237 533.007 487.727 533.282 487.927 534.024C487.946 534.093 488.44 534.886 488.383 534.944C487.189 536.16 484.024 538.125 484.024 538.125C486.701 541.368 490.752 543.339 490.752 543.339L490.763 543.327Z" fill="#FFC398"/>
<path d="M488.246 535.058C488.246 535.058 484.905 538.239 483.998 538.317L482.486 536.234C482.486 536.234 481.371 536.398 480.858 535.451L482.834 535.122L483.894 535.903L482.915 534.364L482.14 534.666C482.14 534.666 481.901 533.968 482.394 533.659C482.394 533.659 482.907 533.473 483.017 533.473C483.017 533.473 482.943 533.144 483.273 533.081C483.602 533.019 483.872 533.022 484.068 533.098C484.456 533.252 485.425 534.144 485.425 534.144L484.755 532.794C484.755 532.794 484.589 532.259 485.103 532.032C485.614 531.805 485.98 532.463 485.98 532.463L488.246 535.058Z" fill="#FFC398"/>
<path d="M519.458 529.923C519.458 529.923 519.459 529.901 519.463 529.866C519.929 524.235 519.791 517.654 517.979 511.51C517.306 509.778 514.284 509.303 511.23 510.45C508.376 511.523 506.536 513.625 506.852 515.311C506.773 515.74 506.328 518.61 507.712 522.814C509.152 527.181 508.719 524.621 509.155 527.032L509.115 527.021C509.115 527.021 509.166 527.138 509.212 527.346C509.213 527.358 509.214 527.367 509.217 527.379C509.218 527.386 509.218 527.39 509.219 527.397C509.292 527.753 509.347 528.339 509.157 529.083C508.841 530.321 510.102 537.545 510.392 538.474C510.679 539.403 509.183 541.286 509.183 541.286C507.581 542.473 504.441 542.396 504.441 542.396C501.528 542.307 500.517 541.26 498.679 540.333C496.84 539.403 495.291 540.1 495.291 540.1L492.822 539.074C492.807 539.067 492.791 539.062 492.776 539.056L492.744 539.043L492.74 539.045C492.067 538.787 491.019 538.934 490.026 539.499C488.661 540.272 487.925 541.527 488.38 542.301C488.459 542.435 488.575 542.536 488.709 542.624L488.699 542.632L488.799 542.679C488.854 542.709 488.913 542.737 488.975 542.76L492.541 544.419C491.524 548.868 497.287 549.026 497.812 549.001C498.338 548.974 501.91 548.743 505.324 550.342C508.737 551.942 513.541 550.239 514.486 548.69C515.434 547.143 517.613 545.724 519.135 542.397C520.659 539.069 519.458 529.923 519.458 529.923Z" fill="#DFE9F8"/>
<path d="M511.192 529.875C511.192 529.875 510.001 530.138 509.065 530.157C508.127 530.175 502.956 530.29 501.744 531.773L498.72 532.236L498.717 532.243C497.978 532.235 497.171 533.103 496.837 534.334C496.469 535.689 496.813 536.954 497.606 537.165C497.709 537.193 497.813 537.198 497.921 537.188L497.919 537.194L501.47 537.009C501.47 537.009 502.35 538.09 505.551 538.3C508.751 538.513 510.12 536.762 511.465 536.646L511.192 529.875Z" fill="#DFE9F8"/>
<path d="M535.78 518.774C535.866 518.014 536.87 515.644 536.79 513.151C536.711 510.659 535.724 503.826 534.167 501.878C533.402 500.15 530.336 499.817 527.322 501.132C524.307 502.446 522.483 504.913 523.25 506.64C523.25 506.64 527.201 517.803 525.998 531.15L526.054 532.599C526.031 532.817 526.044 533.03 526.129 533.223C526.564 534.201 528.301 534.392 530.009 533.645C531.361 533.056 532.278 532.058 532.391 531.182L532.405 531.178C532.405 531.178 532.908 530.141 533.543 528.339C535.183 526.703 536.25 525.368 536.095 524.032C535.891 522.282 535.693 519.534 535.78 518.774Z" fill="#DFE9F8"/>
<path d="M500.911 537.212C500.911 537.212 500.502 535.597 500.911 534.102L500.113 534.54C500.113 534.54 499.711 536.087 499.912 537.268L500.911 537.212Z" fill="#BDD2EF"/>
<path d="M493.378 544.655C493.378 544.655 493.665 543.045 494.58 541.938L493.691 541.488C493.691 541.488 492.611 542.566 492.469 544.135L493.378 544.655Z" fill="#BDD2EF"/>
<path d="M520.747 524.598C520.747 524.598 520.535 528.282 520.536 529.667C520.537 530.371 521.359 537.787 520.721 540.221L520.05 540.429C520.05 540.429 520.56 535.46 519.908 529.863C519.908 529.863 520.088 527.029 520.078 525.083L520.747 524.598Z" fill="#BDD2EF"/>
<path d="M533.102 517.787L533.629 517.211C533.629 517.211 533.256 527.152 533.401 528.126C533.401 528.126 533.033 528.435 532.973 528.627C532.913 528.82 532.63 529.708 532.574 529.876C532.574 529.876 533.008 519.923 533.102 517.787Z" fill="#BDD2EF"/>
<path d="M525.463 558.797L524.129 568.288L524.495 569.982C524.495 569.982 526.871 561.077 527.296 556.262C527.296 556.262 526.37 557.973 525.463 558.797Z" fill="#18A0AA"/>
<path d="M512.44 640.384C512.163 640.796 511.267 640.796 510.439 640.384C509.608 639.971 509.161 639.303 509.436 638.892C509.713 638.479 510.61 638.479 511.438 638.891C512.267 639.302 512.716 639.971 512.44 640.384Z" fill="#FFC398"/>
<path d="M538.262 632.255L535.74 573.152L538.906 631.62L538.262 632.255Z" fill="#18A0AA"/>
<path d="M521.126 505.887C521.678 506.917 523.473 506.918 525.13 505.887C526.789 504.856 527.686 503.187 527.131 502.157C526.579 501.125 524.787 501.125 523.129 502.154C521.469 503.187 520.574 504.855 521.126 505.887Z" fill="#FFC398"/>
<path d="M521.126 499.554C521.678 500.585 523.473 500.586 525.13 499.554C526.789 498.525 527.686 496.854 527.131 495.824C526.579 494.793 524.787 494.793 523.129 495.823C521.469 496.854 520.574 498.524 521.126 499.554Z" fill="#FFC398"/>
<path d="M520.963 499.578V505.603L527.295 503.211V497.16L520.963 499.578Z" fill="#FFC398"/>
<path d="M529.407 489.244C529.407 494.198 525.155 498.215 519.908 498.215C514.664 498.215 510.409 494.198 510.409 489.244C510.409 484.29 514.664 480.273 519.908 480.273C525.155 480.273 529.407 484.29 529.407 489.244Z" fill="#120667"/>
<path fill-rule="evenodd" clip-rule="evenodd" d="M513.858 485.549C513.858 485.549 520.905 484.481 523.072 480.381C523.27 480.008 510.409 465.496 510.409 465.496L513.858 485.549Z" fill="url(#paint44_linear_10952_4665)"/>
<path d="M520.963 505.755C521.53 506.961 523.371 506.961 525.072 505.755C526.776 504.548 527.695 502.592 527.128 501.383" stroke="#6E7075" stroke-width="0.5"/>
<path d="M524.756 499.143C524.756 499.143 524.756 508.118 512.521 510.124C511.807 510.242 510.891 510.594 510.409 510.881C510.409 510.881 515.586 501.302 520.051 497.859C520.837 497.252 525.28 496.584 526.022 496.171C527.077 495.585 523.913 499.128 524.756 499.143Z" fill="#120667"/>
<path d="M524.15 500.279C524.15 500.279 525.637 503.112 527.541 502.29C528.931 501.691 529.293 500.068 529.388 499.692C529.484 499.317 529.219 494.156 528.382 494C527.541 493.844 523.819 497.904 524.15 500.279Z" fill="#120667"/>
</g>
<defs>
<linearGradient id="paint0_linear_10952_4665" x1="441.033" y1="728.234" x2="230.208" y2="358.828" gradientUnits="userSpaceOnUse">
<stop/>
<stop offset="0.0576" stop-color="#292929"/>
<stop offset="0.1455" stop-color="#626262"/>
<stop offset="0.2308" stop-color="#919191"/>
<stop offset="0.3114" stop-color="#B6B6B6"/>
<stop offset="0.3863" stop-color="#D0D0D0"/>
<stop offset="0.4531" stop-color="#E0E0E0"/>
<stop offset="0.5054" stop-color="#E6E6E6"/>
<stop offset="0.5514" stop-color="#DEDEDE"/>
<stop offset="0.6211" stop-color="#C9C9C9"/>
<stop offset="0.7058" stop-color="#A7A7A7"/>
<stop offset="0.8025" stop-color="#777777"/>
<stop offset="0.9076" stop-color="#3B3B3B"/>
<stop offset="1"/>
</linearGradient>
<linearGradient id="paint1_linear_10952_4665" x1="441.033" y1="728.234" x2="230.208" y2="358.828" gradientUnits="userSpaceOnUse">
<stop stop-color="#5761D7"/>
<stop offset="0.00965709" stop-color="#5665D7"/>
<stop offset="0.1262" stop-color="#4F94DA"/>
<stop offset="0.2375" stop-color="#49B8DD"/>
<stop offset="0.3408" stop-color="#45D3DF"/>
<stop offset="0.4332" stop-color="#43E2E0"/>
<stop offset="0.5054" stop-color="#42E8E0"/>
<stop offset="0.5719" stop-color="#43E0DF"/>
<stop offset="0.6727" stop-color="#46CCDE"/>
<stop offset="0.7952" stop-color="#4CA9DC"/>
<stop offset="0.9335" stop-color="#537AD9"/>
<stop offset="1" stop-color="#5761D7"/>
</linearGradient>
<linearGradient id="paint2_linear_10952_4665" x1="394.404" y1="637.588" x2="284.536" y2="445.078" gradientUnits="userSpaceOnUse">
<stop/>
<stop offset="0.0576" stop-color="#292929"/>
<stop offset="0.1455" stop-color="#626262"/>
<stop offset="0.2308" stop-color="#919191"/>
<stop offset="0.3114" stop-color="#B6B6B6"/>
<stop offset="0.3863" stop-color="#D0D0D0"/>
<stop offset="0.4531" stop-color="#E0E0E0"/>
<stop offset="0.5054" stop-color="#E6E6E6"/>
<stop offset="0.5514" stop-color="#DEDEDE"/>
<stop offset="0.6211" stop-color="#C9C9C9"/>
<stop offset="0.7058" stop-color="#A7A7A7"/>
<stop offset="0.8025" stop-color="#777777"/>
<stop offset="0.9076" stop-color="#3B3B3B"/>
<stop offset="1"/>
</linearGradient>
<linearGradient id="paint3_linear_10952_4665" x1="394.404" y1="637.588" x2="284.536" y2="445.078" gradientUnits="userSpaceOnUse">
<stop stop-color="#5761D7"/>
<stop offset="0.00965709" stop-color="#5665D7"/>
<stop offset="0.1262" stop-color="#4F94DA"/>
<stop offset="0.2375" stop-color="#49B8DD"/>
<stop offset="0.3408" stop-color="#45D3DF"/>
<stop offset="0.4332" stop-color="#43E2E0"/>
<stop offset="0.5054" stop-color="#42E8E0"/>
<stop offset="0.5719" stop-color="#43E0DF"/>
<stop offset="0.6727" stop-color="#46CCDE"/>
<stop offset="0.7952" stop-color="#4CA9DC"/>
<stop offset="0.9335" stop-color="#537AD9"/>
<stop offset="1" stop-color="#5761D7"/>
</linearGradient>
<linearGradient id="paint4_linear_10952_4665" x1="662.158" y1="730.605" x2="469.051" y2="392.243" gradientUnits="userSpaceOnUse">
<stop/>
<stop offset="0.0576" stop-color="#292929"/>
<stop offset="0.1455" stop-color="#626262"/>
<stop offset="0.2308" stop-color="#919191"/>
<stop offset="0.3114" stop-color="#B6B6B6"/>
<stop offset="0.3863" stop-color="#D0D0D0"/>
<stop offset="0.4531" stop-color="#E0E0E0"/>
<stop offset="0.5054" stop-color="#E6E6E6"/>
<stop offset="0.5514" stop-color="#DEDEDE"/>
<stop offset="0.6211" stop-color="#C9C9C9"/>
<stop offset="0.7058" stop-color="#A7A7A7"/>
<stop offset="0.8025" stop-color="#777777"/>
<stop offset="0.9076" stop-color="#3B3B3B"/>
<stop offset="1"/>
</linearGradient>
<linearGradient id="paint5_linear_10952_4665" x1="662.158" y1="730.605" x2="469.051" y2="392.243" gradientUnits="userSpaceOnUse">
<stop stop-color="#5761D7"/>
<stop offset="0.00965709" stop-color="#5665D7"/>
<stop offset="0.1262" stop-color="#4F94DA"/>
<stop offset="0.2375" stop-color="#49B8DD"/>
<stop offset="0.3408" stop-color="#45D3DF"/>
<stop offset="0.4332" stop-color="#43E2E0"/>
<stop offset="0.5054" stop-color="#42E8E0"/>
<stop offset="0.5719" stop-color="#43E0DF"/>
<stop offset="0.6727" stop-color="#46CCDE"/>
<stop offset="0.7952" stop-color="#4CA9DC"/>
<stop offset="0.9335" stop-color="#537AD9"/>
<stop offset="1" stop-color="#5761D7"/>
</linearGradient>
<linearGradient id="paint6_linear_10952_4665" x1="765.284" y1="728.02" x2="417.966" y2="119.452" gradientUnits="userSpaceOnUse">
<stop/>
<stop offset="0.0576" stop-color="#292929"/>
<stop offset="0.1455" stop-color="#626262"/>
<stop offset="0.2308" stop-color="#919191"/>
<stop offset="0.3114" stop-color="#B6B6B6"/>
<stop offset="0.3863" stop-color="#D0D0D0"/>
<stop offset="0.4531" stop-color="#E0E0E0"/>
<stop offset="0.5054" stop-color="#E6E6E6"/>
<stop offset="0.5514" stop-color="#DEDEDE"/>
<stop offset="0.6211" stop-color="#C9C9C9"/>
<stop offset="0.7058" stop-color="#A7A7A7"/>
<stop offset="0.8025" stop-color="#777777"/>
<stop offset="0.9076" stop-color="#3B3B3B"/>
<stop offset="1"/>
</linearGradient>
<linearGradient id="paint7_linear_10952_4665" x1="765.284" y1="728.02" x2="417.966" y2="119.452" gradientUnits="userSpaceOnUse">
<stop stop-color="#5761D7"/>
<stop offset="0.00965709" stop-color="#5665D7"/>
<stop offset="0.1262" stop-color="#4F94DA"/>
<stop offset="0.2375" stop-color="#49B8DD"/>
<stop offset="0.3408" stop-color="#45D3DF"/>
<stop offset="0.4332" stop-color="#43E2E0"/>
<stop offset="0.5054" stop-color="#42E8E0"/>
<stop offset="0.5719" stop-color="#43E0DF"/>
<stop offset="0.6727" stop-color="#46CCDE"/>
<stop offset="0.7952" stop-color="#4CA9DC"/>
<stop offset="0.9335" stop-color="#537AD9"/>
<stop offset="1" stop-color="#5761D7"/>
</linearGradient>
<linearGradient id="paint8_linear_10952_4665" x1="808.103" y1="568.857" x2="419.878" y2="-111.389" gradientUnits="userSpaceOnUse">
<stop/>
<stop offset="0.0576" stop-color="#292929"/>
<stop offset="0.1455" stop-color="#626262"/>
<stop offset="0.2308" stop-color="#919191"/>
<stop offset="0.3114" stop-color="#B6B6B6"/>
<stop offset="0.3863" stop-color="#D0D0D0"/>
<stop offset="0.4531" stop-color="#E0E0E0"/>
<stop offset="0.5054" stop-color="#E6E6E6"/>
<stop offset="0.5514" stop-color="#DEDEDE"/>
<stop offset="0.6211" stop-color="#C9C9C9"/>
<stop offset="0.7058" stop-color="#A7A7A7"/>
<stop offset="0.8025" stop-color="#777777"/>
<stop offset="0.9076" stop-color="#3B3B3B"/>
<stop offset="1"/>
</linearGradient>
<linearGradient id="paint9_linear_10952_4665" x1="808.103" y1="568.857" x2="419.878" y2="-111.389" gradientUnits="userSpaceOnUse">
<stop stop-color="#5761D7"/>
<stop offset="0.00965709" stop-color="#5665D7"/>
<stop offset="0.1262" stop-color="#4F94DA"/>
<stop offset="0.2375" stop-color="#49B8DD"/>
<stop offset="0.3408" stop-color="#45D3DF"/>
<stop offset="0.4332" stop-color="#43E2E0"/>
<stop offset="0.5054" stop-color="#42E8E0"/>
<stop offset="0.5719" stop-color="#43E0DF"/>
<stop offset="0.6727" stop-color="#46CCDE"/>
<stop offset="0.7952" stop-color="#4CA9DC"/>
<stop offset="0.9335" stop-color="#537AD9"/>
<stop offset="1" stop-color="#5761D7"/>
</linearGradient>
<linearGradient id="paint10_linear_10952_4665" x1="733.862" y1="465.011" x2="466.117" y2="-4.13031" gradientUnits="userSpaceOnUse">
<stop/>
<stop offset="0.0576" stop-color="#292929"/>
<stop offset="0.1455" stop-color="#626262"/>
<stop offset="0.2308" stop-color="#919191"/>
<stop offset="0.3114" stop-color="#B6B6B6"/>
<stop offset="0.3863" stop-color="#D0D0D0"/>
<stop offset="0.4531" stop-color="#E0E0E0"/>
<stop offset="0.5054" stop-color="#E6E6E6"/>
<stop offset="0.5514" stop-color="#DEDEDE"/>
<stop offset="0.6211" stop-color="#C9C9C9"/>
<stop offset="0.7058" stop-color="#A7A7A7"/>
<stop offset="0.8025" stop-color="#777777"/>
<stop offset="0.9076" stop-color="#3B3B3B"/>
<stop offset="1"/>
</linearGradient>
<linearGradient id="paint11_linear_10952_4665" x1="733.862" y1="465.011" x2="466.117" y2="-4.13031" gradientUnits="userSpaceOnUse">
<stop stop-color="#5761D7"/>
<stop offset="0.00965709" stop-color="#5665D7"/>
<stop offset="0.1262" stop-color="#4F94DA"/>
<stop offset="0.2375" stop-color="#49B8DD"/>
<stop offset="0.3408" stop-color="#45D3DF"/>
<stop offset="0.4332" stop-color="#43E2E0"/>
<stop offset="0.5054" stop-color="#42E8E0"/>
<stop offset="0.5719" stop-color="#43E0DF"/>
<stop offset="0.6727" stop-color="#46CCDE"/>
<stop offset="0.7952" stop-color="#4CA9DC"/>
<stop offset="0.9335" stop-color="#537AD9"/>
<stop offset="1" stop-color="#5761D7"/>
</linearGradient>
<linearGradient id="paint12_linear_10952_4665" x1="660.523" y1="602.969" x2="432.964" y2="204.241" gradientUnits="userSpaceOnUse">
<stop/>
<stop offset="0.0576" stop-color="#292929"/>
<stop offset="0.1455" stop-color="#626262"/>
<stop offset="0.2308" stop-color="#919191"/>
<stop offset="0.3114" stop-color="#B6B6B6"/>
<stop offset="0.3863" stop-color="#D0D0D0"/>
<stop offset="0.4531" stop-color="#E0E0E0"/>
<stop offset="0.5054" stop-color="#E6E6E6"/>
<stop offset="0.5514" stop-color="#DEDEDE"/>
<stop offset="0.6211" stop-color="#C9C9C9"/>
<stop offset="0.7058" stop-color="#A7A7A7"/>
<stop offset="0.8025" stop-color="#777777"/>
<stop offset="0.9076" stop-color="#3B3B3B"/>
<stop offset="1"/>
</linearGradient>
<linearGradient id="paint13_linear_10952_4665" x1="660.523" y1="602.969" x2="432.964" y2="204.241" gradientUnits="userSpaceOnUse">
<stop stop-color="#5761D7"/>
<stop offset="0.00965709" stop-color="#5665D7"/>
<stop offset="0.1262" stop-color="#4F94DA"/>
<stop offset="0.2375" stop-color="#49B8DD"/>
<stop offset="0.3408" stop-color="#45D3DF"/>
<stop offset="0.4332" stop-color="#43E2E0"/>
<stop offset="0.5054" stop-color="#42E8E0"/>
<stop offset="0.5719" stop-color="#43E0DF"/>
<stop offset="0.6727" stop-color="#46CCDE"/>
<stop offset="0.7952" stop-color="#4CA9DC"/>
<stop offset="0.9335" stop-color="#537AD9"/>
<stop offset="1" stop-color="#5761D7"/>
</linearGradient>
<linearGradient id="paint14_linear_10952_4665" x1="482.491" y1="435.511" x2="387.496" y2="269.061" gradientUnits="userSpaceOnUse">
<stop/>
<stop offset="0.0576" stop-color="#292929"/>
<stop offset="0.1455" stop-color="#626262"/>
<stop offset="0.2308" stop-color="#919191"/>
<stop offset="0.3114" stop-color="#B6B6B6"/>
<stop offset="0.3863" stop-color="#D0D0D0"/>
<stop offset="0.4531" stop-color="#E0E0E0"/>
<stop offset="0.5054" stop-color="#E6E6E6"/>
<stop offset="0.5514" stop-color="#DEDEDE"/>
<stop offset="0.6211" stop-color="#C9C9C9"/>
<stop offset="0.7058" stop-color="#A7A7A7"/>
<stop offset="0.8025" stop-color="#777777"/>
<stop offset="0.9076" stop-color="#3B3B3B"/>
<stop offset="1"/>
</linearGradient>
<linearGradient id="paint15_linear_10952_4665" x1="482.491" y1="435.511" x2="387.496" y2="269.061" gradientUnits="userSpaceOnUse">
<stop stop-color="#5761D7"/>
<stop offset="0.00965709" stop-color="#5665D7"/>
<stop offset="0.1262" stop-color="#4F94DA"/>
<stop offset="0.2375" stop-color="#49B8DD"/>
<stop offset="0.3408" stop-color="#45D3DF"/>
<stop offset="0.4332" stop-color="#43E2E0"/>
<stop offset="0.5054" stop-color="#42E8E0"/>
<stop offset="0.5719" stop-color="#43E0DF"/>
<stop offset="0.6727" stop-color="#46CCDE"/>
<stop offset="0.7952" stop-color="#4CA9DC"/>
<stop offset="0.9335" stop-color="#537AD9"/>
<stop offset="1" stop-color="#5761D7"/>
</linearGradient>
<linearGradient id="paint16_linear_10952_4665" x1="270.589" y1="494.29" x2="200.671" y2="626.616" gradientUnits="userSpaceOnUse">
<stop stop-color="#0A54C9" stop-opacity="0.27"/>
<stop offset="0.49" stop-color="#267FD1" stop-opacity="0.07"/>
<stop offset="1" stop-color="#2F8DD3" stop-opacity="0.01"/>
</linearGradient>
<linearGradient id="paint17_linear_10952_4665" x1="146.181" y1="518.852" x2="57.8101" y2="676.275" gradientUnits="userSpaceOnUse">
<stop stop-color="#0A54C9" stop-opacity="0.27"/>
<stop offset="0.49" stop-color="#267FD1" stop-opacity="0.07"/>
<stop offset="1" stop-color="#2F8DD3" stop-opacity="0.01"/>
</linearGradient>
<linearGradient id="paint18_linear_10952_4665" x1="429.468" y1="556.827" x2="339.327" y2="715.911" gradientUnits="userSpaceOnUse">
<stop stop-color="#0A54C9" stop-opacity="0.27"/>
<stop offset="0.49" stop-color="#267FD1" stop-opacity="0.07"/>
<stop offset="1" stop-color="#2F8DD3" stop-opacity="0.01"/>
</linearGradient>
<linearGradient id="paint19_linear_10952_4665" x1="550.782" y1="492.135" x2="467.08" y2="624.63" gradientUnits="userSpaceOnUse">
<stop stop-color="#0A54C9" stop-opacity="0.27"/>
<stop offset="0.49" stop-color="#267FD1" stop-opacity="0.07"/>
<stop offset="1" stop-color="#2F8DD3" stop-opacity="0.01"/>
</linearGradient>
<linearGradient id="paint20_linear_10952_4665" x1="501.689" y1="443.83" x2="418.652" y2="576.594" gradientUnits="userSpaceOnUse">
<stop stop-color="#0A54C9" stop-opacity="0.27"/>
<stop offset="0.49" stop-color="#267FD1" stop-opacity="0.07"/>
<stop offset="1" stop-color="#2F8DD3" stop-opacity="0.01"/>
</linearGradient>
<linearGradient id="paint21_linear_10952_4665" x1="547.794" y1="520.34" x2="512.309" y2="569.295" gradientUnits="userSpaceOnUse">
<stop stop-color="#0A54C9" stop-opacity="0.27"/>
<stop offset="0.49" stop-color="#267FD1" stop-opacity="0.07"/>
<stop offset="1" stop-color="#2F8DD3" stop-opacity="0.01"/>
</linearGradient>
<linearGradient id="paint22_linear_10952_4665" x1="285.332" y1="464.903" x2="289.879" y2="468.695" gradientUnits="userSpaceOnUse">
<stop stop-color="#17B2B7"/>
<stop offset="1" stop-color="#0E4D7C"/>
</linearGradient>
<linearGradient id="paint23_linear_10952_4665" x1="228.266" y1="481.542" x2="234.035" y2="481.988" gradientUnits="userSpaceOnUse">
<stop stop-color="#17B2B7"/>
<stop offset="1" stop-color="#0E4D7C"/>
</linearGradient>
<linearGradient id="paint24_linear_10952_4665" x1="195.52" y1="471.726" x2="191.015" y2="474.347" gradientUnits="userSpaceOnUse">
<stop stop-color="#17B2B7"/>
<stop offset="1" stop-color="#0E4D7C"/>
</linearGradient>
<linearGradient id="paint25_linear_10952_4665" x1="575.398" y1="387.169" x2="575.575" y2="405.831" gradientUnits="userSpaceOnUse">
<stop stop-color="#E08C5C"/>
<stop offset="1" stop-color="#FFC398"/>
</linearGradient>
<linearGradient id="paint26_linear_10952_4665" x1="312.751" y1="322.38" x2="305.993" y2="322.97" gradientUnits="userSpaceOnUse">
<stop stop-color="#5333ED"/>
<stop offset="1" stop-color="#2CD4D9"/>
</linearGradient>
<linearGradient id="paint27_linear_10952_4665" x1="410.322" y1="356.866" x2="403.864" y2="358.179" gradientUnits="userSpaceOnUse">
<stop stop-color="#5333ED"/>
<stop offset="1" stop-color="#2CD4D9"/>
</linearGradient>
<linearGradient id="paint28_linear_10952_4665" x1="486.148" y1="270.755" x2="480.517" y2="271.233" gradientUnits="userSpaceOnUse">
<stop stop-color="#5333ED"/>
<stop offset="1" stop-color="#2CD4D9"/>
</linearGradient>
<linearGradient id="paint29_linear_10952_4665" x1="344.727" y1="370.93" x2="337.97" y2="371.521" gradientUnits="userSpaceOnUse">
<stop stop-color="#5333ED"/>
<stop offset="1" stop-color="#2CD4D9"/>
</linearGradient>
<linearGradient id="paint30_linear_10952_4665" x1="413.327" y1="276.995" x2="407.683" y2="277.406" gradientUnits="userSpaceOnUse">
<stop stop-color="#5333ED"/>
<stop offset="1" stop-color="#2CD4D9"/>
</linearGradient>
<linearGradient id="paint31_linear_10952_4665" x1="450.2" y1="296.418" x2="455.693" y2="292.023" gradientUnits="userSpaceOnUse">
<stop stop-color="#5333ED"/>
<stop offset="1" stop-color="#2CD4D9"/>
</linearGradient>
<linearGradient id="paint32_linear_10952_4665" x1="467.709" y1="314.091" x2="472.506" y2="308.718" gradientUnits="userSpaceOnUse">
<stop stop-color="#5333ED"/>
<stop offset="1" stop-color="#2CD4D9"/>
</linearGradient>
<linearGradient id="paint33_linear_10952_4665" x1="297.791" y1="409.078" x2="302.586" y2="403.706" gradientUnits="userSpaceOnUse">
<stop stop-color="#5333ED"/>
<stop offset="1" stop-color="#2CD4D9"/>
</linearGradient>
<linearGradient id="paint34_linear_10952_4665" x1="386.448" y1="326.754" x2="391.241" y2="321.382" gradientUnits="userSpaceOnUse">
<stop stop-color="#5333ED"/>
<stop offset="1" stop-color="#2CD4D9"/>
</linearGradient>
<linearGradient id="paint35_linear_10952_4665" x1="242.351" y1="232.758" x2="236.717" y2="233.236" gradientUnits="userSpaceOnUse">
<stop stop-color="#5333ED"/>
<stop offset="1" stop-color="#2CD4D9"/>
</linearGradient>
<linearGradient id="paint36_linear_10952_4665" x1="375.014" y1="234.549" x2="380.608" y2="233.574" gradientUnits="userSpaceOnUse">
<stop stop-color="#5333ED"/>
<stop offset="1" stop-color="#2CD4D9"/>
</linearGradient>
<linearGradient id="paint37_linear_10952_4665" x1="571.444" y1="217.701" x2="577.983" y2="216.594" gradientUnits="userSpaceOnUse">
<stop stop-color="#5333ED"/>
<stop offset="1" stop-color="#2CD4D9"/>
</linearGradient>
<linearGradient id="paint38_linear_10952_4665" x1="424.619" y1="212.423" x2="430.265" y2="211.604" gradientUnits="userSpaceOnUse">
<stop stop-color="#5333ED"/>
<stop offset="1" stop-color="#2CD4D9"/>
</linearGradient>
<linearGradient id="paint39_linear_10952_4665" x1="401.684" y1="224.664" x2="396.539" y2="218.792" gradientUnits="userSpaceOnUse">
<stop stop-color="#5333ED"/>
<stop offset="1" stop-color="#2CD4D9"/>
</linearGradient>
<linearGradient id="paint40_linear_10952_4665" x1="509.033" y1="191.45" x2="504.762" y2="186.441" gradientUnits="userSpaceOnUse">
<stop stop-color="#5333ED"/>
<stop offset="1" stop-color="#2CD4D9"/>
</linearGradient>
<linearGradient id="paint41_linear_10952_4665" x1="277.918" y1="233.529" x2="283.564" y2="232.709" gradientUnits="userSpaceOnUse">
<stop stop-color="#5333ED"/>
<stop offset="1" stop-color="#2CD4D9"/>
</linearGradient>
<linearGradient id="paint42_linear_10952_4665" x1="537.799" y1="230.989" x2="543.292" y2="226.593" gradientUnits="userSpaceOnUse">
<stop stop-color="#5333ED"/>
<stop offset="1" stop-color="#2CD4D9"/>
</linearGradient>
<linearGradient id="paint43_linear_10952_4665" x1="632.855" y1="459.522" x2="640.4" y2="440.762" gradientUnits="userSpaceOnUse">
<stop stop-color="#7C4E2E"/>
<stop offset="1" stop-color="#B7835F"/>
</linearGradient>
<linearGradient id="paint44_linear_10952_4665" x1="519.433" y1="463.829" x2="512.434" y2="464.98" gradientUnits="userSpaceOnUse">
<stop stop-color="#002576"/>
<stop offset="1" stop-color="#33ADF8"/>
</linearGradient>
<clipPath id="clip0_10952_4665">
<rect width="803" height="625" fill="white" transform="translate(11 109)"/>
</clipPath>
</defs>
</svg>
