<svg width="1920" height="985" viewBox="0 0 1920 985" fill="none" xmlns="http://www.w3.org/2000/svg">
<g clip-path="url(#clip0_11042_7827)">
<rect width="1920" height="985" fill="#002576"/>
<g opacity="0.8">
<path d="M4 385.618L874.688 41.7645C887.104 36.8614 907.36 36.8614 919.776 41.7645L1151.62 133.326C1157.54 135.668 1160.83 138.754 1160.83 142.038C1160.83 145.321 1157.57 148.407 1151.62 150.749L952.992 229.177C940.544 234.081 920.32 234.081 907.872 229.177L883.136 219.415C877.216 217.073 873.92 213.965 873.92 210.703C873.92 207.42 877.184 204.333 883.136 201.991L1001.66 155.193C1007.9 152.719 1011.36 149.436 1011.36 145.912C1011.36 142.388 1007.9 139.083 1001.66 136.631L969.088 123.782C956.384 118.77 935.712 118.77 923.04 123.782L658.24 228.346C652 230.819 648.576 234.102 648.576 237.627C648.576 241.151 652 244.456 658.272 246.907L1039.55 397.481C1052.26 402.494 1072.93 402.494 1085.63 397.481L1643.39 177.169C1655.84 172.266 1676.06 172.266 1688.48 177.169L1924 270.175V269.409L1688.99 176.6C1676.29 171.588 1655.62 171.588 1642.91 176.6L1085.12 396.89C1072.67 401.793 1052.45 401.793 1040.03 396.89L658.72 246.316C652.8 243.974 649.504 240.888 649.504 237.605C649.504 234.321 652.768 231.235 658.72 228.893L923.52 124.329C935.968 119.426 956.192 119.426 968.608 124.329L1001.18 137.178C1007.1 139.52 1010.4 142.607 1010.4 145.89C1010.4 149.173 1007.14 152.26 1001.18 154.602L882.656 201.4C876.416 203.874 872.992 207.157 872.992 210.681C872.992 214.205 876.416 217.511 882.656 219.962L907.392 229.725C920.096 234.737 940.768 234.737 953.472 229.725L1152.1 151.297C1158.34 148.823 1161.79 145.54 1161.79 142.016C1161.79 138.492 1158.34 135.186 1152.1 132.735L920.256 41.1735C907.552 36.1609 886.88 36.1609 874.176 41.1735L4 384.851V385.618Z" fill="#583FD8"/>
<path d="M1924 799.319L1871.2 820.179C1858.78 825.104 1838.53 825.082 1826.11 820.179L1668.51 757.949C1655.81 752.936 1635.14 752.936 1622.43 757.949L1047.49 985.002H1049.41L1622.91 758.518C1635.36 753.593 1655.58 753.615 1668 758.518L1825.6 820.748C1838.3 825.76 1858.98 825.76 1871.68 820.748L1924 800.085V799.319Z" fill="#583FD8"/>
<path d="M430.752 703.464C443.456 708.476 464.128 708.476 476.832 703.464L814.144 570.249C826.592 565.345 846.816 565.345 859.232 570.249L1286.43 738.945C1292.35 741.288 1295.65 744.396 1295.65 747.657C1295.65 750.941 1292.38 754.027 1286.43 756.369L927.616 898.099C915.168 903.002 894.944 903.002 882.528 898.099L834.336 879.078C828.416 876.735 825.12 873.649 825.12 870.366C825.12 867.082 828.384 863.996 834.336 861.654L1083.74 763.154C1089.98 760.681 1093.44 757.398 1093.44 753.874C1093.44 750.35 1089.98 747.044 1083.74 744.593L853.856 653.82C841.152 648.807 820.48 648.807 807.776 653.82L553.152 754.377L553.632 754.946L808.256 654.389C820.704 649.486 840.928 649.486 853.344 654.389L1083.23 745.162C1089.15 747.504 1092.45 750.612 1092.45 753.874C1092.45 757.135 1089.18 760.243 1083.23 762.585L833.824 861.085C827.584 863.558 824.16 866.842 824.16 870.366C824.16 873.89 827.584 877.195 833.824 879.647L882.016 898.668C894.72 903.681 915.392 903.681 928.096 898.668L1286.91 756.96C1293.15 754.487 1296.58 751.203 1296.58 747.679C1296.58 744.155 1293.15 740.85 1286.88 738.398L859.68 569.701C846.976 564.689 826.304 564.689 813.6 569.701L476.288 702.917C463.84 707.82 443.616 707.82 431.2 702.917L4 534.176V534.942L430.752 703.464Z" fill="#583FD8"/>
<path d="M1629.44 453.495L1802.66 385.092C1815.07 380.189 1835.33 380.189 1847.74 385.092L1924 415.211V414.445L1848.22 384.523C1835.52 379.511 1814.85 379.511 1802.14 384.523L1628.93 452.926C1622.69 455.4 1619.26 458.683 1619.26 462.207C1619.26 465.731 1622.69 469.036 1628.96 471.488L1796.32 537.593C1802.24 539.935 1805.54 543.043 1805.54 546.304C1805.54 549.566 1802.27 552.674 1796.32 555.016L1476.58 681.294C1464.16 686.197 1443.9 686.197 1431.49 681.294L691.712 389.142C679.008 384.129 658.336 384.129 645.632 389.142L294.656 527.764C282.208 532.668 261.984 532.668 249.568 527.764L4 430.796V431.563L249.056 528.356C261.76 533.368 282.432 533.368 295.104 528.356L646.08 389.733C658.528 384.83 678.752 384.83 691.168 389.733L1430.94 681.885C1443.65 686.897 1464.32 686.897 1476.99 681.885L1796.74 555.607C1802.98 553.134 1806.43 549.85 1806.43 546.326C1806.43 542.802 1802.98 539.497 1796.74 537.045L1629.38 470.941C1623.46 468.599 1620.16 465.49 1620.16 462.229C1620.22 458.946 1623.49 455.837 1629.44 453.495Z" fill="#583FD8"/>
<path d="M891.584 985.001L4 634.473V635.217L889.664 985.001H891.584Z" fill="#583FD8"/>
<path d="M48.3203 91.9116L281.024 0H279.104L47.8403 91.3425C41.6003 93.8159 38.1763 97.0992 38.1763 100.623C38.1763 104.147 41.6003 107.453 47.8403 109.904L213.248 175.221C225.952 180.233 246.624 180.233 259.328 175.221L703.008 0H701.088L258.816 174.652C246.368 179.555 226.144 179.555 213.728 174.652L48.3203 109.335C42.4003 106.993 39.1043 103.907 39.1043 100.623C39.1043 97.34 42.3683 94.2537 48.3203 91.9116Z" fill="#583FD8"/>
<path d="M478.144 945.668C465.44 940.655 444.768 940.655 432.064 945.668L344.8 980.121C332.352 985.024 312.128 985.024 299.712 980.121L4 863.344V864.11L299.232 980.712C311.936 985.725 332.608 985.725 345.312 980.712L432.576 946.259C445.024 941.356 465.248 941.356 477.664 946.259L575.808 985.002H577.728L478.144 945.668Z" fill="#583FD8"/>
<path d="M1658.11 946.695C1645.41 941.682 1624.74 941.682 1612.03 946.695L1515.07 985H1516.99L1612.51 947.264C1624.93 942.339 1645.18 942.361 1657.6 947.264L1753.15 985H1755.07L1658.11 946.695Z" fill="#583FD8"/>
<path d="M103.616 762.058C103.616 758.534 100.192 755.229 93.92 752.777L4 717.273V718.04L93.44 753.368C99.36 755.71 102.656 758.818 102.656 762.08C102.656 765.363 99.392 768.45 93.44 770.792L4 806.098V806.864L93.92 771.361C100.16 768.887 103.616 765.582 103.616 762.058Z" fill="#583FD8"/>
<path d="M1462.62 0L1924 182.202V181.458L1464.54 0H1462.62Z" fill="#583FD8"/>
<path d="M1481.38 103.337L1219.68 0H1217.76L1480.9 103.906C1486.82 106.248 1490.11 109.335 1490.11 112.618C1490.11 115.901 1486.85 118.987 1480.9 121.33L1021.82 302.634L1022.3 303.204L1481.38 121.921C1487.62 119.447 1491.07 116.164 1491.07 112.64C1491.07 109.116 1487.62 105.81 1481.38 103.337Z" fill="#583FD8"/>
<path d="M1221.54 529.011C1213.18 529.011 1204.86 527.763 1198.5 525.246L562.272 273.984C549.824 269.081 529.6 269.081 517.184 273.984L150.56 418.779C144.64 421.121 141.344 424.207 141.344 427.491C141.344 430.774 144.608 433.86 150.56 436.202L188.992 451.371C201.44 456.274 221.664 456.274 234.08 451.371L557.056 323.825L557.536 324.394L234.56 451.94C221.856 456.953 201.184 456.953 188.48 451.94L150.048 436.771C143.808 434.298 140.384 431.015 140.384 427.491C140.384 423.966 143.808 420.661 150.048 418.21L516.672 273.415C529.376 268.403 550.048 268.403 562.752 273.415L1198.98 524.677C1211.42 529.58 1231.65 529.58 1244.06 524.677L1774.78 315.092C1780.7 312.75 1784 309.663 1784 306.38C1784 303.097 1780.74 300.01 1774.78 297.668L1621.76 237.233L1622.24 236.664L1775.26 297.099C1781.5 299.572 1784.96 302.856 1784.96 306.38C1784.96 309.904 1781.5 313.209 1775.26 315.661L1244.54 525.246C1238.24 527.763 1229.89 529.011 1221.54 529.011Z" fill="#583FD8"/>
</g>
</g>
<defs>
<clipPath id="clip0_11042_7827">
<rect width="1920" height="985" fill="white"/>
</clipPath>
</defs>
</svg>
