<svg width="80" height="80" viewBox="0 0 80 80" fill="none" xmlns="http://www.w3.org/2000/svg">
<circle cx="40" cy="40" r="40" fill="#D5E6FB"/>
<g clip-path="url(#clip0_10962_3303)">
<path d="M42.83 41.1659L26.5907 57.4073C25.9462 58.0519 24.9012 58.0519 24.2566 57.4074L20.2387 53.3895C19.5943 52.745 19.5942 51.7001 20.2387 51.0556L31.2931 39.9989L24.8129 33.5187L20.2388 28.9446C19.5943 28.3001 19.5943 27.2551 20.2388 26.6106L24.2567 22.5928C24.9012 21.9482 25.9462 21.9482 26.5907 22.5928L37.5166 33.5187L42.8299 38.832C43.4743 39.4764 43.4744 40.5213 42.83 41.1659Z" fill="#335191"/>
<path d="M37.6425 33.6493L31.2906 40.0011L28.8628 37.5733L24.8131 33.5184L20.239 28.9443C19.5945 28.2998 19.5945 27.2549 20.239 26.6103L24.2566 22.5928C24.9012 21.9481 25.9464 21.9482 26.5909 22.5931L35.2146 31.2213L37.6425 33.6493Z" fill="#33ADF8"/>
<path d="M37.6426 33.6483L31.2908 40.0002L29.7505 38.4573L36.1022 32.1055L37.6426 33.6483Z" fill="#2F80ED"/>
<path d="M59.7612 41.1659L43.5221 57.4073C42.8775 58.0519 41.8325 58.0519 41.188 57.4074L37.17 53.3895C36.5256 52.745 36.5255 51.7001 37.1699 51.0556L48.2244 39.9989L41.7442 33.5187L37.1701 28.9446C36.5256 28.3001 36.5256 27.2551 37.1701 26.6106L41.188 22.5928C41.8325 21.9482 42.8774 21.9482 43.522 22.5928L54.4479 33.5187L59.7611 38.832C60.4057 39.4764 60.4057 40.5213 59.7612 41.1659Z" fill="#33ADF8"/>
<path d="M54.5736 33.6493L48.2218 40.0011L45.7939 37.5733L41.7442 33.5184L37.1702 28.9443C36.5256 28.2998 36.5256 27.2549 37.1702 26.6103L41.1877 22.5928C41.8324 21.9481 42.8776 21.9482 43.522 22.5931L52.1458 31.2213L54.5736 33.6493Z" fill="#335191"/>
<path d="M54.5738 33.6483L48.222 40.0002L46.6816 38.4573L53.0335 32.1055L54.5738 33.6483Z" fill="#002576"/>
<path d="M62.3135 61.8047C61.9251 61.8047 61.6104 62.1195 61.6104 62.5078V63.2969C61.6104 63.6852 61.9251 64 62.3135 64C62.7019 64 63.0166 63.6852 63.0166 63.2969V62.5078C63.0166 62.1195 62.7019 61.8047 62.3135 61.8047Z" fill="#002576"/>
<path d="M58.1631 61.8047C57.7747 61.8047 57.46 62.1195 57.46 62.5078V63.2969C57.46 63.6852 57.7747 64 58.1631 64C58.5515 64 58.8662 63.6852 58.8662 63.2969V62.5078C58.8662 62.1195 58.5515 61.8047 58.1631 61.8047Z" fill="#002576"/>
<path d="M54.0127 61.8047C53.6243 61.8047 53.3096 62.1195 53.3096 62.5078V63.2969C53.3096 63.6852 53.6243 64 54.0127 64C54.4011 64 54.7158 63.6852 54.7158 63.2969V62.5078C54.7158 62.1195 54.401 61.8047 54.0127 61.8047Z" fill="#002576"/>
<path d="M25.9875 18.1953C26.3759 18.1953 26.6907 17.8805 26.6907 17.4922V16.7031C26.6907 16.3148 26.3759 16 25.9875 16C25.5992 16 25.2844 16.3148 25.2844 16.7031V17.4922C25.2844 17.8805 25.5992 18.1953 25.9875 18.1953Z" fill="#2F80ED"/>
<path d="M21.8369 18.1953C22.2252 18.1953 22.54 17.8805 22.54 17.4922V16.7031C22.54 16.3148 22.2252 16 21.8369 16C21.4486 16 21.1338 16.3148 21.1338 16.7031V17.4922C21.1338 17.8805 21.4486 18.1953 21.8369 18.1953Z" fill="#2F80ED"/>
<path d="M17.6865 16C17.2982 16 16.9834 16.3148 16.9834 16.7031V17.4922C16.9834 17.8805 17.2982 18.1953 17.6865 18.1953C18.0748 18.1953 18.3896 17.8805 18.3896 17.4922V16.7031C18.3896 16.3148 18.0748 16 17.6865 16Z" fill="#2F80ED"/>
</g>
<defs>
<clipPath id="clip0_10962_3303">
<rect width="48" height="48" fill="white" transform="translate(16 16)"/>
</clipPath>
</defs>
</svg>
