<svg width="81" height="80" viewBox="0 0 81 80" fill="none" xmlns="http://www.w3.org/2000/svg">
<g clip-path="url(#clip0_10962_3337)">
<circle cx="40.3333" cy="40" r="40" fill="#D5E6FB"/>
<path d="M40.3241 61.8763C52.4057 61.8763 62.1997 52.0822 62.1997 40.0006C62.1997 27.9191 52.4057 18.125 40.3241 18.125C28.2425 18.125 18.4485 27.9191 18.4485 40.0006C18.4485 52.0822 28.2425 61.8763 40.3241 61.8763Z" fill="#5999F1"/>
<path d="M60.5944 22.0012C59.8444 21.7575 59.0831 21.5419 58.6538 19.6875C58.2563 21.3956 57.6206 21.7012 56.7131 22.0012C58.1944 22.4925 58.4175 23.3025 58.6538 24.3169C59.0588 22.5637 59.73 22.2919 60.5944 22.0012Z" fill="#00CB6A"/>
<path d="M23.9347 57.9992C23.1847 57.7536 22.4347 57.5398 21.9941 55.6836C21.5966 57.3917 20.9628 57.6992 20.0535 57.9992C21.5347 58.4886 21.7578 59.2986 21.9941 60.313C22.3991 58.5617 23.0703 58.2805 23.9347 57.9992Z" fill="#00CB6A"/>
<path d="M32.7078 30.793C32.0032 30.793 31.3144 30.584 30.7285 30.1926C30.1427 29.8011 29.6861 29.2447 29.4164 28.5938C29.1468 27.9428 29.0763 27.2265 29.2137 26.5355C29.3512 25.8444 29.6905 25.2096 30.1887 24.7114C30.6869 24.2132 31.3217 23.8739 32.0128 23.7364C32.7038 23.599 33.4201 23.6695 34.0711 23.9391C34.722 24.2088 35.2784 24.6654 35.6699 25.2513C36.0613 25.8371 36.2703 26.5259 36.2703 27.2305C36.2703 28.1753 35.8949 29.0814 35.2268 29.7495C34.5587 30.4176 33.6526 30.793 32.7078 30.793Z" fill="#33ADF8"/>
<path d="M56.6307 43.5625C55.9261 43.5625 55.2374 43.3536 54.6515 42.9621C54.0657 42.5707 53.6091 42.0143 53.3394 41.3633C53.0698 40.7123 52.9992 39.996 53.1367 39.305C53.2742 38.6139 53.6134 37.9792 54.1117 37.4809C54.6099 36.9827 55.2447 36.6434 55.9357 36.506C56.6268 36.3685 57.3431 36.439 57.994 36.7087C58.645 36.9783 59.2014 37.4349 59.5929 38.0208C59.9843 38.6066 60.1932 39.2954 60.1932 40C60.1932 40.9448 59.8179 41.851 59.1498 42.5191C58.4817 43.1872 57.5756 43.5625 56.6307 43.5625Z" fill="#33ADF8"/>
<path d="M40.3333 56.3281C39.6287 56.3281 38.9399 56.1192 38.354 55.7277C37.7682 55.3363 37.3116 54.7799 37.0419 54.1289C36.7723 53.478 36.7017 52.7617 36.8392 52.0706C36.9767 51.3796 37.316 50.7448 37.8142 50.2466C38.3124 49.7483 38.9472 49.409 39.6382 49.2716C40.3293 49.1341 41.0456 49.2047 41.6966 49.4743C42.3475 49.7439 42.9039 50.2006 43.2954 50.7864C43.6868 51.3723 43.8958 52.061 43.8958 52.7656C43.8958 53.7105 43.5204 54.6166 42.8523 55.2847C42.1842 55.9528 41.2781 56.3281 40.3333 56.3281Z" fill="#33ADF8"/>
<path d="M32.7076 25.0859C32.2826 25.0859 31.8672 25.212 31.5138 25.4481C31.1604 25.6842 30.885 26.0198 30.7224 26.4124C30.5598 26.805 30.5172 27.2371 30.6001 27.6539C30.683 28.0707 30.8877 28.4536 31.1882 28.7541C31.4887 29.0546 31.8716 29.2592 32.2884 29.3421C32.7052 29.4251 33.1372 29.3825 33.5299 29.2199C33.9225 29.0572 34.2581 28.7818 34.4942 28.4285C34.7303 28.0751 34.8563 27.6597 34.8563 27.2347C34.8563 26.9525 34.8008 26.6731 34.6928 26.4124C34.5848 26.1517 34.4265 25.9148 34.227 25.7153C34.0275 25.5158 33.7906 25.3575 33.5299 25.2495C33.2692 25.1415 32.9898 25.0859 32.7076 25.0859Z" fill="#00CB6A"/>
<path d="M56.6309 42.1491C57.8176 42.1491 58.7797 41.187 58.7797 40.0003C58.7797 38.8136 57.8176 37.8516 56.6309 37.8516C55.4442 37.8516 54.4822 38.8136 54.4822 40.0003C54.4822 41.187 55.4442 42.1491 56.6309 42.1491Z" fill="#00CB6A"/>
<path d="M40.3331 50.6172C39.9081 50.6172 39.4927 50.7432 39.1393 50.9793C38.7859 51.2154 38.5105 51.551 38.3479 51.9436C38.1853 52.3363 38.1427 52.7683 38.2256 53.1851C38.3085 53.602 38.5132 53.9848 38.8137 54.2853C39.1142 54.5858 39.4971 54.7905 39.9139 54.8734C40.3307 54.9563 40.7627 54.9138 41.1554 54.7511C41.548 54.5885 41.8836 54.3131 42.1197 53.9597C42.3558 53.6064 42.4818 53.1909 42.4818 52.7659C42.4818 52.4838 42.4262 52.2043 42.3183 51.9436C42.2103 51.6829 42.052 51.4461 41.8525 51.2465C41.6529 51.047 41.4161 50.8887 41.1554 50.7807C40.8947 50.6728 40.6153 50.6172 40.3331 50.6172Z" fill="#00CB6A"/>
<path d="M59.1395 19.5765C59.1139 19.4669 59.0519 19.3693 58.9638 19.2994C58.8756 19.2295 58.7664 19.1914 58.6539 19.1914C58.5414 19.1914 58.4322 19.2295 58.344 19.2994C58.2558 19.3693 58.1939 19.4669 58.1683 19.5765C57.8101 21.1159 57.3114 21.2809 56.5576 21.5302C56.4614 21.5652 56.3783 21.629 56.3195 21.7128C56.2608 21.7967 56.2292 21.8966 56.2292 21.999C56.2292 22.1014 56.2608 22.2013 56.3195 22.2852C56.3783 22.369 56.4614 22.4328 56.5576 22.4677C57.8101 22.8915 57.9583 23.499 58.1683 24.4365C58.1939 24.546 58.2558 24.6437 58.344 24.7136C58.4322 24.7835 58.5414 24.8216 58.6539 24.8216C58.7664 24.8216 58.8756 24.7835 58.9638 24.7136C59.0519 24.6437 59.1139 24.546 59.1395 24.4365C59.4958 22.8971 60.0226 22.7227 60.7501 22.4827C60.8464 22.4478 60.9295 22.384 60.9883 22.3002C61.047 22.2163 61.0785 22.1164 61.0785 22.014C61.0785 21.9116 61.047 21.8117 60.9883 21.7278C60.9295 21.644 60.8464 21.5802 60.7501 21.5452C60.0508 21.2996 59.5051 21.1515 59.1395 19.5765ZM58.6633 22.8409C58.4678 22.5113 58.2013 22.2295 57.8833 22.0159C58.2057 21.7907 58.4703 21.4926 58.6558 21.1459C58.8372 21.4865 59.0936 21.7814 59.4058 22.0084C59.0976 22.2252 58.8436 22.5101 58.6633 22.8409Z" fill="#333333"/>
<path d="M22.4797 55.5609C22.454 55.4513 22.3921 55.3536 22.3039 55.2837C22.2158 55.2138 22.1066 55.1758 21.994 55.1758C21.8815 55.1758 21.7723 55.2138 21.6841 55.2837C21.596 55.3536 21.5341 55.4513 21.5084 55.5609C21.1503 57.1002 20.6515 57.2652 19.8978 57.5146C19.7983 57.5476 19.7117 57.6111 19.6503 57.6961C19.5889 57.7811 19.5559 57.8832 19.5559 57.9881C19.5559 58.0929 19.5889 58.1951 19.6503 58.28C19.7117 58.365 19.7983 58.4285 19.8978 58.4615C21.1503 58.8759 21.2928 59.489 21.5084 60.4152C21.5341 60.5248 21.596 60.6225 21.6841 60.6924C21.7723 60.7623 21.8815 60.8003 21.994 60.8003C22.1066 60.8003 22.2158 60.7623 22.3039 60.6924C22.3921 60.6225 22.454 60.5248 22.4797 60.4152C22.8378 58.8759 23.3628 58.7034 24.0903 58.4615C24.1898 58.4285 24.2764 58.365 24.3378 58.28C24.3991 58.1951 24.4322 58.0929 24.4322 57.9881C24.4322 57.8832 24.3991 57.7811 24.3378 57.6961C24.2764 57.6111 24.1898 57.5476 24.0903 57.5146C23.3909 57.2896 22.8453 57.1415 22.4797 55.5609ZM22.0034 58.8252C21.8079 58.4957 21.5415 58.2139 21.2234 58.0002C21.5467 57.7761 21.8116 57.4778 21.9959 57.1302C22.1774 57.4708 22.4339 57.7657 22.7459 57.9927C22.4376 58.2117 22.1836 58.4984 22.0034 58.8309V58.8252Z" fill="#333333"/>
<path d="M49.0858 47.7229C49.1473 47.7321 49.2101 47.7292 49.2705 47.7141C49.3309 47.6991 49.3877 47.6723 49.4378 47.6353C49.4879 47.5983 49.5301 47.5518 49.5622 47.4985C49.5943 47.4452 49.6156 47.386 49.6248 47.3245C49.6341 47.2629 49.6311 47.2001 49.616 47.1397C49.601 47.0793 49.5742 47.0225 49.5372 46.9724C49.5002 46.9224 49.4538 46.8801 49.4004 46.848C49.3471 46.8159 49.2879 46.7946 49.2264 46.7854C49.1039 46.7691 48.9799 46.8011 48.8805 46.8746C48.7811 46.948 48.7142 47.0573 48.6939 47.1792C48.6835 47.2406 48.6854 47.3036 48.6995 47.3643C48.7136 47.4251 48.7396 47.4824 48.7761 47.533C48.8125 47.5836 48.8587 47.6264 48.9119 47.659C48.965 47.6916 49.0241 47.7133 49.0858 47.7229Z" fill="#333333"/>
<path d="M37.1982 40.4688C37.4571 40.4688 37.667 40.2589 37.667 40C37.667 39.7411 37.4571 39.5312 37.1982 39.5312C36.9394 39.5312 36.7295 39.7411 36.7295 40C36.7295 40.2589 36.9394 40.4688 37.1982 40.4688Z" fill="#333333"/>
<path d="M19.1981 34.2879C19.2572 34.3051 19.3191 34.3105 19.3803 34.3038C19.4415 34.2971 19.5008 34.2785 19.5547 34.2489C19.6087 34.2193 19.6563 34.1793 19.6949 34.1313C19.7334 34.0833 19.7621 34.0282 19.7793 33.9691C19.7966 33.91 19.802 33.8481 19.7953 33.7869C19.7886 33.7257 19.7699 33.6664 19.7403 33.6125C19.7107 33.5585 19.6708 33.5109 19.6228 33.4723C19.5748 33.4338 19.5197 33.4051 19.4606 33.3879C19.3415 33.3555 19.2146 33.3704 19.1063 33.4294C18.9979 33.4885 18.9166 33.5871 18.8793 33.7047C18.8616 33.7639 18.8557 33.8261 18.8622 33.8876C18.8686 33.9491 18.8872 34.0087 18.9168 34.0629C18.9465 34.1172 18.9866 34.165 19.0349 34.2036C19.0832 34.2422 19.1386 34.2708 19.1981 34.2879Z" fill="#333333"/>
<path d="M18.4203 35.5625C15.6209 49.4488 26.2447 62.345 40.3334 62.345C53.6647 62.345 62.5916 51.4381 62.6947 40.0006C62.8072 27.8319 52.7272 17.6562 40.3334 17.6562C35.8349 17.6595 31.4419 19.0198 27.7288 21.5595C24.0156 24.0991 21.155 27.7 19.5209 31.8913C19.4736 32.0043 19.4724 32.1314 19.5176 32.2453C19.5628 32.3592 19.6508 32.4508 19.7628 32.5006C19.8788 32.5439 20.0071 32.5403 20.1205 32.4906C20.2339 32.4409 20.3235 32.349 20.3703 32.2344C20.9937 30.6343 21.8043 29.1137 22.7853 27.7044H30.1353C30.2116 28.1163 30.3853 28.5041 30.642 28.8351C30.8987 29.1662 31.231 29.4311 31.6109 29.6075C30.8894 32.8668 30.5167 36.1937 30.4991 39.5319H18.9228C18.9482 38.261 19.0856 36.9949 19.3334 35.7481C19.3456 35.6873 19.3456 35.6246 19.3333 35.5637C19.3209 35.5029 19.2966 35.4451 19.2617 35.3938C19.2268 35.3424 19.182 35.2986 19.1299 35.2648C19.0778 35.231 19.0195 35.2079 18.9584 35.1969C18.839 35.1778 18.7168 35.205 18.6168 35.2729C18.5168 35.3409 18.4465 35.4445 18.4203 35.5625ZM23.4959 53.2344H32.3797C33.2816 56.0469 34.7947 59.39 37.1366 61.1731C31.7419 60.3683 26.8606 57.5273 23.4959 53.2344ZM40.3334 61.4075C36.8459 61.4075 34.4741 56.5475 33.3772 53.2344H37.7628C37.8724 53.8371 38.19 54.3821 38.6603 54.7746C39.1306 55.1671 39.7237 55.3821 40.3363 55.3821C40.9488 55.3821 41.5419 55.1671 42.0122 54.7746C42.4825 54.3821 42.8001 53.8371 42.9097 53.2344H47.2953C46.1966 56.5513 43.8284 61.4075 40.3391 61.4075H40.3334ZM38.6459 52.7675C38.6459 52.4337 38.7449 52.1075 38.9303 51.83C39.1158 51.5525 39.3793 51.3362 39.6877 51.2085C39.996 51.0807 40.3353 51.0473 40.6627 51.1124C40.99 51.1775 41.2907 51.3383 41.5267 51.5743C41.7627 51.8103 41.9234 52.1109 41.9885 52.4383C42.0536 52.7656 42.0202 53.1049 41.8925 53.4133C41.7648 53.7216 41.5485 53.9852 41.271 54.1706C40.9935 54.356 40.6672 54.455 40.3334 54.455C39.8859 54.455 39.4567 54.2772 39.1402 53.9607C38.8237 53.6443 38.6459 53.2151 38.6459 52.7675ZM43.5209 61.1731C45.8609 59.39 47.3759 56.0506 48.2778 53.2344H57.1522C53.7895 57.5248 48.912 60.3654 43.5209 61.1731ZM61.7253 39.5319H59.2034C59.095 38.9286 58.7779 38.3826 58.3077 37.9893C57.8374 37.5961 57.2439 37.3807 56.6309 37.3807C56.0179 37.3807 55.4245 37.5961 54.9542 37.9893C54.484 38.3826 54.1669 38.9286 54.0584 39.5319H50.1491C50.1116 35.2888 49.5622 31.2238 48.5516 27.7044H57.8516C60.2942 31.172 61.6433 35.2911 61.7253 39.5319ZM58.3109 40.0006C58.3109 40.3344 58.212 40.6606 58.0265 40.9382C57.8411 41.2157 57.5776 41.4319 57.2692 41.5597C56.9609 41.6874 56.6216 41.7208 56.2942 41.6557C55.9669 41.5906 55.6662 41.4299 55.4302 41.1939C55.1942 40.9579 55.0335 40.6572 54.9684 40.3298C54.9033 40.0025 54.9367 39.6632 55.0644 39.3548C55.1921 39.0465 55.4084 38.7829 55.6859 38.5975C55.9634 38.4121 56.2897 38.3131 56.6234 38.3131C57.071 38.3131 57.5002 38.4909 57.8167 38.8074C58.1331 39.1239 58.3109 39.5531 58.3109 40.0006ZM57.1503 26.7669H48.2684C47.3666 23.9544 45.8516 20.6131 43.5116 18.83C48.9053 19.6348 53.7858 22.475 57.1503 26.7669ZM40.3334 18.5938C43.8228 18.5938 46.1891 23.4575 47.2859 26.765H35.2859C35.2176 26.3943 35.0701 26.0426 34.8537 25.7339C34.6372 25.4253 34.3568 25.1668 34.0316 24.9763C35.1678 22.2181 37.3334 18.5938 40.3334 18.5938ZM30.1353 26.7669H23.4772C26.8369 22.4611 31.7286 19.618 37.1328 18.83C35.3141 20.2138 34.0109 22.5519 33.1447 24.6575C32.4664 24.5418 31.7698 24.6984 31.2063 25.0934C30.6428 25.4884 30.2579 26.0897 30.1353 26.7669ZM31.0278 27.2356C31.0278 26.9019 31.1268 26.5756 31.3122 26.2981C31.4976 26.0206 31.7612 25.8043 32.0695 25.6766C32.3779 25.5489 32.7172 25.5154 33.0445 25.5806C33.3719 25.6457 33.6726 25.8064 33.9086 26.0424C34.1446 26.2784 34.3053 26.5791 34.3704 26.9064C34.4355 27.2338 34.4021 27.5731 34.2744 27.8814C34.1466 28.1898 33.9303 28.4533 33.6528 28.6387C33.3753 28.8242 33.0491 28.9231 32.7153 28.9231C32.2678 28.9231 31.8385 28.7453 31.5221 28.4289C31.2056 28.1124 31.0278 27.6832 31.0278 27.2356ZM35.3234 39.5319H31.4366C31.4538 36.2727 31.8165 33.0246 32.5184 29.8419C33.1614 29.8893 33.7993 29.6972 34.3092 29.3026C34.819 28.908 35.165 28.3387 35.2803 27.7044H47.5747C48.6097 31.1994 49.1741 35.27 49.2134 39.5319H39.0734C38.9491 39.5319 38.8299 39.5813 38.742 39.6692C38.6541 39.7571 38.6047 39.8763 38.6047 40.0006C38.6047 40.1249 38.6541 40.2442 38.742 40.3321C38.8299 40.42 38.9491 40.4694 39.0734 40.4694H49.2097C49.1947 42.1231 49.1028 43.7619 48.9303 45.3444C48.9169 45.4687 48.9534 45.5933 49.0318 45.6907C49.1102 45.7881 49.2241 45.8503 49.3484 45.8638C49.4728 45.8772 49.5973 45.8407 49.6947 45.7623C49.7921 45.6838 49.8544 45.5699 49.8678 45.4456C50.0441 43.8256 50.1359 42.1513 50.1528 40.4656H54.0659C54.1755 41.0678 54.4929 41.6125 54.9628 42.0047C55.4327 42.3969 56.0254 42.6117 56.6375 42.6117C57.2496 42.6117 57.8423 42.3969 58.3122 42.0047C58.7821 41.6125 59.0995 41.0678 59.2091 40.4656H61.7309C61.6492 44.707 60.3001 48.8268 57.8572 52.295H48.5497C48.8328 51.3106 49.0841 50.2719 49.2997 49.1919C49.312 49.1314 49.3123 49.0691 49.3005 49.0086C49.2888 48.948 49.2652 48.8904 49.2312 48.8389C49.1971 48.7875 49.1533 48.7432 49.1021 48.7087C49.051 48.6742 48.9936 48.6501 48.9331 48.6378C48.8727 48.6255 48.8104 48.6252 48.7498 48.637C48.6893 48.6487 48.6316 48.6723 48.5802 48.7063C48.5287 48.7404 48.4845 48.7842 48.45 48.8354C48.4155 48.8865 48.3914 48.9439 48.3791 49.0044C48.1541 50.15 47.8822 51.2544 47.5747 52.2875H42.8966C42.7881 51.6842 42.471 51.1382 42.0008 50.745C41.5305 50.3517 40.9371 50.1363 40.3241 50.1363C39.7111 50.1363 39.1176 50.3517 38.6474 50.745C38.1771 51.1382 37.86 51.6842 37.7516 52.2875H33.0641C32.0272 48.7925 31.4628 44.7219 31.4253 40.4581H35.3141C35.4384 40.4581 35.5576 40.4087 35.6455 40.3208C35.7334 40.2329 35.7828 40.1137 35.7828 39.9894C35.7828 39.8651 35.7334 39.7458 35.6455 39.6579C35.5576 39.57 35.4384 39.5206 35.3141 39.5206L35.3234 39.5319ZM30.4972 40.4694C30.5366 44.7144 31.0841 48.7794 32.0947 52.2988H22.7966C20.3528 48.831 19.0036 44.7109 18.9228 40.4694H30.4972Z" fill="#333333"/>
</g>
<defs>
<clipPath id="clip0_10962_3337">
<rect width="80" height="80" fill="white" transform="translate(0.333252)"/>
</clipPath>
</defs>
</svg>
