<svg width="81" height="80" viewBox="0 0 81 80" fill="none" xmlns="http://www.w3.org/2000/svg">
<g clip-path="url(#clip0_10989_3653)">
<circle cx="40.5" cy="40" r="40" fill="#D5E6FB"/>
<path d="M49.5794 33.2246L43.6669 40.5308C43.8278 40.9484 43.917 41.4014 43.917 41.875C43.917 43.9427 42.2347 45.625 40.167 45.625C38.0992 45.625 36.417 43.9427 36.417 41.875C36.417 39.8073 38.0992 38.125 40.167 38.125C40.3661 38.125 40.5616 38.1409 40.7525 38.171L46.6644 30.8656C47.316 30.0605 48.4967 29.9363 49.3014 30.5876C50.1065 31.2389 50.2309 32.4196 49.5794 33.2246ZM55.8117 26.2303C52.078 22.4966 47.2446 20.2632 42.042 19.8294V17.875C42.042 16.8394 41.2026 16 40.167 16C39.1314 16 38.292 16.8394 38.292 17.875V19.8294C33.0894 20.2632 28.256 22.4965 24.5223 26.2302C20.3434 30.4091 18.042 35.9652 18.042 41.875C18.042 47.7848 20.3434 53.3409 24.5223 57.5197C28.7011 61.6986 34.2572 64 40.167 64C44.9252 64 49.4593 62.5123 53.2792 59.6974C54.113 59.0832 54.2907 57.9094 53.6765 57.0757C53.0621 56.2419 51.8883 56.0643 51.0546 56.6785C47.8838 59.015 44.1189 60.25 40.167 60.25C30.035 60.25 21.792 52.007 21.792 41.875C21.792 31.743 30.035 23.5 40.167 23.5C50.299 23.5 58.542 31.743 58.542 41.875C58.542 44.9697 57.7588 48.0286 56.2769 50.7209C55.7776 51.6281 56.1082 52.7683 57.0155 53.2676C57.9224 53.7667 59.0628 53.4363 59.5622 52.529C61.348 49.2843 62.292 45.6002 62.292 41.875C62.292 35.9652 59.9906 30.4091 55.8117 26.2303ZM52.902 20.5816L57.9932 24.8272C58.3437 25.1196 58.7695 25.2623 59.193 25.2623C59.7301 25.2623 60.2631 25.0328 60.634 24.5882C61.2972 23.7929 61.1901 22.6105 60.3948 21.9473L55.3036 17.7016C54.5085 17.0384 53.326 17.1453 52.6627 17.9407C51.9996 18.736 52.1066 19.9183 52.902 20.5816ZM21.1411 25.2622C21.5645 25.2622 21.9904 25.1195 22.3409 24.8271L27.432 20.5816C28.2273 19.9184 28.3344 18.736 27.6712 17.9407C27.0081 17.1455 25.8257 17.0384 25.0304 17.7016L19.9392 21.9472C19.1439 22.6104 19.0368 23.7928 19.7 24.5881C20.0709 25.0327 20.604 25.2622 21.1411 25.2622Z" fill="url(#paint0_linear_10989_3653)"/>
</g>
<defs>
<linearGradient id="paint0_linear_10989_3653" x1="40.167" y1="16" x2="40.167" y2="64" gradientUnits="userSpaceOnUse">
<stop stop-color="#002576"/>
<stop offset="1" stop-color="#33ADF8"/>
</linearGradient>
<clipPath id="clip0_10989_3653">
<rect width="80" height="80" fill="white" transform="translate(0.5)"/>
</clipPath>
</defs>
</svg>
