<svg xmlns="http://www.w3.org/2000/svg" xmlns:xlink="http://www.w3.org/1999/xlink" version="1.1" style="enable-background:new 0 0 310 310;" xml:space="preserve" width="310" height="310"><rect id="backgroundrect" width="100%" height="100%" x="0" y="0" fill="none" stroke="none"/>
















<g class="currentLayer" style=""><title>Layer 1</title><g id="XMLID_826_" class="selected" fill="#ffffff" fill-opacity="1">
	<path id="XMLID_827_" d="M302.39496530103685,57.388 c-4.87,2.16 -9.877,3.983 -14.993,5.463 c6.057,-6.85 10.675,-14.91 13.494,-23.73 c0.6320000000000001,-1.9769999999999999 -0.023000000000000007,-4.141 -1.6480000000000001,-5.434 c-1.6230000000000002,-1.294 -3.878,-1.449 -5.665,-0.39000000000000007 c-10.865,6.444 -22.587,11.075 -34.878,13.783 c-12.381,-12.098 -29.197,-18.983 -46.581,-18.983 c-36.695,0 -66.549,29.853 -66.549,66.547 c0,2.89 0.18300000000000002,5.764 0.545,8.598 C100.58496530103683,99.244 58.25196530103683,76.863 29.181965301036836,41.204 c-1.036,-1.271 -2.632,-1.956 -4.266,-1.8250000000000002 c-1.6350000000000002,0.128 -3.104,1.05 -3.93,2.467 c-5.896,10.117 -9.013,21.688 -9.013,33.461 c0,16.035 5.725,31.249 15.838000000000001,43.137 c-3.075,-1.065 -6.059,-2.396 -8.907,-3.977 c-1.529,-0.8510000000000001 -3.395,-0.8380000000000001 -4.914,0.03300000000000001 c-1.52,0.8710000000000001 -2.473,2.473 -2.513,4.224 c-0.007000000000000002,0.29500000000000004 -0.007000000000000002,0.5900000000000001 -0.007000000000000002,0.8890000000000001 c0,23.935 12.882,45.484 32.577,57.229 c-1.6920000000000002,-0.16900000000000004 -3.383,-0.41400000000000003 -5.063,-0.7350000000000001 c-1.7320000000000002,-0.33100000000000007 -3.513,0.276 -4.681,1.597 c-1.17,1.32 -1.557,3.16 -1.018,4.84 c7.29,22.76 26.059,39.501 48.749,44.605 c-18.819,11.787 -40.34,17.961 -62.932,17.961 c-4.714,0 -9.455,-0.277 -14.095,-0.8260000000000001 c-2.305,-0.274 -4.509,1.087 -5.2940000000000005,3.279 c-0.785,2.193 0.04700000000000001,4.638 2.008,5.8950000000000005 c29.023,18.609 62.582,28.445 97.047,28.445 c67.754,0 110.139,-31.95 133.764,-58.753 c29.46,-33.421 46.356,-77.658 46.356,-121.367 c0,-1.826 -0.028000000000000004,-3.67 -0.08400000000000002,-5.508 c11.623,-8.757 21.63,-19.355 29.773,-31.536 c1.237,-1.85 1.103,-4.295 -0.33000000000000007,-5.998 C306.81596530103684,57.037 304.43096530103685,56.486 302.39496530103685,57.388 z" fill="#ffffff" fill-opacity="1"/>
</g><g id="svg_1">
</g><g id="svg_2">
</g><g id="svg_3">
</g><g id="svg_4">
</g><g id="svg_5">
</g><g id="svg_6">
</g><g id="svg_7">
</g><g id="svg_8">
</g><g id="svg_9">
</g><g id="svg_10">
</g><g id="svg_11">
</g><g id="svg_12">
</g><g id="svg_13">
</g><g id="svg_14">
</g><g id="svg_15">
</g></g></svg>