<svg xmlns="http://www.w3.org/2000/svg" xmlns:xlink="http://www.w3.org/1999/xlink" version="1.1" style="" xml:space="preserve" width="310" height="310"><rect id="backgroundrect" width="100%" height="100%" x="0" y="0" fill="none" stroke="none"/>
















<g class="currentLayer" style=""><title>Layer 1</title><g id="XMLID_822_" class="selected" fill="#ffffff" fill-opacity="1">
	<path id="XMLID_823_" d="M297.917,65.22303469896316 c-11.19,-13.302 -31.85,-18.728 -71.306,-18.728 H83.386 c-40.359,0 -61.369,5.776 -72.517,19.938 C0,80.24103469896316 0,100.58603469896316 0,128.74403469896316 v53.669 c0,54.551 12.896,82.248 83.386,82.248 h143.226 c34.216,0 53.176,-4.788 65.442,-16.527 C304.633,236.09603469896317 310,216.44103469896316 310,182.41303469896317 v-53.669 C310,99.04903469896317 309.159,78.58403469896317 297.917,65.22303469896316 zM199.021,162.98803469896316 l-65.038,33.991 c-1.454,0.7600000000000001 -3.044,1.137 -4.632,1.137 c-1.798,0 -3.592,-0.48400000000000004 -5.181,-1.4460000000000002 c-2.992,-1.8130000000000002 -4.819,-5.056 -4.819,-8.554 v-67.764 c0,-3.492 1.822,-6.732 4.808,-8.546 c2.987,-1.814 6.702,-1.9380000000000002 9.801,-0.32800000000000007 l65.038,33.772 c3.309,1.718 5.3870000000000005,5.134 5.392,8.861 C204.394,157.84103469896317 202.325,161.26203469896316 199.021,162.98803469896316 z" fill="#ffffff" fill-opacity="1"/>
</g><g id="svg_1">
</g><g id="svg_2">
</g><g id="svg_3">
</g><g id="svg_4">
</g><g id="svg_5">
</g><g id="svg_6">
</g><g id="svg_7">
</g><g id="svg_8">
</g><g id="svg_9">
</g><g id="svg_10">
</g><g id="svg_11">
</g><g id="svg_12">
</g><g id="svg_13">
</g><g id="svg_14">
</g><g id="svg_15">
</g></g></svg>