<svg width="24" height="24" viewBox="0 0 24 24" fill="none" xmlns="http://www.w3.org/2000/svg">
<path d="M22 11.0779V11.9979C21.9988 14.1543 21.3005 16.2526 20.0093 17.9797C18.7182 19.7069 16.9033 20.9704 14.8354 21.5818C12.7674 22.1932 10.5573 22.1198 8.53447 21.3725C6.51168 20.6252 4.78465 19.244 3.61096 17.435C2.43727 15.6259 1.87979 13.486 2.02168 11.3342C2.16356 9.18248 2.99721 7.13424 4.39828 5.49498C5.79935 3.85573 7.69279 2.71329 9.79619 2.23806C11.8996 1.76282 14.1003 1.98025 16.07 2.85791" stroke="url(#paint0_linear_10952_4670)" stroke-width="2" stroke-linecap="round" stroke-linejoin="round"/>
<path d="M22 4L12 14.01L9 11.01" stroke="url(#paint1_linear_10952_4670)" stroke-width="2" stroke-linecap="round" stroke-linejoin="round"/>
<defs>
<linearGradient id="paint0_linear_10952_4670" x1="12" y1="1.99219" x2="12" y2="21.9922" gradientUnits="userSpaceOnUse">
<stop stop-color="#002576"/>
<stop offset="1" stop-color="#33ADF8"/>
</linearGradient>
<linearGradient id="paint1_linear_10952_4670" x1="15.5" y1="4" x2="15.5" y2="14.01" gradientUnits="userSpaceOnUse">
<stop stop-color="#002576"/>
<stop offset="1" stop-color="#33ADF8"/>
</linearGradient>
</defs>
</svg>
