<svg width="1911" height="975" viewBox="0 0 1911 975" fill="none" xmlns="http://www.w3.org/2000/svg">
<g opacity="0.8">
<path d="M0 435.336L866.607 47.1496C878.964 41.6143 899.125 41.6143 911.483 47.1496L1142.24 150.516C1148.13 153.16 1151.41 156.645 1151.41 160.351C1151.41 164.058 1148.16 167.542 1142.24 170.186L944.544 258.726C932.154 264.261 912.025 264.261 899.635 258.726L875.015 247.705C869.123 245.061 865.842 241.552 865.842 237.87C865.842 234.163 869.091 230.679 875.015 228.035L992.987 175.203C999.198 172.41 1002.64 168.704 1002.64 164.725C1002.64 160.747 999.198 157.015 992.987 154.248L960.564 139.742C947.92 134.083 927.345 134.083 914.732 139.742L651.173 257.787C644.962 260.579 641.555 264.286 641.555 268.265C641.555 272.243 644.963 275.975 651.205 278.742L1030.7 448.73C1043.34 454.389 1063.92 454.389 1076.56 448.73L1631.71 200.013C1644.1 194.477 1664.23 194.477 1676.58 200.013L1911 305.01V304.145L1677.09 199.37C1664.45 193.711 1643.87 193.711 1631.23 199.37L1076.05 448.063C1063.66 453.598 1043.53 453.598 1031.18 448.063L651.651 278.075C645.759 275.431 642.478 271.947 642.478 268.24C642.478 264.533 645.727 261.049 651.651 258.405L915.21 140.36C927.599 134.825 947.729 134.825 960.086 140.36L992.51 154.865C998.402 157.509 1001.68 160.994 1001.68 164.7C1001.68 168.407 998.434 171.891 992.51 174.535L874.537 227.368C868.326 230.16 864.919 233.867 864.919 237.845C864.919 241.824 868.326 245.555 874.537 248.323L899.157 259.344C911.802 265.003 932.377 265.003 945.021 259.344L1142.71 170.804C1148.93 168.012 1152.36 164.305 1152.36 160.326C1152.36 156.348 1148.93 152.617 1142.71 149.849L911.961 46.4824C899.317 40.8236 878.741 40.8236 866.097 46.4824L0 434.472V435.336Z" fill="#583FD8"/>
<path d="M1911 902.378L1858.45 925.928C1846.09 931.488 1825.93 931.463 1813.57 925.928L1656.71 855.674C1644.07 850.015 1623.49 850.015 1610.85 855.674L1038.6 1112H1040.51L1611.32 856.316C1623.71 850.756 1643.84 850.781 1656.2 856.316L1813.06 926.57C1825.71 932.229 1846.28 932.229 1858.93 926.57L1911 903.243V902.378Z" fill="#583FD8"/>
<path d="M424.752 794.167C437.396 799.825 457.971 799.825 470.616 794.167L806.346 643.775C818.736 638.239 838.865 638.239 851.223 643.775L1276.42 834.223C1282.31 836.867 1285.59 840.376 1285.59 844.058C1285.59 847.765 1282.34 851.249 1276.42 853.893L919.287 1013.9C906.897 1019.43 886.768 1019.43 874.41 1013.9L826.444 992.424C820.552 989.78 817.271 986.295 817.271 982.589C817.271 978.882 820.52 975.398 826.444 972.754L1074.68 861.554C1080.89 858.761 1084.33 855.055 1084.33 851.076C1084.33 847.098 1080.89 843.366 1074.68 840.599L845.872 738.122C833.228 732.463 812.653 732.463 800.008 738.122L546.578 851.645L547.056 852.287L800.486 738.764C812.876 733.229 833.005 733.229 845.363 738.764L1074.17 841.241C1080.07 843.885 1083.35 847.394 1083.35 851.076C1083.35 854.758 1080.1 858.267 1074.17 860.911L825.934 972.111C819.724 974.904 816.316 978.61 816.316 982.589C816.316 986.567 819.724 990.299 825.934 993.066L873.9 1014.54C886.545 1020.2 907.12 1020.2 919.764 1014.54L1276.9 854.56C1283.11 851.768 1286.52 848.061 1286.52 844.083C1286.52 840.104 1283.11 836.373 1276.87 833.605L851.669 643.157C839.025 637.498 818.449 637.498 805.805 643.157L470.074 793.549C457.685 799.084 437.555 799.084 425.198 793.549L0 603.051V603.916L424.752 794.167Z" fill="#583FD8"/>
<path d="M1617.82 511.968L1790.22 434.746C1802.58 429.211 1822.74 429.211 1835.1 434.746L1911 468.748V467.884L1835.58 434.104C1822.93 428.445 1802.36 428.445 1789.72 434.104L1617.31 511.326C1611.1 514.118 1607.69 517.825 1607.69 521.803C1607.69 525.782 1611.1 529.513 1617.34 532.281L1783.92 606.908C1789.81 609.552 1793.09 613.061 1793.09 616.743C1793.09 620.425 1789.84 623.934 1783.92 626.578L1465.67 769.137C1453.32 774.672 1433.15 774.672 1420.8 769.137L684.488 439.318C671.844 433.659 651.269 433.659 638.624 439.318L289.294 595.813C276.904 601.348 256.775 601.348 244.417 595.813L0 486.343V487.208L243.907 596.48C256.552 602.139 277.127 602.139 289.739 596.48L639.07 439.985C651.46 434.449 671.589 434.449 683.947 439.985L1420.26 769.804C1432.9 775.463 1453.47 775.463 1466.09 769.804L1784.33 627.246C1790.54 624.453 1793.98 620.747 1793.98 616.768C1793.98 612.79 1790.54 609.058 1784.33 606.291L1617.76 531.663C1611.86 529.019 1608.58 525.51 1608.58 521.828C1608.65 518.121 1611.9 514.612 1617.82 511.968Z" fill="#583FD8"/>
<path d="M883.423 1112L0 716.277V717.118L881.512 1112H883.423Z" fill="#583FD8"/>
<path d="M44.1123 103.762L275.725 0H273.814L43.6346 103.119C37.4238 105.912 34.0159 109.618 34.0159 113.597C34.0159 117.575 37.4238 121.307 43.6346 124.074L208.267 197.812C220.912 203.471 241.487 203.471 254.131 197.812L695.731 0H693.82L253.622 197.17C241.232 202.705 221.103 202.705 208.745 197.17L44.1123 123.432C38.2201 120.788 34.9395 117.304 34.9395 113.597C34.9395 109.89 38.1882 106.406 44.1123 103.762Z" fill="#583FD8"/>
<path d="M471.921 1067.59C459.277 1061.94 438.702 1061.94 426.057 1067.59L339.202 1106.49C326.813 1112.03 306.684 1112.03 294.326 1106.49L0 974.656V975.521L293.848 1107.16C306.493 1112.82 327.068 1112.82 339.712 1107.16L426.567 1068.26C438.957 1062.73 459.086 1062.73 471.444 1068.26L569.128 1112H571.039L471.921 1067.59Z" fill="#583FD8"/>
<path d="M99.149 860.317C99.149 856.338 95.7411 852.607 89.4985 849.839L0 809.758V810.623L89.0207 850.506C94.913 853.151 98.1935 856.66 98.1935 860.341C98.1935 864.048 94.9448 867.532 89.0207 870.177L0 910.035V910.9L89.4985 870.819C95.7092 868.027 99.149 864.295 99.149 860.317Z" fill="#583FD8"/>
<path d="M1451.79 0L1911 205.695V204.855L1453.7 0H1451.79Z" fill="#583FD8"/>
<path d="M1470.45 116.661L1209.98 0H1208.07L1469.97 117.304C1475.87 119.948 1479.15 123.432 1479.15 127.139C1479.15 130.845 1475.9 134.33 1469.97 136.974L1013.05 341.656L1013.53 342.298L1470.45 137.641C1476.66 134.849 1480.1 131.142 1480.1 127.163C1480.1 123.185 1476.66 119.454 1470.45 116.661Z" fill="#583FD8"/>
<path d="M1211.83 597.217C1203.52 597.217 1195.23 595.809 1188.9 592.967L555.655 309.308C543.265 303.773 523.136 303.773 510.778 309.308L145.873 472.772C139.981 475.416 136.7 478.901 136.7 482.607C136.7 486.314 139.949 489.798 145.873 492.442L184.125 509.567C196.514 515.102 216.644 515.102 229.001 509.567L550.464 365.575L550.941 366.218L229.479 510.21C216.835 515.868 196.26 515.868 183.615 510.21L145.363 493.085C139.153 490.292 135.745 486.586 135.745 482.607C135.745 478.629 139.153 474.897 145.363 472.13L510.269 308.666C522.913 303.007 543.488 303.007 556.133 308.666L1189.37 592.325C1201.76 597.86 1221.89 597.86 1234.25 592.325L1762.48 355.716C1768.38 353.072 1771.66 349.587 1771.66 345.881C1771.66 342.174 1768.41 338.69 1762.48 336.046L1610.18 267.818L1610.65 267.176L1762.96 335.403C1769.17 338.195 1772.61 341.902 1772.61 345.881C1772.61 349.859 1769.17 353.591 1762.96 356.358L1234.73 592.967C1228.45 595.809 1220.14 597.217 1211.83 597.217Z" fill="#583FD8"/>
</g>
</svg>
