<svg width="622" height="578" viewBox="0 0 622 578" fill="none" xmlns="http://www.w3.org/2000/svg">
<path d="M94.9612 380.138C92.5418 380.138 90.1402 379.493 88.0612 378.292L8.57711 332.394C7.32257 331.677 6.58777 330.369 6.58777 328.935C6.58777 327.501 7.34049 326.193 8.57711 325.476L152.401 242.443C152.652 242.3 152.957 242.3 153.208 242.443L153.871 242.82L239.18 292.087C240.434 292.804 241.169 294.095 241.169 295.546C241.169 296.998 240.416 298.288 239.18 299.005L101.861 378.292C99.7823 379.493 97.3986 380.138 94.9612 380.138ZM152.796 244.056L9.36569 326.856C8.61296 327.286 8.16491 328.075 8.16491 328.935C8.16491 329.795 8.61296 330.584 9.36569 331.014L88.8498 376.912C92.5418 379.045 97.3628 379.045 101.055 376.912L238.373 297.625C239.126 297.195 239.574 296.425 239.574 295.546C239.574 294.686 239.126 293.898 238.373 293.467L152.796 244.056Z" fill="#42E8E0"/>
<path d="M249.502 269.791L241.151 274.146L157.491 225.846C156.093 225.04 153.637 225.147 152.024 226.079L7.7164 309.399C6.3364 308.628 0.0457764 305.599 0.0457764 305.599L3.09251 313.557C3.09251 313.557 3.11043 313.557 3.11043 313.539C3.23588 313.897 3.5047 314.22 3.97068 314.489L92.0932 365.369C93.4911 366.176 95.9465 366.068 97.5595 365.136L245.219 279.881C245.882 279.505 246.294 279.039 246.456 278.573H246.474L249.502 269.791Z" fill="url(#paint0_linear_10950_4147)"/>
<path d="M248.212 271.166L96.8787 358.536C95.2299 359.486 92.7208 359.593 91.287 358.769L0.977971 306.634C-0.45579 305.809 -0.276568 304.358 1.37226 303.408L152.706 216.038C154.355 215.088 156.864 214.981 158.297 215.805L248.607 267.94C250.04 268.765 249.861 270.198 248.212 271.166Z" fill="url(#paint1_linear_10950_4147)"/>
<path d="M248.212 270.29L96.8784 357.66C95.2296 358.61 92.7205 358.717 91.2867 357.893L0.977657 305.758C0.511684 305.489 0.22495 305.148 0.0994955 304.79C-0.133491 305.471 0.153244 306.152 0.977657 306.636L91.2867 358.771C92.7205 359.596 95.2296 359.488 96.8784 358.538L248.212 271.168C249.323 270.523 249.753 269.663 249.484 268.91C249.323 269.394 248.893 269.896 248.212 270.29Z" fill="white"/>
<path d="M51.2137 339.625V337.959C51.2137 337.797 51.3033 337.726 51.4288 337.797L57.2893 341.185C57.4148 341.256 57.5044 341.435 57.5044 341.597V343.264C57.5044 343.425 57.4148 343.497 57.2893 343.425L51.4288 340.038C51.3213 339.966 51.2137 339.787 51.2137 339.625Z" fill="#2842A2"/>
<path d="M59.9769 344.68V343.013C59.9769 342.852 60.0665 342.78 60.192 342.852L66.0525 346.239C66.1779 346.311 66.2675 346.49 66.2675 346.651V348.318C66.2675 348.479 66.1779 348.551 66.0525 348.48L60.192 345.092C60.0665 345.021 59.9769 344.841 59.9769 344.68Z" fill="#2842A2"/>
<path d="M51.8765 318.481L177.635 245.879C178.478 245.395 179.499 245.395 180.342 245.879L225.129 271.794C225.774 272.17 225.774 273.102 225.129 273.461L99.4236 346.027C98.5812 346.511 97.5597 346.511 96.7174 346.027L51.8765 320.147C51.2313 319.789 51.2313 318.857 51.8765 318.481Z" fill="#ADB1F2"/>
<path d="M51.8765 320.147L52.3245 320.416L177.635 248.065C178.478 247.581 179.499 247.581 180.342 248.065L224.681 273.711L225.129 273.461C225.774 273.084 225.774 272.152 225.129 271.794L180.342 245.879C179.499 245.395 178.478 245.395 177.635 245.879L51.8765 318.481C51.2313 318.857 51.2313 319.789 51.8765 320.147Z" fill="#9198DB"/>
<path d="M183.729 252.439L67.8807 319.324L62.1456 317.03L178.872 249.625L183.729 252.439Z" fill="#24126A"/>
<path d="M195.628 259.322L93.1679 318.464L88.311 315.668L190.771 256.508L195.628 259.322Z" fill="#24126A"/>
<path d="M203.389 263.784L82.7558 333.447L77.8989 330.633L198.532 260.988L203.389 263.784Z" fill="#24126A"/>
<path d="M211.149 268.265L90.5159 337.927L85.6411 335.114L206.292 265.469L211.149 268.265Z" fill="#24126A"/>
<path d="M218.909 272.745L98.2582 342.408L93.4014 339.594L214.052 269.949L218.909 272.745Z" fill="#24126A"/>
<path d="M67.8803 319.325L63.0234 322.121L58.1665 319.325L63.0234 316.512L67.8803 319.325Z" fill="#24126A"/>
<path d="M99.0644 315.078L74.9413 329.003L70.0845 326.189L94.3867 312.156L99.0644 315.078Z" fill="#24126A"/>
<path d="M96.646 285.951L130.554 266.38C131.881 265.61 131.881 264.373 130.554 263.602L107.363 250.215C106.037 249.444 103.886 249.444 102.56 250.215L68.6518 269.786C67.3255 270.556 67.3255 271.793 68.6518 272.563L91.8429 285.951C93.1691 286.704 95.3197 286.704 96.646 285.951Z" fill="url(#paint2_linear_10950_4147)"/>
<path d="M68.6697 270.915L102.578 251.344C103.904 250.573 106.055 250.573 107.381 251.344L130.572 264.732C130.985 264.965 131.253 265.251 131.397 265.556C131.755 264.893 131.486 264.14 130.572 263.602L107.381 250.215C106.055 249.444 103.904 249.444 102.578 250.215L68.6697 269.786C67.7557 270.323 67.4869 271.076 67.8453 271.739C67.9887 271.434 68.2575 271.148 68.6697 270.915Z" fill="#9198DB"/>
<path d="M249.252 267.557L230.129 154.057L231.671 153.412L229.359 152.085V152.103C228.911 151.799 228.283 151.817 227.584 152.229L74.6916 240.495C73.4371 241.212 72.4872 243.075 72.7022 244.384L91.9864 358.78C92.0939 359.371 92.3807 359.766 92.7929 359.945L95.051 361.253L95.4453 359.138L95.3199 359.174L247.281 271.428C248.517 270.711 249.467 268.865 249.252 267.557Z" fill="url(#paint3_linear_10950_4147)"/>
<path d="M75.5339 243.596L73.0248 242.484C72.7381 243.13 72.6126 243.811 72.7022 244.384L91.9863 358.78C92.0939 359.372 92.3806 359.766 92.7928 359.945L95.051 361.254L95.4453 359.139L95.3198 359.175L103.008 354.73L75.5339 243.596Z" fill="url(#paint4_linear_10950_4147)"/>
<path d="M249.664 272.807L96.7717 361.073C95.5888 361.754 94.5852 361.36 94.3701 360.141L75.086 245.745C74.871 244.436 75.8208 242.59 77.0754 241.856L229.968 153.59C231.151 152.909 232.155 153.303 232.37 154.522L251.654 268.918C251.869 270.226 250.919 272.09 249.664 272.807Z" fill="#453C9E"/>
<path d="M526.202 380.138C523.764 380.138 521.381 379.493 519.302 378.292L381.983 299.005C380.729 298.288 379.994 296.998 379.994 295.546C379.994 294.095 380.747 292.804 381.983 292.087L467.973 242.443C468.224 242.3 468.529 242.3 468.78 242.443L612.604 325.476C613.858 326.193 614.593 327.501 614.593 328.935C614.593 330.369 613.84 331.677 612.604 332.394L533.102 378.292C531.023 379.493 528.639 380.138 526.202 380.138ZM468.367 244.056L468.099 244.218L382.772 293.485C382.019 293.915 381.571 294.686 381.571 295.564C381.571 296.425 382.019 297.213 382.772 297.643L520.09 376.93C523.782 379.063 528.603 379.063 532.295 376.93L611.779 331.032C612.532 330.602 612.98 329.813 612.98 328.953C612.98 328.093 612.532 327.304 611.779 326.874L468.367 244.056Z" fill="#42E8E0"/>
<path d="M371.678 269.791L380.03 274.146L463.69 225.846C465.088 225.04 467.543 225.147 469.156 226.079L613.464 309.399C614.844 308.628 621.135 305.599 621.135 305.599L618.088 313.557C618.088 313.557 618.07 313.557 618.07 313.539C617.945 313.897 617.676 314.22 617.21 314.489L529.087 365.369C527.689 366.176 525.234 366.068 523.621 365.136L375.961 279.881C375.298 279.505 374.886 279.039 374.725 278.573H374.707L371.678 269.791Z" fill="url(#paint5_linear_10950_4147)"/>
<path d="M372.969 271.166L524.302 358.536C525.951 359.486 528.46 359.593 529.894 358.769L620.203 306.634C621.637 305.809 621.457 304.358 619.809 303.408L468.475 216.038C466.826 215.088 464.317 214.981 462.883 215.805L372.574 267.94C371.123 268.765 371.302 270.198 372.969 271.166Z" fill="url(#paint6_linear_10950_4147)"/>
<path d="M372.969 270.29L524.302 357.66C525.951 358.61 528.46 358.717 529.894 357.893L620.203 305.758C620.669 305.489 620.956 305.148 621.081 304.79C621.314 305.471 621.027 306.152 620.203 306.636L529.894 358.771C528.46 359.596 525.951 359.488 524.302 358.538L372.969 271.168C371.857 270.523 371.427 269.663 371.696 268.91C371.858 269.394 372.27 269.896 372.969 270.29Z" fill="white"/>
<path d="M569.949 339.625V337.959C569.949 337.797 569.86 337.726 569.734 337.797L563.874 341.185C563.748 341.256 563.659 341.435 563.659 341.597V343.264C563.659 343.425 563.748 343.497 563.874 343.425L569.734 340.038C569.86 339.966 569.949 339.787 569.949 339.625Z" fill="#2842A2"/>
<path d="M561.204 344.68V343.013C561.204 342.852 561.114 342.78 560.989 342.852L555.128 346.239C555.003 346.311 554.913 346.49 554.913 346.651V348.318C554.913 348.479 555.003 348.551 555.128 348.48L560.989 345.092C561.096 345.021 561.204 344.841 561.204 344.68Z" fill="#2842A2"/>
<path d="M569.287 318.481L443.528 245.879C442.685 245.395 441.664 245.395 440.822 245.879L396.034 271.794C395.389 272.17 395.389 273.102 396.034 273.461L521.739 346.027C522.582 346.511 523.603 346.511 524.446 346.027L569.287 320.147C569.932 319.789 569.932 318.857 569.287 318.481Z" fill="#ADB1F2"/>
<path d="M569.287 320.147L568.839 320.416L443.528 248.065C442.685 247.581 441.664 247.581 440.822 248.065L396.482 273.711L396.034 273.461C395.389 273.084 395.389 272.152 396.034 271.794L440.822 245.879C441.664 245.395 442.685 245.395 443.528 245.879L569.287 318.481C569.932 318.857 569.932 319.789 569.287 320.147Z" fill="#9198DB"/>
<path d="M437.434 252.439L553.282 319.324L559.017 317.03L442.291 249.625L437.434 252.439Z" fill="#24126A"/>
<path d="M425.534 259.322L527.994 318.464L532.851 315.668L430.391 256.508L425.534 259.322Z" fill="#24126A"/>
<path d="M417.774 263.784L538.425 333.447L543.282 330.633L422.631 260.988L417.774 263.784Z" fill="#24126A"/>
<path d="M410.013 268.265L530.664 337.927L535.521 335.114L414.87 265.469L410.013 268.265Z" fill="#24126A"/>
<path d="M402.271 272.745L522.904 342.408L527.761 339.594L407.128 269.949L402.271 272.745Z" fill="#24126A"/>
<path d="M553.282 319.325L558.139 322.121L562.996 319.325L558.139 316.512L553.282 319.325Z" fill="#24126A"/>
<path d="M522.098 315.078L546.239 329.003L551.095 326.189L526.793 312.156L522.098 315.078Z" fill="#24126A"/>
<path d="M524.517 285.951L490.609 266.38C489.283 265.61 489.283 264.373 490.609 263.602L513.8 250.215C515.126 249.444 517.277 249.444 518.603 250.215L552.511 269.786C553.838 270.556 553.838 271.793 552.511 272.563L529.32 285.951C527.994 286.704 525.844 286.704 524.517 285.951Z" fill="url(#paint7_linear_10950_4147)"/>
<path d="M552.511 270.915L518.603 251.344C517.276 250.573 515.126 250.573 513.799 251.344L490.608 264.732C490.196 264.965 489.927 265.251 489.784 265.556C489.425 264.893 489.694 264.14 490.608 263.602L513.799 250.215C515.126 249.444 517.276 249.444 518.603 250.215L552.511 269.786C553.425 270.323 553.694 271.076 553.335 271.739C553.174 271.434 552.923 271.148 552.511 270.915Z" fill="#9198DB"/>
<path d="M371.911 267.557L391.033 154.057L389.492 153.412L391.804 152.085V152.103C392.252 151.799 392.879 151.817 393.578 152.229L546.471 240.495C547.726 241.212 548.676 243.075 548.46 244.384L529.176 358.78C529.069 359.371 528.782 359.766 528.37 359.945L526.112 361.253L525.717 359.138L525.843 359.174L373.882 271.428C372.645 270.711 371.696 268.865 371.911 267.557Z" fill="url(#paint8_linear_10950_4147)"/>
<path d="M545.629 243.596L548.138 242.484C548.425 243.13 548.55 243.811 548.461 244.384L529.177 358.78C529.069 359.372 528.782 359.766 528.37 359.945L526.112 361.254L525.718 359.139L525.843 359.175L518.155 354.73L545.629 243.596Z" fill="url(#paint9_linear_10950_4147)"/>
<path d="M371.499 272.807L524.391 361.073C525.574 361.754 526.578 361.36 526.793 360.141L546.077 245.745C546.292 244.436 545.342 242.59 544.088 241.856L391.195 153.59C390.012 152.909 389.009 153.303 388.793 154.522L369.509 268.918C369.294 270.226 370.244 272.09 371.499 272.807Z" fill="#453C9E"/>
<path d="M310.582 407.51L168.228 325.319L310.582 243.129L452.937 325.319L310.582 407.51Z" fill="#BCBEFF"/>
<path d="M310.582 385.07L207.1 325.318L310.582 265.566L414.082 325.318L310.582 385.07Z" fill="#453C9E"/>
<path d="M310.582 269.617L410.569 327.344L414.082 325.318L310.582 265.566L207.1 325.318L210.595 327.344L310.582 269.617Z" fill="white"/>
<path d="M452.937 325.316V371.914L310.583 454.104V407.507L452.937 325.316Z" fill="url(#paint10_linear_10950_4147)"/>
<path d="M168.228 325.316V371.896L310.582 454.104V407.507L168.228 325.316Z" fill="#24126A"/>
<g opacity="0.51">
<path d="M177.869 346.254V360.914L300.94 431.975V417.315L177.869 346.254Z" fill="#453C9E"/>
</g>
<path d="M310.582 404.837L170.539 323.973L168.228 325.317L310.582 407.507L452.937 325.317L450.625 323.991L310.582 404.837Z" fill="white"/>
<path d="M431.592 357.969V366.303L331.945 423.832V415.498L431.592 357.969Z" fill="#453C9E"/>
<path opacity="0.51" d="M168.228 325.316V371.896L310.582 454.104V407.507L168.228 325.316Z" fill="#453C9E"/>
<path d="M269.021 405.038L243.249 390.145V393.227L269.021 408.102V405.038Z" fill="#42E8E0"/>
<path d="M239.539 388.032L232.55 384V387.083L239.521 391.115L239.539 388.032Z" fill="#42E8E0"/>
<path d="M206.814 369.157L192.53 360.895L192.512 363.977L206.814 372.221V369.157Z" fill="#42E8E0"/>
<path d="M219.861 376.687L209.52 370.719V373.783L219.843 379.751L219.861 376.687Z" fill="#42E8E0"/>
<path d="M229.539 382.275L222.567 378.242L222.549 381.307L229.539 385.339V382.275Z" fill="#42E8E0"/>
<path d="M310.725 286.086L306.209 283.47L310.725 280.871L315.26 283.47L310.725 286.086Z" fill="#42E8E0"/>
<path opacity="0.1" d="M319.776 291.301L315.259 288.685L319.776 286.086L324.292 288.685L319.776 291.301Z" fill="#42E8E0"/>
<path opacity="0.4" d="M328.808 296.516L324.292 293.917L328.808 291.301L333.343 293.917L328.808 296.516Z" fill="#42E8E0"/>
<path d="M337.86 301.753L333.343 299.136L337.86 296.52L342.376 299.136L337.86 301.753Z" fill="#42E8E0"/>
<path opacity="0.4" d="M346.892 306.961L342.376 304.345L346.892 301.746L351.409 304.345L346.892 306.961Z" fill="#42E8E0"/>
<path d="M355.943 312.18L351.409 309.564L355.943 306.965L360.459 309.564L355.943 312.18Z" fill="#42E8E0"/>
<path d="M364.975 317.395L360.459 314.796L364.975 312.18L369.492 314.796L364.975 317.395Z" fill="#42E8E0"/>
<path d="M374.026 322.628L369.492 320.011L374.026 317.395L378.542 320.011L374.026 322.628Z" fill="#42E8E0"/>
<path opacity="0.1" d="M383.058 327.844L378.542 325.228L383.058 322.629L387.575 325.228L383.058 327.844Z" fill="#42E8E0"/>
<path d="M301.657 291.321L297.141 288.722L301.657 286.105L306.174 288.722L301.657 291.321Z" fill="#42E8E0"/>
<path d="M310.69 296.554L306.174 293.937L310.69 291.32L315.224 293.937L310.69 296.554Z" fill="#42E8E0"/>
<path d="M319.74 301.766L315.224 299.149L319.74 296.551L324.257 299.149L319.74 301.766Z" fill="#42E8E0"/>
<path d="M328.773 306.981L324.257 304.364L328.773 301.766L333.289 304.364L328.773 306.981Z" fill="#42E8E0"/>
<path d="M337.824 312.196L333.289 309.597L337.824 306.98L342.34 309.597L337.824 312.196Z" fill="#42E8E0"/>
<path d="M346.857 317.432L342.341 314.816L346.857 312.199L351.373 314.816L346.857 317.432Z" fill="#42E8E0"/>
<path d="M355.908 322.649L351.373 320.032L355.908 317.434L360.424 320.032L355.908 322.649Z" fill="#42E8E0"/>
<path d="M364.94 327.864L360.424 325.247L364.94 322.648L369.456 325.247L364.94 327.864Z" fill="#42E8E0"/>
<path d="M373.991 333.079L369.456 330.48L373.991 327.863L378.507 330.48L373.991 333.079Z" fill="#42E8E0"/>
<path d="M292.571 296.573L288.055 293.956L292.571 291.34L297.106 293.956L292.571 296.573Z" fill="#42E8E0"/>
<path d="M301.622 301.793L297.105 299.177L301.622 296.578L306.138 299.177L301.622 301.793Z" fill="#42E8E0"/>
<path d="M310.654 307L306.138 304.402L310.654 301.785L315.171 304.402L310.654 307Z" fill="#42E8E0"/>
<path opacity="0.1" d="M319.705 312.215L315.171 309.617L319.705 307L324.221 309.617L319.705 312.215Z" fill="#42E8E0"/>
<path opacity="0.4" d="M328.738 317.448L324.222 314.831L328.738 312.215L333.255 314.831L328.738 317.448Z" fill="#42E8E0"/>
<path opacity="0.4" d="M337.789 322.668L333.255 320.052L337.789 317.453L342.305 320.052L337.789 322.668Z" fill="#42E8E0"/>
<path d="M346.821 327.883L342.305 325.285L346.821 322.668L351.338 325.285L346.821 327.883Z" fill="#42E8E0"/>
<path d="M355.872 333.098L351.338 330.499L355.872 327.883L360.388 330.499L355.872 333.098Z" fill="#42E8E0"/>
<path d="M364.904 338.331L360.388 335.714L364.904 333.098L369.421 335.714L364.904 338.331Z" fill="#42E8E0"/>
<path opacity="0.4" d="M283.502 301.801L278.986 299.203L283.502 296.586L288.019 299.203L283.502 301.801Z" fill="#42E8E0"/>
<path opacity="0.4" d="M292.535 307.016L288.019 304.417L292.535 301.801L297.069 304.417L292.535 307.016Z" fill="#42E8E0"/>
<path opacity="0.1" d="M301.585 312.249L297.069 309.632L301.585 307.016L306.102 309.632L301.585 312.249Z" fill="#42E8E0"/>
<path d="M310.618 317.461L306.102 314.845L310.618 312.246L315.134 314.845L310.618 317.461Z" fill="#42E8E0"/>
<path d="M319.669 322.676L315.134 320.078L319.669 317.461L324.185 320.078L319.669 322.676Z" fill="#42E8E0"/>
<path d="M328.702 327.895L324.186 325.296L328.702 322.68L333.218 325.296L328.702 327.895Z" fill="#42E8E0"/>
<path opacity="0.4" d="M337.753 333.128L333.218 330.511L337.753 327.895L342.269 330.511L337.753 333.128Z" fill="#42E8E0"/>
<path d="M346.785 338.344L342.269 335.728L346.785 333.129L351.301 335.728L346.785 338.344Z" fill="#42E8E0"/>
<path d="M355.836 343.559L351.301 340.96L355.836 338.344L360.352 340.96L355.836 343.559Z" fill="#42E8E0"/>
<path d="M274.416 307.057L269.9 304.441L274.416 301.824L278.951 304.441L274.416 307.057Z" fill="#42E8E0"/>
<path d="M283.467 312.278L278.95 309.661L283.467 307.062L287.983 309.661L283.467 312.278Z" fill="#42E8E0"/>
<path d="M292.499 317.485L287.983 314.868L292.499 312.27L297.016 314.868L292.499 317.485Z" fill="#42E8E0"/>
<path d="M301.55 322.7L297.016 320.101L301.55 317.484L306.067 320.101L301.55 322.7Z" fill="#42E8E0"/>
<path d="M310.583 327.932L306.067 325.316L310.583 322.699L315.1 325.316L310.583 327.932Z" fill="#42E8E0"/>
<path d="M319.633 333.153L315.099 330.536L319.633 327.938L324.15 330.536L319.633 333.153Z" fill="#42E8E0"/>
<path d="M328.666 338.368L324.15 335.751L328.666 333.152L333.183 335.751L328.666 338.368Z" fill="#42E8E0"/>
<path d="M337.717 343.583L333.183 340.984L337.717 338.367L342.233 340.984L337.717 343.583Z" fill="#42E8E0"/>
<path d="M346.749 348.815L342.233 346.199L346.749 343.582L351.266 346.199L346.749 348.815Z" fill="#42E8E0"/>
<path d="M265.347 312.29L260.831 309.673L265.347 307.074L269.864 309.673L265.347 312.29Z" fill="#42E8E0"/>
<path d="M274.38 317.504L269.864 314.906L274.38 312.289L278.896 314.906L274.38 317.504Z" fill="#42E8E0"/>
<path opacity="0.4" d="M283.43 322.737L278.914 320.121L283.43 317.504L287.946 320.121L283.43 322.737Z" fill="#42E8E0"/>
<path d="M292.463 327.95L287.947 325.333L292.463 322.734L296.979 325.333L292.463 327.95Z" fill="#42E8E0"/>
<path opacity="0.1" d="M301.514 333.165L296.979 330.548L301.514 327.949L306.03 330.548L301.514 333.165Z" fill="#42E8E0"/>
<path d="M310.547 338.383L306.031 335.785L310.547 333.168L315.063 335.785L310.547 338.383Z" fill="#42E8E0"/>
<path d="M319.598 343.616L315.063 340.999L319.598 338.383L324.114 340.999L319.598 343.616Z" fill="#42E8E0"/>
<path d="M328.63 348.833L324.114 346.216L328.63 343.617L333.146 346.216L328.63 348.833Z" fill="#42E8E0"/>
<path d="M337.681 354.047L333.146 351.431L337.681 348.832L342.197 351.431L337.681 354.047Z" fill="#42E8E0"/>
<path d="M256.26 317.52L251.744 314.921L256.26 312.305L260.794 314.921L256.26 317.52Z" fill="#42E8E0"/>
<path d="M265.311 322.753L260.794 320.136L265.311 317.52L269.827 320.136L265.311 322.753Z" fill="#42E8E0"/>
<path opacity="0.4" d="M274.343 327.965L269.827 325.349L274.343 322.75L278.86 325.349L274.343 327.965Z" fill="#42E8E0"/>
<path d="M283.394 333.18L278.86 330.581L283.394 327.965L287.91 330.581L283.394 333.18Z" fill="#42E8E0"/>
<path d="M292.427 338.395L287.911 335.796L292.427 333.18L296.944 335.796L292.427 338.395Z" fill="#42E8E0"/>
<path opacity="0.1" d="M301.478 343.632L296.944 341.015L301.478 338.398L305.994 341.015L301.478 343.632Z" fill="#42E8E0"/>
<path opacity="0.4" d="M310.51 348.848L305.994 346.231L310.51 343.633L315.027 346.231L310.51 348.848Z" fill="#42E8E0"/>
<path d="M319.561 354.063L315.027 351.464L319.561 348.848L324.077 351.464L319.561 354.063Z" fill="#42E8E0"/>
<path opacity="0.1" d="M328.593 359.278L324.077 356.679L328.593 354.062L333.11 356.679L328.593 359.278Z" fill="#42E8E0"/>
<path d="M247.192 322.77L242.676 320.153L247.192 317.555L251.708 320.153L247.192 322.77Z" fill="#42E8E0"/>
<path opacity="0.4" d="M256.225 327.985L251.708 325.386L256.225 322.77L260.741 325.386L256.225 327.985Z" fill="#42E8E0"/>
<path d="M265.275 333.2L260.741 330.601L265.275 327.984L269.792 330.601L265.275 333.2Z" fill="#42E8E0"/>
<path d="M274.308 338.436L269.791 335.82L274.308 333.203L278.824 335.82L274.308 338.436Z" fill="#42E8E0"/>
<path d="M283.358 343.645L278.824 341.028L283.358 338.43L287.875 341.028L283.358 343.645Z" fill="#42E8E0"/>
<path d="M292.392 348.864L287.875 346.265L292.392 343.648L296.908 346.265L292.392 348.864Z" fill="#42E8E0"/>
<path d="M301.441 354.079L296.907 351.48L301.441 348.863L305.958 351.48L301.441 354.079Z" fill="#42E8E0"/>
<path opacity="0.4" d="M310.475 359.311L305.958 356.695L310.475 354.078L314.991 356.695L310.475 359.311Z" fill="#42E8E0"/>
<path d="M319.525 364.528L314.991 361.911L319.525 359.312L324.042 361.911L319.525 364.528Z" fill="#42E8E0"/>
<path d="M238.105 328.004L233.589 325.406L238.105 322.789L242.622 325.406L238.105 328.004Z" fill="#42E8E0"/>
<path opacity="0.1" d="M247.156 333.237L242.622 330.621L247.156 328.004L251.672 330.621L247.156 333.237Z" fill="#42E8E0"/>
<path d="M256.188 338.45L251.672 335.833L256.188 333.234L260.705 335.833L256.188 338.45Z" fill="#42E8E0"/>
<path d="M265.239 343.665L260.705 341.048L265.239 338.449L269.755 341.048L265.239 343.665Z" fill="#42E8E0"/>
<path d="M274.272 348.879L269.756 346.281L274.272 343.664L278.789 346.281L274.272 348.879Z" fill="#42E8E0"/>
<path d="M283.323 354.116L278.789 351.499L283.323 348.883L287.839 351.499L283.323 354.116Z" fill="#42E8E0"/>
<path opacity="0.4" d="M292.355 359.333L287.839 356.716L292.355 354.117L296.872 356.716L292.355 359.333Z" fill="#42E8E0"/>
<path d="M301.406 364.547L296.872 361.931L301.406 359.332L305.922 361.931L301.406 364.547Z" fill="#42E8E0"/>
<path d="M310.439 369.762L305.922 367.164L310.439 364.547L314.955 367.164L310.439 369.762Z" fill="#42E8E0"/>
<path d="M310.582 326.842L168.228 244.651L310.582 162.461L452.937 244.651L310.582 326.842Z" fill="#BCBEFF"/>
<path d="M310.582 304.402L207.1 244.65L310.582 184.898L414.082 244.65L310.582 304.402Z" fill="#453C9E"/>
<path d="M310.582 188.949L410.569 246.676L414.082 244.65L310.582 184.898L207.1 244.65L210.595 246.676L310.582 188.949Z" fill="white"/>
<path d="M452.937 244.648V291.246L310.583 373.436V326.839L452.937 244.648Z" fill="url(#paint11_linear_10950_4147)"/>
<path d="M168.228 244.648V291.228L310.582 373.436V326.839L168.228 244.648Z" fill="#24126A"/>
<g opacity="0.51">
<path d="M177.869 265.582V280.26L300.94 351.303V336.643L177.869 265.582Z" fill="#453C9E"/>
</g>
<path d="M310.582 324.169L170.539 243.305L168.228 244.649L310.582 326.839L452.937 244.649L450.625 243.323L310.582 324.169Z" fill="white"/>
<path d="M431.592 277.301V285.635L331.945 343.164V334.83L431.592 277.301Z" fill="#453C9E"/>
<path opacity="0.51" d="M168.228 244.648V291.228L310.582 373.436V326.839L168.228 244.648Z" fill="#453C9E"/>
<path d="M269.021 324.37L243.249 309.477V312.559L269.021 327.452V324.37Z" fill="#42E8E0"/>
<path d="M239.539 307.364L232.55 303.332V306.415L239.521 310.447L239.539 307.364Z" fill="#42E8E0"/>
<path d="M206.814 288.489L192.53 280.227L192.512 283.309L206.814 291.553V288.489Z" fill="#42E8E0"/>
<path d="M219.861 296.019L209.52 290.051V293.115L219.843 299.083L219.861 296.019Z" fill="#42E8E0"/>
<path d="M229.539 301.607L222.567 297.574L222.549 300.657L229.539 304.689V301.607Z" fill="#42E8E0"/>
<path d="M310.725 205.418L306.209 202.802L310.725 200.203L315.26 202.802L310.725 205.418Z" fill="#42E8E0"/>
<path opacity="0.1" d="M319.776 210.633L315.259 208.035L319.776 205.418L324.292 208.035L319.776 210.633Z" fill="#42E8E0"/>
<path opacity="0.4" d="M328.808 215.848L324.292 213.249L328.808 210.633L333.343 213.249L328.808 215.848Z" fill="#42E8E0"/>
<path d="M337.86 221.085L333.343 218.468L337.86 215.852L342.376 218.468L337.86 221.085Z" fill="#42E8E0"/>
<path opacity="0.4" d="M346.892 226.293L342.376 223.677L346.892 221.078L351.409 223.677L346.892 226.293Z" fill="#42E8E0"/>
<path d="M355.943 231.512L351.409 228.914L355.943 226.297L360.459 228.914L355.943 231.512Z" fill="#42E8E0"/>
<path d="M364.975 236.727L360.459 234.128L364.975 231.512L369.492 234.128L364.975 236.727Z" fill="#42E8E0"/>
<path d="M374.026 241.96L369.492 239.343L374.026 236.727L378.542 239.343L374.026 241.96Z" fill="#42E8E0"/>
<path opacity="0.1" d="M383.058 247.176L378.542 244.56L383.058 241.961L387.575 244.56L383.058 247.176Z" fill="#42E8E0"/>
<path d="M301.657 210.653L297.141 208.054L301.657 205.438L306.173 208.054L301.657 210.653Z" fill="#42E8E0"/>
<path d="M310.69 215.886L306.173 213.269L310.69 210.652L315.224 213.269L310.69 215.886Z" fill="#42E8E0"/>
<path d="M319.74 221.098L315.224 218.481L319.74 215.883L324.256 218.481L319.74 221.098Z" fill="#42E8E0"/>
<path opacity="0.8" d="M328.773 226.313L324.256 223.696L328.773 221.098L333.289 223.696L328.773 226.313Z" fill="#FF2C9C"/>
<path d="M337.823 231.528L333.289 228.929L337.823 226.312L342.34 228.929L337.823 231.528Z" fill="#42E8E0"/>
<path d="M346.857 236.764L342.34 234.148L346.857 231.531L351.373 234.148L346.857 236.764Z" fill="#42E8E0"/>
<path opacity="0.8" d="M355.907 241.981L351.373 239.364L355.907 236.766L360.424 239.364L355.907 241.981Z" fill="url(#paint12_radial_10950_4147)"/>
<path d="M364.94 247.196L360.423 244.579L364.94 241.98L369.456 244.579L364.94 247.196Z" fill="#42E8E0"/>
<path opacity="0.8" d="M373.99 252.411L369.456 249.812L373.99 247.195L378.507 249.812L373.99 252.411Z" fill="#FF2C9C"/>
<path d="M292.571 215.903L288.055 213.286L292.571 210.688L297.105 213.286L292.571 215.903Z" fill="#42E8E0"/>
<path opacity="0.8" d="M301.621 221.118L297.105 218.501L301.621 215.902L306.138 218.501L301.621 221.118Z" fill="#FF2C9C"/>
<path d="M310.654 226.333L306.138 223.734L310.654 221.117L315.17 223.734L310.654 226.333Z" fill="#42E8E0"/>
<path opacity="0.1" d="M319.705 231.569L315.17 228.953L319.705 226.336L324.221 228.953L319.705 231.569Z" fill="#42E8E0"/>
<path opacity="0.4" d="M328.738 236.778L324.222 234.161L328.738 231.562L333.254 234.161L328.738 236.778Z" fill="#42E8E0"/>
<path opacity="0.4" d="M337.789 241.997L333.254 239.38L337.789 236.781L342.305 239.38L337.789 241.997Z" fill="#42E8E0"/>
<path d="M346.821 247.211L342.305 244.613L346.821 241.996L351.337 244.613L346.821 247.211Z" fill="#42E8E0"/>
<path d="M355.872 252.444L351.337 249.828L355.872 247.211L360.388 249.828L355.872 252.444Z" fill="#42E8E0"/>
<path d="M364.904 257.661L360.388 255.044L364.904 252.445L369.42 255.044L364.904 257.661Z" fill="#42E8E0"/>
<path opacity="0.4" d="M283.502 221.133L278.986 218.535L283.502 215.918L288.019 218.535L283.502 221.133Z" fill="#42E8E0"/>
<path opacity="0.4" d="M292.535 226.348L288.019 223.749L292.535 221.133L297.069 223.749L292.535 226.348Z" fill="#42E8E0"/>
<path opacity="0.1" d="M301.585 231.581L297.069 228.964L301.585 226.348L306.102 228.964L301.585 231.581Z" fill="#42E8E0"/>
<path d="M310.618 236.793L306.102 234.177L310.618 231.578L315.134 234.177L310.618 236.793Z" fill="#42E8E0"/>
<path d="M319.669 242.008L315.134 239.41L319.669 236.793L324.185 239.41L319.669 242.008Z" fill="#42E8E0"/>
<path opacity="0.8" d="M328.702 247.227L324.186 244.628L328.702 242.012L333.218 244.628L328.702 247.227Z" fill="#FF2C9C"/>
<path opacity="0.4" d="M337.753 252.46L333.218 249.843L337.753 247.227L342.269 249.843L337.753 252.46Z" fill="#42E8E0"/>
<path d="M346.785 257.676L342.269 255.06L346.785 252.461L351.301 255.06L346.785 257.676Z" fill="#42E8E0"/>
<path d="M355.836 262.891L351.301 260.292L355.836 257.676L360.352 260.292L355.836 262.891Z" fill="#42E8E0"/>
<path opacity="0.8" d="M274.416 226.389L269.9 223.773L274.416 221.156L278.95 223.773L274.416 226.389Z" fill="#FF2C9C"/>
<path d="M283.467 231.61L278.95 228.993L283.467 226.395L287.983 228.993L283.467 231.61Z" fill="#42E8E0"/>
<path d="M292.499 236.817L287.983 234.218L292.499 231.602L297.016 234.218L292.499 236.817Z" fill="#42E8E0"/>
<path d="M301.55 242.032L297.016 239.433L301.55 236.816L306.066 239.433L301.55 242.032Z" fill="#42E8E0"/>
<path opacity="0.8" d="M310.583 247.264L306.067 244.648L310.583 242.031L315.1 244.648L310.583 247.264Z" fill="#FF2C9C"/>
<path opacity="0.8" d="M319.633 252.485L315.099 249.868L319.633 247.27L324.149 249.868L319.633 252.485Z" fill="#FF2C9C"/>
<path d="M328.666 257.7L324.15 255.101L328.666 252.484L333.183 255.101L328.666 257.7Z" fill="#42E8E0"/>
<path d="M337.717 262.915L333.183 260.316L337.717 257.699L342.233 260.316L337.717 262.915Z" fill="#42E8E0"/>
<path d="M346.749 268.147L342.233 265.531L346.749 262.914L351.266 265.531L346.749 268.147Z" fill="#42E8E0"/>
<path d="M265.347 231.618L260.831 229.001L265.347 226.402L269.864 229.001L265.347 231.618Z" fill="#42E8E0"/>
<path d="M274.38 236.833L269.864 234.234L274.38 231.617L278.896 234.234L274.38 236.833Z" fill="#42E8E0"/>
<path opacity="0.4" d="M283.43 242.065L278.914 239.449L283.43 236.832L287.947 239.449L283.43 242.065Z" fill="#42E8E0"/>
<path opacity="0.8" d="M292.463 247.278L287.947 244.661L292.463 242.062L296.979 244.661L292.463 247.278Z" fill="#FF2C9C"/>
<path opacity="0.1" d="M301.514 252.493L296.979 249.876L301.514 247.277L306.03 249.876L301.514 252.493Z" fill="#42E8E0"/>
<path d="M310.547 257.711L306.031 255.113L310.547 252.496L315.063 255.113L310.547 257.711Z" fill="#42E8E0"/>
<path d="M319.598 262.944L315.063 260.328L319.598 257.711L324.114 260.328L319.598 262.944Z" fill="#42E8E0"/>
<path opacity="0.8" d="M328.63 268.161L324.114 265.544L328.63 262.945L333.146 265.544L328.63 268.161Z" fill="#FF2C9C"/>
<path d="M337.681 273.375L333.146 270.759L337.681 268.16L342.197 270.759L337.681 273.375Z" fill="#42E8E0"/>
<path d="M256.26 236.87L251.744 234.253L256.26 231.637L260.795 234.253L256.26 236.87Z" fill="#42E8E0"/>
<path d="M265.311 242.09L260.794 239.474L265.311 236.875L269.827 239.474L265.311 242.09Z" fill="#42E8E0"/>
<path opacity="0.4" d="M274.343 247.297L269.827 244.681L274.343 242.082L278.86 244.681L274.343 247.297Z" fill="#42E8E0"/>
<path d="M283.394 252.512L278.86 249.914L283.394 247.297L287.91 249.914L283.394 252.512Z" fill="#42E8E0"/>
<path d="M292.427 257.745L287.911 255.128L292.427 252.512L296.944 255.128L292.427 257.745Z" fill="#42E8E0"/>
<path opacity="0.1" d="M301.478 262.965L296.944 260.349L301.478 257.75L305.994 260.349L301.478 262.965Z" fill="#42E8E0"/>
<path opacity="0.4" d="M310.51 268.18L305.994 265.564L310.51 262.965L315.027 265.564L310.51 268.18Z" fill="#42E8E0"/>
<path d="M319.561 273.395L315.027 270.796L319.561 268.18L324.077 270.796L319.561 273.395Z" fill="#42E8E0"/>
<path opacity="0.1" d="M328.593 278.628L324.077 276.011L328.593 273.395L333.11 276.011L328.593 278.628Z" fill="#42E8E0"/>
<path d="M247.192 242.102L242.675 239.485L247.192 236.887L251.708 239.485L247.192 242.102Z" fill="#42E8E0"/>
<path opacity="0.4" d="M256.224 247.317L251.708 244.718L256.224 242.102L260.741 244.718L256.224 247.317Z" fill="#42E8E0"/>
<path d="M265.275 252.532L260.741 249.933L265.275 247.316L269.791 249.933L265.275 252.532Z" fill="#42E8E0"/>
<path d="M274.307 257.768L269.791 255.152L274.307 252.535L278.824 255.152L274.307 257.768Z" fill="#42E8E0"/>
<path d="M283.358 262.977L278.824 260.36L283.358 257.762L287.874 260.36L283.358 262.977Z" fill="#42E8E0"/>
<path d="M292.391 268.196L287.875 265.597L292.391 262.98L296.908 265.597L292.391 268.196Z" fill="#42E8E0"/>
<path d="M301.441 273.411L296.907 270.812L301.441 268.195L305.957 270.812L301.441 273.411Z" fill="#42E8E0"/>
<path opacity="0.4" d="M310.474 278.643L305.958 276.027L310.474 273.41L314.991 276.027L310.474 278.643Z" fill="#42E8E0"/>
<path d="M319.525 283.86L314.991 281.243L319.525 278.645L324.041 281.243L319.525 283.86Z" fill="#42E8E0"/>
<path d="M238.106 247.336L233.589 244.738L238.106 242.121L242.622 244.738L238.106 247.336Z" fill="#42E8E0"/>
<path opacity="0.1" d="M247.156 252.569L242.622 249.953L247.156 247.336L251.673 249.953L247.156 252.569Z" fill="#42E8E0"/>
<path opacity="0.8" d="M256.189 257.782L251.672 255.165L256.189 252.566L260.705 255.165L256.189 257.782Z" fill="#FF2C9C"/>
<path d="M265.239 262.997L260.705 260.398L265.239 257.781L269.756 260.398L265.239 262.997Z" fill="#42E8E0"/>
<path d="M274.273 268.211L269.756 265.613L274.273 262.996L278.789 265.613L274.273 268.211Z" fill="#42E8E0"/>
<path d="M283.323 273.448L278.789 270.831L283.323 268.215L287.84 270.831L283.323 273.448Z" fill="#42E8E0"/>
<path opacity="0.4" d="M292.356 278.665L287.839 276.048L292.356 273.449L296.872 276.048L292.356 278.665Z" fill="#42E8E0"/>
<path opacity="0.8" d="M301.406 283.879L296.872 281.281L301.406 278.664L305.923 281.281L301.406 283.879Z" fill="#FF2C9C"/>
<path d="M310.439 289.098L305.922 286.499L310.439 283.883L314.955 286.499L310.439 289.098Z" fill="#42E8E0"/>
<path d="M463.833 577.605C461.36 577.605 458.94 576.959 456.808 575.723L375.908 529.018C374.635 528.283 373.883 526.975 373.883 525.505C373.883 524.036 374.635 522.727 375.908 521.993L522.277 437.49C522.528 437.347 522.832 437.347 523.083 437.49L610.597 488.013C611.869 488.747 612.622 490.056 612.622 491.525C612.622 492.995 611.869 494.303 610.597 495.038L470.859 575.723C468.726 576.959 466.288 577.605 463.833 577.605ZM522.689 439.121L376.714 523.391C375.944 523.839 375.496 524.627 375.496 525.523C375.496 526.419 375.961 527.208 376.714 527.656L457.614 574.361C461.378 576.529 466.288 576.529 470.052 574.361L609.79 493.676C610.561 493.228 611.009 492.439 611.009 491.543C611.009 490.647 610.543 489.858 609.79 489.41L522.689 439.121Z" fill="#42E8E0"/>
<path d="M522.868 404.846L503.405 289.339L504.964 288.676L502.616 287.331V287.349C502.168 287.045 501.523 287.063 500.806 287.475L345.207 377.3C343.935 378.035 342.967 379.935 343.182 381.261L362.807 497.682C362.914 498.292 363.201 498.686 363.631 498.865L365.925 500.191L366.319 498.041L366.194 498.076L520.843 408.789C522.115 408.054 523.083 406.172 522.868 404.846Z" fill="url(#paint13_linear_10950_4147)"/>
<path d="M346.067 380.469L343.504 379.34C343.217 380.003 343.074 380.684 343.182 381.257L362.806 497.679C362.914 498.288 363.2 498.683 363.631 498.862L365.925 500.188L366.319 498.037L366.193 498.073L374.025 493.557L346.067 380.469Z" fill="url(#paint14_linear_10950_4147)"/>
<path d="M523.28 410.206L367.681 500.032C366.48 500.731 365.458 500.318 365.243 499.082L345.619 382.66C345.386 381.334 346.353 379.452 347.644 378.7L503.243 288.874C504.444 288.175 505.465 288.588 505.68 289.824L525.305 406.246C525.538 407.572 524.57 409.472 523.28 410.206Z" fill="#24126A"/>
<g opacity="0.51">
<path d="M501.2 296.312L351.228 382.894L369.831 492.541L519.713 406.013L501.2 296.312Z" fill="#453C9E"/>
</g>
<path d="M621.098 465.312L612.603 469.738L527.456 420.578C526.04 419.754 523.549 419.862 521.9 420.811L375.047 505.6C373.649 504.812 367.233 501.729 367.233 501.729L370.333 509.83C370.333 509.83 370.351 509.83 370.351 509.812C370.477 510.171 370.763 510.511 371.211 510.78L460.893 562.557C462.309 563.381 464.8 563.274 466.449 562.324L616.725 475.563C617.406 475.169 617.818 474.703 617.98 474.219H617.998L621.098 465.312Z" fill="url(#paint15_linear_10950_4147)"/>
<path d="M619.772 466.712L465.75 555.623C464.066 556.591 461.521 556.698 460.051 555.856L368.147 502.789C366.695 501.947 366.874 500.477 368.559 499.509L522.563 410.598C524.248 409.63 526.793 409.523 528.262 410.365L620.166 463.432C621.654 464.275 621.457 465.744 619.772 466.712Z" fill="url(#paint16_linear_10950_4147)"/>
<path d="M619.772 465.835L465.75 554.747C464.065 555.714 461.52 555.822 460.051 554.98L368.147 501.912C367.663 501.644 367.376 501.285 367.251 500.927C367.018 501.626 367.304 502.325 368.147 502.809L460.051 555.876C461.503 556.718 464.065 556.61 465.75 555.643L619.772 466.732C620.901 466.068 621.349 465.208 621.08 464.438C620.919 464.921 620.489 465.423 619.772 465.835Z" fill="white"/>
<path d="M419.314 536.389V534.705C419.314 534.543 419.404 534.472 419.529 534.543L425.48 537.984C425.605 538.056 425.695 538.235 425.695 538.397V540.081C425.695 540.243 425.605 540.314 425.48 540.243L419.529 536.802C419.404 536.748 419.314 536.551 419.314 536.389Z" fill="#2842A2"/>
<path d="M428.221 541.534V539.849C428.221 539.688 428.311 539.616 428.436 539.688L434.386 543.129C434.512 543.201 434.601 543.38 434.601 543.541V545.226C434.601 545.387 434.512 545.459 434.386 545.387L428.436 541.946C428.311 541.892 428.221 541.695 428.221 541.534Z" fill="#2842A2"/>
<path d="M392.126 497.845L520.107 423.953C520.967 423.469 522.007 423.469 522.867 423.953L568.443 450.316C569.106 450.692 569.088 451.642 568.443 452.019L440.516 525.875C439.655 526.359 438.616 526.359 437.756 525.875L392.126 499.548C391.463 499.171 391.463 498.222 392.126 497.845Z" fill="#ADB1F2"/>
<path d="M392.127 499.546L392.593 499.814L520.126 426.191C520.986 425.707 522.025 425.707 522.886 426.191L567.995 452.285L568.461 452.016C569.124 451.64 569.124 450.69 568.461 450.314L522.886 423.951C522.025 423.449 520.986 423.449 520.126 423.951L392.145 497.843C391.463 498.219 391.463 499.169 392.127 499.546Z" fill="#9198DB"/>
<path d="M526.308 430.633L415.138 494.812L410.192 491.962L521.362 427.766L526.308 430.633Z" fill="#24126A"/>
<path d="M538.424 437.623L434.154 497.823L429.208 494.973L533.478 434.773L538.424 437.623Z" fill="#24126A"/>
<path d="M546.328 442.174L423.545 513.055L418.598 510.206L541.382 439.324L546.328 442.174Z" fill="#24126A"/>
<path d="M554.213 446.725L431.447 517.624L426.501 514.757L549.267 443.875L554.213 446.725Z" fill="#24126A"/>
<path d="M562.098 451.295L439.333 522.177L434.386 519.327L557.17 448.445L562.098 451.295Z" fill="#24126A"/>
<path d="M408.418 498.686L403.471 501.553L398.525 498.686L403.471 495.836L408.418 498.686Z" fill="#24126A"/>
<path d="M425.856 502.611L415.587 508.543L410.658 505.694L420.909 499.762L425.856 502.611Z" fill="#24126A"/>
<path d="M525.036 515.731L559.554 495.802C560.898 495.031 560.898 493.758 559.554 492.988L535.951 479.367C534.607 478.596 532.42 478.596 531.058 479.367L496.54 499.296C495.196 500.067 495.196 501.339 496.54 502.11L520.144 515.731C521.506 516.501 523.692 516.501 525.036 515.731Z" fill="url(#paint17_linear_10950_4147)"/>
<path d="M496.557 500.418L531.075 480.489C532.419 479.718 534.606 479.718 535.968 480.489L559.571 494.11C559.984 494.343 560.252 494.647 560.414 494.934C560.772 494.253 560.503 493.482 559.571 492.945L535.968 479.324C534.624 478.553 532.437 478.553 531.075 479.324L496.557 499.253C495.626 499.791 495.357 500.562 495.715 501.243C495.859 500.956 496.145 500.669 496.557 500.418Z" fill="#9198DB"/>
<g opacity="0.11">
<path d="M522.743 410.423L368.739 499.334C367.054 500.302 364.509 500.409 363.04 499.567L271.135 446.5C269.684 445.658 269.863 444.188 271.548 443.22L425.57 354.309C427.254 353.341 429.799 353.234 431.269 354.076L523.173 407.143C524.607 407.968 524.427 409.455 522.743 410.423Z" fill="url(#paint18_linear_10950_4147)"/>
<path d="M368.273 426.356L402.791 406.427C404.135 405.656 404.135 404.383 402.791 403.613L379.187 389.992C377.843 389.221 375.657 389.221 374.295 389.992L339.777 409.921C338.433 410.692 338.433 411.964 339.777 412.735L363.38 426.356C364.724 427.144 366.929 427.144 368.273 426.356Z" fill="url(#paint19_linear_10950_4147)"/>
<path d="M339.795 411.067L374.312 391.137C375.657 390.367 377.843 390.367 379.205 391.137L402.808 404.758C403.221 404.991 403.489 405.296 403.651 405.583C404.009 404.902 403.74 404.131 402.808 403.593L379.205 389.973C377.861 389.202 375.675 389.202 374.312 389.973L339.795 409.902C338.863 410.439 338.594 411.21 338.952 411.891C339.096 411.604 339.365 411.318 339.795 411.067Z" fill="#9198DB"/>
<path d="M324.614 457.505L452.595 383.613C453.456 383.129 454.495 383.129 455.355 383.613L500.931 409.976C501.594 410.353 501.576 411.302 500.931 411.679L373.004 485.535C372.143 486.019 371.104 486.019 370.244 485.535L324.614 459.208C323.951 458.832 323.951 457.882 324.614 457.505Z" fill="#ADB1F2"/>
<path d="M324.614 459.206L325.08 459.475L452.613 385.851C453.473 385.367 454.513 385.367 455.373 385.851L500.483 411.945L500.949 411.677C501.612 411.3 501.612 410.35 500.949 409.974L455.373 383.611C454.513 383.109 453.473 383.109 452.613 383.611L324.632 457.503C323.951 457.88 323.951 458.829 324.614 459.206Z" fill="#9198DB"/>
<path d="M489.013 408.176L377.503 472.552L381.929 475.097L493.422 410.721L489.013 408.176Z" fill="#24126A"/>
<path d="M477.256 401.387L371.283 462.572L375.692 465.135L481.683 403.95L477.256 401.387Z" fill="#24126A"/>
<path d="M363.362 467.145L353.469 472.862L357.896 475.407L367.789 469.707L363.362 467.145Z" fill="#24126A"/>
<path d="M372.108 475.672L365.226 479.651L369.635 482.196L376.535 478.217L372.108 475.672Z" fill="#24126A"/>
<path d="M469.891 397.137L346.103 468.61L350.53 471.155L474.317 399.7L469.891 397.137Z" fill="#24126A"/>
<path d="M462.543 392.895L338.755 464.368L343.164 466.912L466.951 395.439L462.543 392.895Z" fill="#24126A"/>
<path d="M455.177 388.645L331.389 460.118L335.798 462.662L459.586 391.189L455.177 388.645Z" fill="#24126A"/>
</g>
<path d="M407.701 450.752L419.835 443.727L420.193 445.841L408.06 452.849L407.701 450.752Z" fill="#42E8E0"/>
<path d="M421.789 442.614L428.402 438.797L428.76 440.894L422.147 444.711L421.789 442.614Z" fill="#42E8E0"/>
<path d="M438.689 432.842L443.474 430.082L443.832 432.197L439.047 434.957L438.689 432.842Z" fill="#42E8E0"/>
<path d="M435.194 434.868L436.825 433.918L437.183 436.033L435.553 436.965L435.194 434.868Z" fill="#42E8E0"/>
<path d="M430.373 437.652L433.348 435.949L433.707 438.046L430.732 439.767L430.373 437.652Z" fill="#42E8E0"/>
<path d="M417.308 434.619L422.093 431.859L422.434 433.974L417.667 436.734L417.308 434.619Z" fill="#42E8E0"/>
<path d="M406.071 441.126L415.444 435.695L415.803 437.81L406.43 443.223L406.071 441.126Z" fill="#42E8E0"/>
<path d="M419.513 406.963L428.886 401.551L429.244 403.648L419.871 409.078L419.513 406.963Z" fill="#42E8E0"/>
<path d="M414.692 409.76L417.667 408.039L418.007 410.136L415.05 411.856L414.692 409.76Z" fill="#42E8E0"/>
<path d="M421.071 416.604L430.444 411.191L430.803 413.288L421.43 418.719L421.071 416.604Z" fill="#42E8E0"/>
<path d="M416.25 419.386L419.225 417.684L419.584 419.78L416.609 421.501L416.25 419.386Z" fill="#42E8E0"/>
<path d="M412.594 365.365L394.941 375.562L394.583 373.466L412.236 363.25L412.594 365.365Z" fill="#42E8E0"/>
<path d="M418.813 361.765L414.44 364.292L414.1 362.195L418.455 359.668L418.813 361.765Z" fill="#42E8E0"/>
<path d="M449.854 359.722L432.183 369.92L431.824 367.823L449.496 357.625L449.854 359.722Z" fill="#42E8E0"/>
<path d="M456.073 356.12L451.7 358.647L451.342 356.55L455.715 354.023L456.073 356.12Z" fill="#42E8E0"/>
<path d="M400.533 377.627L395.748 380.387L395.389 378.272L400.175 375.512L400.533 377.627Z" fill="#42E8E0"/>
<path d="M429.638 371.37L424.853 374.148L424.494 372.033L429.28 369.273L429.638 371.37Z" fill="#42E8E0"/>
<path d="M411.77 371.134L402.397 376.547L402.039 374.432L411.412 369.02L411.77 371.134Z" fill="#42E8E0"/>
<path d="M416.591 368.343L413.616 370.063L413.258 367.949L416.233 366.246L416.591 368.343Z" fill="#42E8E0"/>
<path d="M427.9 361.818L418.527 367.23L418.168 365.133L427.541 359.703L427.9 361.818Z" fill="#42E8E0"/>
<path d="M432.72 359.019L429.745 360.739L429.387 358.642L432.362 356.922L432.72 359.019Z" fill="#42E8E0"/>
<path d="M428.832 366.572L424.047 369.332L423.689 367.217L428.474 364.457L428.832 366.572Z" fill="#42E8E0"/>
<path d="M440.051 360.08L430.678 365.492L430.319 363.377L439.692 357.965L440.051 360.08Z" fill="#42E8E0"/>
<path d="M444.872 357.284L441.915 359.005L441.556 356.89L444.514 355.188L444.872 357.284Z" fill="#42E8E0"/>
<path d="M406.358 379.544L396.573 385.208L396.214 383.093L406 377.43L406.358 379.544Z" fill="#42E8E0"/>
<path d="M415.283 374.384L408.203 378.471L407.845 376.374L414.924 372.27L415.283 374.384Z" fill="#42E8E0"/>
<path d="M421.914 370.548L417.147 373.308L416.788 371.194L421.573 368.434L421.914 370.548Z" fill="#42E8E0"/>
<path d="M468.314 349.076L458.529 354.721L458.17 352.624L467.955 346.961L468.314 349.076Z" fill="#42E8E0"/>
<path d="M477.239 343.916L470.178 348.002L469.82 345.887L476.899 341.801L477.239 343.916Z" fill="#42E8E0"/>
<path d="M483.888 340.08L479.103 342.84L478.745 340.725L483.53 337.965L483.888 340.08Z" fill="#42E8E0"/>
<path d="M464.497 412.665L474.282 407.02L474.641 409.116L464.855 414.78L464.497 412.665Z" fill="#42E8E0"/>
<path d="M455.553 417.828L462.633 413.742L462.991 415.857L455.912 419.943L455.553 417.828Z" fill="#42E8E0"/>
<path d="M448.922 421.662L453.707 418.902L454.066 421.017L449.281 423.777L448.922 421.662Z" fill="#42E8E0"/>
<path d="M461.253 419.851L471.039 414.188L471.379 416.302L461.594 421.948L461.253 419.851Z" fill="#42E8E0"/>
<path d="M452.309 425.012L459.388 420.926L459.747 423.023L452.668 427.109L452.309 425.012Z" fill="#42E8E0"/>
<path d="M445.679 428.85L450.464 426.09L450.823 428.187L446.037 430.965L445.679 428.85Z" fill="#42E8E0"/>
<path d="M421.717 410.943L425.033 409.043L425.391 411.14L422.075 413.057L421.717 410.943Z" fill="#42E8E0"/>
<path d="M415.498 414.547L419.871 412.02L420.229 414.134L415.856 416.643L415.498 414.547Z" fill="#42E8E0"/>
<path d="M407.235 384.334L397.432 389.979L397.092 387.882L406.877 382.219L407.235 384.334Z" fill="#42E8E0"/>
<path d="M416.161 379.166L409.082 383.252L408.723 381.137L415.803 377.051L416.161 379.166Z" fill="#42E8E0"/>
<path d="M422.792 375.337L418.007 378.097L417.666 375.983L422.434 373.223L422.792 375.337Z" fill="#42E8E0"/>
<path d="M401.555 392.874L398.257 394.792L397.899 392.677L401.196 390.777L401.555 392.874Z" fill="#42E8E0"/>
<path d="M407.773 389.295L403.418 391.822L403.06 389.707L407.433 387.18L407.773 389.295Z" fill="#42E8E0"/>
<path d="M416.681 384.15L409.637 388.218L409.279 386.103L416.322 382.035L416.681 384.15Z" fill="#42E8E0"/>
<path d="M426.215 424.222L429.531 422.305L429.889 424.42L426.574 426.319L426.215 424.222Z" fill="#42E8E0"/>
<path d="M419.996 427.804L424.369 425.277L424.728 427.392L420.355 429.919L419.996 427.804Z" fill="#42E8E0"/>
<path d="M411.107 432.951L418.151 428.883L418.491 430.998L411.466 435.066L411.107 432.951Z" fill="#42E8E0"/>
<path d="M431.251 416.408L438.295 412.34L438.653 414.437L431.61 418.505L431.251 416.408Z" fill="#42E8E0"/>
<path d="M419.745 422.683L429.226 417.199L429.585 419.296L420.104 424.78L419.745 422.683Z" fill="#42E8E0"/>
<path d="M414.925 425.46L417.882 423.758L418.24 425.855L415.283 427.575L414.925 425.46Z" fill="#42E8E0"/>
<path d="M410.301 428.146L413.258 426.426L413.616 428.523L410.641 430.243L410.301 428.146Z" fill="#42E8E0"/>
<path d="M410.928 400.948L420.301 395.535L420.66 397.632L411.286 403.062L410.928 400.948Z" fill="#42E8E0"/>
<path d="M406.107 403.736L409.082 402.016L409.423 404.112L406.466 405.833L406.107 403.736Z" fill="#42E8E0"/>
<path d="M411.573 395.279L414.871 393.379L415.229 395.476L411.931 397.393L411.573 395.279Z" fill="#42E8E0"/>
<path d="M423.241 399.152L426.556 397.234L426.915 399.331L423.599 401.249L423.241 399.152Z" fill="#42E8E0"/>
<path d="M427.954 396.424L435.893 391.836L436.252 393.951L428.312 398.521L427.954 396.424Z" fill="#42E8E0"/>
<path d="M437.291 391.033L442.023 388.309L442.363 390.405L437.65 393.13L437.291 391.033Z" fill="#42E8E0"/>
<path d="M405.355 398.879L409.728 396.352L410.068 398.466L405.713 400.993L405.355 398.879Z" fill="#42E8E0"/>
<path d="M404.943 393.937L408.24 392.02L408.599 394.134L405.301 396.052L404.943 393.937Z" fill="#42E8E0"/>
<path d="M398.723 397.543L403.078 395.016L403.437 397.112L399.064 399.639L398.723 397.543Z" fill="#42E8E0"/>
<path d="M418.455 401.908L421.412 400.188L421.77 402.302L418.795 404.023L418.455 401.908Z" fill="#42E8E0"/>
<path d="M413.813 404.582L416.788 402.879L417.147 404.976L414.172 406.696L413.813 404.582Z" fill="#42E8E0"/>
<path d="M436.628 428.775L446.754 422.914L447.112 425.029L436.986 430.889L436.628 428.775Z" fill="#42E8E0"/>
<path d="M425.283 435.336L434.764 429.852L435.122 431.948L425.641 437.433L425.283 435.336Z" fill="#42E8E0"/>
<path d="M420.462 438.113L423.419 436.41L423.778 438.507L420.82 440.228L420.462 438.113Z" fill="#42E8E0"/>
<path d="M415.821 440.806L418.796 439.086L419.154 441.183L416.179 442.903L415.821 440.806Z" fill="#42E8E0"/>
<path d="M413.293 442.254L406.895 445.964L407.254 448.061L413.652 444.369L413.293 442.254Z" fill="#42E8E0"/>
<g opacity="0.8">
<path d="M157.331 577.888C154.822 577.888 152.349 577.225 150.18 575.97L10.4425 495.285C9.0804 494.497 8.27393 493.099 8.27393 491.54C8.27393 489.98 9.0804 488.565 10.4425 487.794L98.4934 436.949L99.031 437.254L245.4 521.756C246.762 522.545 247.569 523.943 247.569 525.502C247.569 527.061 246.762 528.477 245.4 529.248L164.5 575.952C162.332 577.225 159.858 577.888 157.331 577.888ZM151.256 574.106C154.948 576.221 159.733 576.221 163.407 574.106L244.289 527.402C244.97 527.007 245.382 526.308 245.382 525.52C245.382 524.731 244.97 524.032 244.289 523.638L98.4575 439.44L98.3141 439.512L11.482 489.64C10.8009 490.034 10.4067 490.733 10.4067 491.522C10.4067 492.31 10.8189 493.009 11.4999 493.404L151.256 574.106Z" fill="url(#paint20_linear_10950_4147)"/>
</g>
<path d="M98.3143 404.846L117.778 289.339L116.218 288.676L118.566 287.331V287.349C119.014 287.045 119.659 287.063 120.376 287.475L275.975 377.3C277.248 378.035 278.216 379.935 278 381.261L258.376 497.682C258.268 498.292 257.982 498.686 257.551 498.865L255.257 500.191L254.863 498.041L254.989 498.076L100.339 408.789C99.0491 408.054 98.0813 406.172 98.3143 404.846Z" fill="url(#paint21_linear_10950_4147)"/>
<path d="M275.097 380.469L277.66 379.34C277.947 380.003 278.09 380.684 277.983 381.257L258.358 497.679C258.25 498.288 257.964 498.683 257.534 498.862L255.24 500.188L254.845 498.037L254.971 498.073L247.139 493.557L275.097 380.469Z" fill="url(#paint22_linear_10950_4147)"/>
<path d="M97.8844 410.206L253.483 500.032C254.684 500.731 255.706 500.318 255.921 499.082L275.545 382.66C275.778 381.334 274.811 379.452 273.52 378.7L117.921 288.874C116.72 288.175 115.699 288.588 115.484 289.824L95.8592 406.246C95.6442 407.572 96.612 409.472 97.8844 410.206Z" fill="#24126A"/>
<g opacity="0.51">
<path d="M119.965 296.312L269.936 382.894L251.351 492.541L101.469 406.013L119.965 296.312Z" fill="#453C9E"/>
</g>
<path d="M0.0839844 465.312L8.57903 469.738L93.7265 420.578C95.1424 419.754 97.6335 419.862 99.2824 420.811L246.135 505.6C247.533 504.812 253.949 501.729 253.949 501.729L250.849 509.83C250.849 509.83 250.831 509.83 250.831 509.812C250.705 510.171 250.419 510.511 249.971 510.78L160.289 562.557C158.873 563.381 156.382 563.274 154.733 562.324L4.45696 475.563C3.77592 475.169 3.36372 474.703 3.20243 474.219H3.18451L0.0839844 465.312Z" fill="url(#paint23_linear_10950_4147)"/>
<path d="M1.39269 466.712L155.397 555.623C157.081 556.591 159.626 556.698 161.096 555.856L253 502.789C254.452 501.947 254.272 500.477 252.588 499.509L98.5838 410.598C96.8991 409.63 94.3542 409.523 92.8846 410.365L0.980463 463.432C-0.47122 464.275 -0.29198 465.744 1.39269 466.712Z" fill="url(#paint24_linear_10950_4147)"/>
<path d="M1.39296 465.835L155.397 554.747C157.082 555.714 159.626 555.822 161.096 554.98L253 501.912C253.484 501.644 253.771 501.285 253.896 500.927C254.129 501.626 253.842 502.325 253 502.809L161.096 555.876C159.644 556.718 157.082 556.61 155.397 555.643L1.39296 466.732C0.263874 466.068 -0.184197 465.208 0.0846337 464.438C0.263854 464.921 0.67608 465.423 1.39296 465.835Z" fill="white"/>
<path d="M201.85 536.389V534.705C201.85 534.543 201.76 534.472 201.635 534.543L195.685 537.984C195.559 538.056 195.47 538.235 195.47 538.397V540.081C195.47 540.243 195.559 540.314 195.685 540.243L201.635 536.802C201.76 536.748 201.85 536.551 201.85 536.389Z" fill="#2842A2"/>
<path d="M192.943 541.534V539.849C192.943 539.688 192.854 539.616 192.728 539.688L186.778 543.129C186.653 543.201 186.563 543.38 186.563 543.541V545.226C186.563 545.387 186.653 545.459 186.778 545.387L192.728 541.946C192.854 541.892 192.943 541.695 192.943 541.534Z" fill="#2842A2"/>
<path d="M229.038 497.845L101.057 423.953C100.197 423.469 99.1571 423.469 98.2968 423.953L52.7211 450.316C52.058 450.692 52.0759 451.642 52.7211 452.019L180.648 525.875C181.509 526.359 182.548 526.359 183.408 525.875L229.038 499.548C229.701 499.171 229.701 498.222 229.038 497.845Z" fill="#ADB1F2"/>
<path d="M229.038 499.546L228.572 499.814L101.039 426.191C100.179 425.707 99.1391 425.707 98.2788 426.191L53.1691 452.285L52.7031 452.016C52.04 451.64 52.04 450.69 52.7031 450.314L98.2788 423.951C99.1391 423.449 100.179 423.449 101.039 423.951L229.02 497.843C229.701 498.219 229.701 499.169 229.038 499.546Z" fill="#9198DB"/>
<path d="M105.573 436.8L213.894 499.348L218.59 496.355L110.538 433.969L105.573 436.8Z" fill="#24126A"/>
<path d="M98.5299 446.75L196.886 503.527L200.255 499.764L103.476 443.883L98.5299 446.75Z" fill="#24126A"/>
<path d="M74.855 442.174L197.621 513.055L202.567 510.206L79.8015 439.324L74.855 442.174Z" fill="#24126A"/>
<path d="M66.9513 446.732L189.735 517.632L194.682 514.764L71.8978 443.883L66.9513 446.732Z" fill="#24126A"/>
<path d="M59.0656 451.295L181.831 522.177L186.778 519.327L64.012 448.445L59.0656 451.295Z" fill="#24126A"/>
<path d="M212.747 498.686L217.693 501.553L222.64 498.686L217.693 495.836L212.747 498.686Z" fill="#24126A"/>
<path d="M195.309 502.611L205.578 508.543L210.525 505.694L200.255 499.762L195.309 502.611Z" fill="#24126A"/>
<path d="M96.1284 515.731L61.6107 495.802C60.2665 495.031 60.2665 493.758 61.6107 492.988L85.2139 479.367C86.5581 478.596 88.7446 478.596 90.1066 479.367L124.624 499.296C125.969 500.067 125.969 501.339 124.624 502.11L101.021 515.731C99.6591 516.501 97.4726 516.501 96.1284 515.731Z" fill="url(#paint25_linear_10950_4147)"/>
<path d="M124.607 500.418L90.0893 480.489C88.7451 479.718 86.5586 479.718 85.1965 480.489L61.5933 494.11C61.1811 494.343 60.9122 494.647 60.7509 494.934C60.3925 494.253 60.6613 493.482 61.5933 492.945L85.1965 479.324C86.5407 478.553 88.7272 478.553 90.0893 479.324L124.607 499.253C125.539 499.791 125.808 500.562 125.449 501.243C125.306 500.956 125.037 500.669 124.607 500.418Z" fill="#9198DB"/>
<g opacity="0.11">
<path d="M98.4224 410.423L252.426 499.334C254.111 500.302 256.656 500.409 258.126 499.567L350.03 446.5C351.481 445.658 351.302 444.188 349.617 443.22L195.614 354.309C193.929 353.341 191.384 353.234 189.914 354.076L98.0103 407.143C96.5586 407.968 96.7378 409.455 98.4224 410.423Z" fill="url(#paint26_linear_10950_4147)"/>
<path d="M252.911 426.356L218.393 406.427C217.049 405.656 217.049 404.383 218.393 403.613L241.996 389.992C243.34 389.221 245.527 389.221 246.889 389.992L281.407 409.921C282.751 410.692 282.751 411.964 281.407 412.735L257.803 426.356C256.441 427.144 254.255 427.144 252.911 426.356Z" fill="url(#paint27_linear_10950_4147)"/>
<path d="M281.388 411.067L246.871 391.137C245.526 390.367 243.34 390.367 241.978 391.137L218.375 404.758C217.962 404.991 217.693 405.296 217.532 405.583C217.174 404.902 217.443 404.131 218.375 403.593L241.978 389.973C243.322 389.202 245.508 389.202 246.871 389.973L281.388 409.902C282.32 410.439 282.589 411.21 282.231 411.891C282.069 411.604 281.8 411.318 281.388 411.067Z" fill="#9198DB"/>
<path d="M296.551 457.505L168.569 383.613C167.709 383.129 166.67 383.129 165.809 383.613L120.234 409.976C119.571 410.353 119.589 411.302 120.234 411.679L248.161 485.535C249.021 486.019 250.061 486.019 250.921 485.535L296.551 459.208C297.214 458.832 297.214 457.882 296.551 457.505Z" fill="#ADB1F2"/>
<path d="M296.551 459.206L296.085 459.475L168.552 385.851C167.692 385.367 166.652 385.367 165.792 385.851L120.682 411.945L120.216 411.677C119.553 411.3 119.553 410.35 120.216 409.974L165.792 383.611C166.652 383.109 167.692 383.109 168.552 383.611L296.533 457.503C297.214 457.88 297.214 458.829 296.551 459.206Z" fill="#9198DB"/>
<path d="M132.17 408.176L243.663 472.552L239.254 475.097L127.743 410.721L132.17 408.176Z" fill="#24126A"/>
<path d="M143.909 401.387L249.882 462.572L245.473 465.135L139.5 403.95L143.909 401.387Z" fill="#24126A"/>
<path d="M257.803 467.145L267.696 472.862L263.287 475.407L253.394 469.707L257.803 467.145Z" fill="#24126A"/>
<path d="M249.057 475.672L255.957 479.651L251.531 482.196L244.648 478.217L249.057 475.672Z" fill="#24126A"/>
<path d="M151.275 397.137L275.062 468.61L270.653 471.155L146.866 399.7L151.275 397.137Z" fill="#24126A"/>
<path d="M158.641 392.895L282.428 464.368L278.001 466.912L154.214 395.439L158.641 392.895Z" fill="#24126A"/>
<path d="M165.989 388.645L289.776 460.118L285.367 462.662L161.58 391.189L165.989 388.645Z" fill="#24126A"/>
</g>
<path d="M153.549 336.945L165.682 343.97L166.023 341.855L153.889 334.848L153.549 336.945Z" fill="#42E8E0"/>
<path d="M167.636 345.081L174.232 348.899L174.59 346.802L167.977 342.984L167.636 345.081Z" fill="#42E8E0"/>
<path d="M184.519 354.849L189.304 357.609L189.662 355.494L184.877 352.734L184.519 354.849Z" fill="#42E8E0"/>
<path d="M181.042 352.823L182.673 353.773L183.031 351.658L181.4 350.727L181.042 352.823Z" fill="#42E8E0"/>
<path d="M176.221 350.048L179.178 351.751L179.536 349.654L176.579 347.934L176.221 350.048Z" fill="#42E8E0"/>
<path d="M163.137 353.072L167.922 355.832L168.281 353.717L163.496 350.957L163.137 353.072Z" fill="#42E8E0"/>
<path d="M151.918 346.587L161.292 352L161.65 349.885L152.277 344.473L151.918 346.587Z" fill="#42E8E0"/>
<path d="M165.36 380.732L174.733 386.144L175.074 384.048L165.718 378.617L165.36 380.732Z" fill="#42E8E0"/>
<path d="M160.539 377.933L163.496 379.653L163.855 377.556L160.88 375.836L160.539 377.933Z" fill="#42E8E0"/>
<path d="M166.918 371.084L176.292 376.496L176.65 374.399L167.277 368.969L166.918 371.084Z" fill="#42E8E0"/>
<path d="M162.098 368.306L165.055 370.009L165.413 367.912L162.456 366.191L162.098 368.306Z" fill="#42E8E0"/>
<path d="M158.442 422.327L140.771 412.129L140.43 414.226L158.083 424.441L158.442 422.327Z" fill="#42E8E0"/>
<path d="M164.661 425.929L160.288 423.402L159.929 425.499L164.302 428.026L164.661 425.929Z" fill="#42E8E0"/>
<path d="M195.684 427.971L178.03 417.773L177.672 419.87L195.325 430.086L195.684 427.971Z" fill="#42E8E0"/>
<path d="M201.902 431.57L197.547 429.043L197.189 431.14L201.544 433.667L201.902 431.57Z" fill="#42E8E0"/>
<path d="M146.38 410.065L141.595 407.305L141.237 409.419L146.022 412.179L146.38 410.065Z" fill="#42E8E0"/>
<path d="M175.485 416.321L170.7 413.543L170.342 415.658L175.127 418.418L175.485 416.321Z" fill="#42E8E0"/>
<path d="M157.599 416.553L148.226 411.141L147.868 413.255L157.241 418.668L157.599 416.553Z" fill="#42E8E0"/>
<path d="M162.421 419.353L159.463 417.633L159.105 419.748L162.062 421.45L162.421 419.353Z" fill="#42E8E0"/>
<path d="M173.729 425.873L164.356 420.461L164.016 422.558L173.389 427.988L173.729 425.873Z" fill="#42E8E0"/>
<path d="M178.55 428.67L175.593 426.949L175.234 429.046L178.209 430.767L178.55 428.67Z" fill="#42E8E0"/>
<path d="M174.662 421.127L169.876 418.367L169.536 420.482L174.303 423.242L174.662 421.127Z" fill="#42E8E0"/>
<path d="M185.898 427.608L176.525 422.195L176.167 424.31L185.54 429.723L185.898 427.608Z" fill="#42E8E0"/>
<path d="M190.72 430.408L187.745 428.688L187.386 430.802L190.361 432.505L190.72 430.408Z" fill="#42E8E0"/>
<path d="M152.187 408.149L142.401 402.504L142.043 404.601L151.828 410.264L152.187 408.149Z" fill="#42E8E0"/>
<path d="M161.13 413.309L154.051 409.223L153.692 411.337L160.772 415.424L161.13 413.309Z" fill="#42E8E0"/>
<path d="M167.761 417.143L162.976 414.383L162.617 416.498L167.402 419.258L167.761 417.143Z" fill="#42E8E0"/>
<path d="M214.161 438.614L204.376 432.969L204.018 435.066L213.803 440.729L214.161 438.614Z" fill="#42E8E0"/>
<path d="M223.087 443.778L216.008 439.691L215.649 441.806L222.729 445.892L223.087 443.778Z" fill="#42E8E0"/>
<path d="M229.718 447.612L224.932 444.852L224.592 446.966L229.377 449.726L229.718 447.612Z" fill="#42E8E0"/>
<path d="M210.326 375.025L220.13 380.67L220.47 378.574L210.685 372.91L210.326 375.025Z" fill="#42E8E0"/>
<path d="M201.401 369.865L208.48 373.951L208.839 371.836L201.759 367.75L201.401 369.865Z" fill="#42E8E0"/>
<path d="M194.77 366.029L199.555 368.789L199.895 366.674L195.11 363.914L194.77 366.029Z" fill="#42E8E0"/>
<path d="M207.082 367.839L216.867 373.502L217.226 371.388L207.44 365.742L207.082 367.839Z" fill="#42E8E0"/>
<path d="M198.157 362.679L205.236 366.765L205.594 364.668L198.515 360.582L198.157 362.679Z" fill="#42E8E0"/>
<path d="M191.508 358.845L196.293 361.605L196.651 359.508L191.866 356.73L191.508 358.845Z" fill="#42E8E0"/>
<path d="M167.564 376.748L170.862 378.647L171.221 376.55L167.923 374.633L167.564 376.748Z" fill="#42E8E0"/>
<path d="M161.345 373.144L165.7 375.671L166.059 373.556L161.704 371.047L161.345 373.144Z" fill="#42E8E0"/>
<path d="M153.065 403.36L143.28 397.715L142.922 399.812L152.707 405.475L153.065 403.36Z" fill="#42E8E0"/>
<path d="M162.008 408.52L154.929 404.434L154.571 406.548L161.65 410.635L162.008 408.52Z" fill="#42E8E0"/>
<path d="M168.64 412.362L163.855 409.602L163.496 411.716L168.281 414.476L168.64 412.362Z" fill="#42E8E0"/>
<path d="M147.402 394.816L144.087 392.898L143.746 395.013L147.044 396.913L147.402 394.816Z" fill="#42E8E0"/>
<path d="M153.621 398.402L149.248 395.875L148.89 397.99L153.263 400.517L153.621 398.402Z" fill="#42E8E0"/>
<path d="M162.51 403.541L155.467 399.473L155.126 401.587L162.152 405.656L162.51 403.541Z" fill="#42E8E0"/>
<path d="M172.062 363.472L175.36 365.39L175.719 363.275L172.421 361.375L172.062 363.472Z" fill="#42E8E0"/>
<path d="M165.844 359.884L170.199 362.411L170.557 360.297L166.202 357.77L165.844 359.884Z" fill="#42E8E0"/>
<path d="M156.937 354.744L163.98 358.812L164.338 356.697L157.295 352.629L156.937 354.744Z" fill="#42E8E0"/>
<path d="M177.099 371.284L184.142 375.353L184.483 373.256L177.457 369.188L177.099 371.284Z" fill="#42E8E0"/>
<path d="M165.574 365.011L175.073 370.495L175.431 368.398L165.933 362.914L165.574 365.011Z" fill="#42E8E0"/>
<path d="M160.753 362.236L163.728 363.938L164.087 361.842L161.112 360.121L160.753 362.236Z" fill="#42E8E0"/>
<path d="M156.13 359.542L159.105 361.263L159.464 359.166L156.489 357.445L156.13 359.542Z" fill="#42E8E0"/>
<path d="M156.775 386.752L166.148 392.164L166.488 390.067L157.115 384.637L156.775 386.752Z" fill="#42E8E0"/>
<path d="M151.954 383.952L154.911 385.673L155.269 383.576L152.294 381.855L151.954 383.952Z" fill="#42E8E0"/>
<path d="M157.42 392.416L160.718 394.315L161.077 392.218L157.761 390.301L157.42 392.416Z" fill="#42E8E0"/>
<path d="M169.087 388.556L172.385 390.456L172.743 388.359L169.446 386.441L169.087 388.556Z" fill="#42E8E0"/>
<path d="M173.8 391.261L181.722 395.849L182.08 393.734L174.159 389.164L173.8 391.261Z" fill="#42E8E0"/>
<path d="M183.138 396.659L187.851 399.384L188.21 397.287L183.496 394.562L183.138 396.659Z" fill="#42E8E0"/>
<path d="M151.184 388.81L155.557 391.337L155.915 389.222L151.542 386.695L151.184 388.81Z" fill="#42E8E0"/>
<path d="M150.771 393.763L154.087 395.681L154.445 393.566L151.13 391.648L150.771 393.763Z" fill="#42E8E0"/>
<path d="M144.552 390.159L148.925 392.686L149.284 390.59L144.911 388.062L144.552 390.159Z" fill="#42E8E0"/>
<path d="M164.284 385.779L167.259 387.499L167.617 385.385L164.642 383.664L164.284 385.779Z" fill="#42E8E0"/>
<path d="M159.661 383.111L162.636 384.831L162.976 382.717L160.019 380.996L159.661 383.111Z" fill="#42E8E0"/>
<path d="M182.458 358.916L192.583 364.776L192.942 362.661L182.816 356.801L182.458 358.916Z" fill="#42E8E0"/>
<path d="M171.113 352.359L180.611 357.843L180.97 355.746L171.471 350.262L171.113 352.359Z" fill="#42E8E0"/>
<path d="M166.292 349.58L169.267 351.282L169.626 349.185L166.65 347.465L166.292 349.58Z" fill="#42E8E0"/>
<path d="M161.668 346.894L164.643 348.614L165.001 346.517L162.026 344.797L161.668 346.894Z" fill="#42E8E0"/>
<path d="M159.141 345.443L152.725 341.734L153.083 339.637L159.499 343.329L159.141 345.443Z" fill="#42E8E0"/>
<path d="M94.855 430.645L99.8015 433.494L104.748 430.645L99.8015 427.777L94.855 430.645Z" fill="#24126A"/>
<path d="M82.7393 437.635L93.0086 443.549L97.9371 440.699L87.6858 434.785L82.7393 437.635Z" fill="#24126A"/>
<path opacity="0.5" d="M414 253.176V0H207V253.176L310.491 304L414 253.176Z" fill="url(#paint28_linear_10950_4147)"/>
<defs>
<linearGradient id="paint0_linear_10950_4147" x1="0.0459556" y1="295.602" x2="249.494" y2="295.602" gradientUnits="userSpaceOnUse">
<stop stop-color="#5761D7"/>
<stop offset="0.1779" stop-color="#5C66D9"/>
<stop offset="0.3876" stop-color="#6A73DF"/>
<stop offset="0.6134" stop-color="#8289E8"/>
<stop offset="0.849" stop-color="#A3A7F5"/>
<stop offset="1" stop-color="#BCBEFF"/>
</linearGradient>
<linearGradient id="paint1_linear_10950_4147" x1="83.8618" y1="287.279" x2="333.443" y2="287.279" gradientUnits="userSpaceOnUse">
<stop stop-color="#C0BFF6"/>
<stop offset="0.2938" stop-color="#C5C4F7"/>
<stop offset="0.6399" stop-color="#D3D2F9"/>
<stop offset="1" stop-color="#E9E9FD"/>
</linearGradient>
<linearGradient id="paint2_linear_10950_4147" x1="67.6688" y1="268.074" x2="131.554" y2="268.074" gradientUnits="userSpaceOnUse">
<stop stop-color="#C0BFF6"/>
<stop offset="0.2938" stop-color="#C5C4F7"/>
<stop offset="0.6399" stop-color="#D3D2F9"/>
<stop offset="1" stop-color="#E9E9FD"/>
</linearGradient>
<linearGradient id="paint3_linear_10950_4147" x1="72.6639" y1="256.573" x2="249.286" y2="256.573" gradientUnits="userSpaceOnUse">
<stop stop-color="#C0BFF6"/>
<stop offset="0.2938" stop-color="#C5C4F7"/>
<stop offset="0.6399" stop-color="#D3D2F9"/>
<stop offset="1" stop-color="#E9E9FD"/>
</linearGradient>
<linearGradient id="paint4_linear_10950_4147" x1="72.6653" y1="301.869" x2="102.993" y2="301.869" gradientUnits="userSpaceOnUse">
<stop stop-color="#5761D7"/>
<stop offset="0.1779" stop-color="#5C66D9"/>
<stop offset="0.3876" stop-color="#6A73DF"/>
<stop offset="0.6134" stop-color="#8289E8"/>
<stop offset="0.849" stop-color="#A3A7F5"/>
<stop offset="1" stop-color="#BCBEFF"/>
</linearGradient>
<linearGradient id="paint5_linear_10950_4147" x1="621.122" y1="295.602" x2="371.674" y2="295.602" gradientUnits="userSpaceOnUse">
<stop stop-color="#5761D7"/>
<stop offset="0.1779" stop-color="#5C66D9"/>
<stop offset="0.3876" stop-color="#6A73DF"/>
<stop offset="0.6134" stop-color="#8289E8"/>
<stop offset="0.849" stop-color="#A3A7F5"/>
<stop offset="1" stop-color="#BCBEFF"/>
</linearGradient>
<linearGradient id="paint6_linear_10950_4147" x1="537.307" y1="287.279" x2="287.726" y2="287.279" gradientUnits="userSpaceOnUse">
<stop stop-color="#C0BFF6"/>
<stop offset="0.2938" stop-color="#C5C4F7"/>
<stop offset="0.6399" stop-color="#D3D2F9"/>
<stop offset="1" stop-color="#E9E9FD"/>
</linearGradient>
<linearGradient id="paint7_linear_10950_4147" x1="553.5" y1="268.074" x2="489.615" y2="268.074" gradientUnits="userSpaceOnUse">
<stop stop-color="#C0BFF6"/>
<stop offset="0.2938" stop-color="#C5C4F7"/>
<stop offset="0.6399" stop-color="#D3D2F9"/>
<stop offset="1" stop-color="#E9E9FD"/>
</linearGradient>
<linearGradient id="paint8_linear_10950_4147" x1="548.505" y1="256.573" x2="371.882" y2="256.573" gradientUnits="userSpaceOnUse">
<stop stop-color="#C0BFF6"/>
<stop offset="0.2938" stop-color="#C5C4F7"/>
<stop offset="0.6399" stop-color="#D3D2F9"/>
<stop offset="1" stop-color="#E9E9FD"/>
</linearGradient>
<linearGradient id="paint9_linear_10950_4147" x1="548.504" y1="301.869" x2="518.176" y2="301.869" gradientUnits="userSpaceOnUse">
<stop stop-color="#5761D7"/>
<stop offset="0.1779" stop-color="#5C66D9"/>
<stop offset="0.3876" stop-color="#6A73DF"/>
<stop offset="0.6134" stop-color="#8289E8"/>
<stop offset="0.849" stop-color="#A3A7F5"/>
<stop offset="1" stop-color="#BCBEFF"/>
</linearGradient>
<linearGradient id="paint10_linear_10950_4147" x1="381.766" y1="425.332" x2="381.766" y2="328.049" gradientUnits="userSpaceOnUse">
<stop stop-color="#C0BFF6"/>
<stop offset="0.2938" stop-color="#C5C4F7"/>
<stop offset="0.6399" stop-color="#D3D2F9"/>
<stop offset="1" stop-color="#E9E9FD"/>
</linearGradient>
<linearGradient id="paint11_linear_10950_4147" x1="381.766" y1="344.665" x2="381.766" y2="247.381" gradientUnits="userSpaceOnUse">
<stop stop-color="#C0BFF6"/>
<stop offset="0.2938" stop-color="#C5C4F7"/>
<stop offset="0.6399" stop-color="#D3D2F9"/>
<stop offset="1" stop-color="#E9E9FD"/>
</linearGradient>
<radialGradient id="paint12_radial_10950_4147" cx="0" cy="0" r="1" gradientUnits="userSpaceOnUse" gradientTransform="translate(355.901 239.369) scale(3.69085 3.69087)">
<stop stop-color="#FF2C9C"/>
<stop offset="0.0301" stop-color="#F62F9F"/>
<stop offset="0.2023" stop-color="#C63EB0"/>
<stop offset="0.3737" stop-color="#9E4BBE"/>
<stop offset="0.5413" stop-color="#7F54C9"/>
<stop offset="0.7039" stop-color="#695BD1"/>
<stop offset="0.8594" stop-color="#5C60D5"/>
<stop offset="1" stop-color="#5761D7"/>
</radialGradient>
<linearGradient id="paint13_linear_10950_4147" x1="343.153" y1="393.669" x2="522.898" y2="393.669" gradientUnits="userSpaceOnUse">
<stop stop-color="#C0BFF6"/>
<stop offset="0.2938" stop-color="#C5C4F7"/>
<stop offset="0.6399" stop-color="#D3D2F9"/>
<stop offset="1" stop-color="#E9E9FD"/>
</linearGradient>
<linearGradient id="paint14_linear_10950_4147" x1="343.153" y1="439.762" x2="374.017" y2="439.762" gradientUnits="userSpaceOnUse">
<stop stop-color="#5761D7"/>
<stop offset="0.1779" stop-color="#5C66D9"/>
<stop offset="0.3876" stop-color="#6A73DF"/>
<stop offset="0.6134" stop-color="#8289E8"/>
<stop offset="0.849" stop-color="#A3A7F5"/>
<stop offset="1" stop-color="#BCBEFF"/>
</linearGradient>
<linearGradient id="paint15_linear_10950_4147" x1="367.234" y1="491.58" x2="621.093" y2="491.58" gradientUnits="userSpaceOnUse">
<stop stop-color="#5761D7"/>
<stop offset="0.1779" stop-color="#5C66D9"/>
<stop offset="0.3876" stop-color="#6A73DF"/>
<stop offset="0.6134" stop-color="#8289E8"/>
<stop offset="0.849" stop-color="#A3A7F5"/>
<stop offset="1" stop-color="#BCBEFF"/>
</linearGradient>
<linearGradient id="paint16_linear_10950_4147" x1="452.531" y1="483.117" x2="706.525" y2="483.117" gradientUnits="userSpaceOnUse">
<stop stop-color="#C0BFF6"/>
<stop offset="0.2938" stop-color="#C5C4F7"/>
<stop offset="0.6399" stop-color="#D3D2F9"/>
<stop offset="1" stop-color="#E9E9FD"/>
</linearGradient>
<linearGradient id="paint17_linear_10950_4147" x1="495.545" y1="497.538" x2="560.561" y2="497.538" gradientUnits="userSpaceOnUse">
<stop stop-color="#C0BFF6"/>
<stop offset="0.2938" stop-color="#C5C4F7"/>
<stop offset="0.6399" stop-color="#D3D2F9"/>
<stop offset="1" stop-color="#E9E9FD"/>
</linearGradient>
<linearGradient id="paint18_linear_10950_4147" x1="355.492" y1="426.824" x2="609.485" y2="426.824" gradientUnits="userSpaceOnUse">
<stop stop-color="#C0BFF6"/>
<stop offset="0.2938" stop-color="#C5C4F7"/>
<stop offset="0.6399" stop-color="#D3D2F9"/>
<stop offset="1" stop-color="#E9E9FD"/>
</linearGradient>
<linearGradient id="paint19_linear_10950_4147" x1="338.775" y1="408.18" x2="403.79" y2="408.18" gradientUnits="userSpaceOnUse">
<stop stop-color="#C0BFF6"/>
<stop offset="0.2938" stop-color="#C5C4F7"/>
<stop offset="0.6399" stop-color="#D3D2F9"/>
<stop offset="1" stop-color="#E9E9FD"/>
</linearGradient>
<linearGradient id="paint20_linear_10950_4147" x1="8.26801" y1="507.412" x2="247.554" y2="507.412" gradientUnits="userSpaceOnUse">
<stop stop-color="#5761D7"/>
<stop offset="0.1406" stop-color="#5C60D5"/>
<stop offset="0.2961" stop-color="#695BD1"/>
<stop offset="0.4587" stop-color="#7F54C9"/>
<stop offset="0.6263" stop-color="#9E4BBE"/>
<stop offset="0.7977" stop-color="#C63EB0"/>
<stop offset="0.9699" stop-color="#F62F9F"/>
<stop offset="1" stop-color="#FF2C9C"/>
</linearGradient>
<linearGradient id="paint21_linear_10950_4147" x1="278.018" y1="393.669" x2="98.2731" y2="393.669" gradientUnits="userSpaceOnUse">
<stop stop-color="#C0BFF6"/>
<stop offset="0.2938" stop-color="#C5C4F7"/>
<stop offset="0.6399" stop-color="#D3D2F9"/>
<stop offset="1" stop-color="#E9E9FD"/>
</linearGradient>
<linearGradient id="paint22_linear_10950_4147" x1="278.017" y1="439.762" x2="247.153" y2="439.762" gradientUnits="userSpaceOnUse">
<stop stop-color="#5761D7"/>
<stop offset="0.1779" stop-color="#5C66D9"/>
<stop offset="0.3876" stop-color="#6A73DF"/>
<stop offset="0.6134" stop-color="#8289E8"/>
<stop offset="0.849" stop-color="#A3A7F5"/>
<stop offset="1" stop-color="#BCBEFF"/>
</linearGradient>
<linearGradient id="paint23_linear_10950_4147" x1="253.937" y1="491.58" x2="0.0778865" y2="491.58" gradientUnits="userSpaceOnUse">
<stop stop-color="#5761D7"/>
<stop offset="0.1779" stop-color="#5C66D9"/>
<stop offset="0.3876" stop-color="#6A73DF"/>
<stop offset="0.6134" stop-color="#8289E8"/>
<stop offset="0.849" stop-color="#A3A7F5"/>
<stop offset="1" stop-color="#BCBEFF"/>
</linearGradient>
<linearGradient id="paint24_linear_10950_4147" x1="168.64" y1="483.117" x2="-85.3544" y2="483.117" gradientUnits="userSpaceOnUse">
<stop stop-color="#C0BFF6"/>
<stop offset="0.2938" stop-color="#C5C4F7"/>
<stop offset="0.6399" stop-color="#D3D2F9"/>
<stop offset="1" stop-color="#E9E9FD"/>
</linearGradient>
<linearGradient id="paint25_linear_10950_4147" x1="125.626" y1="497.538" x2="60.6108" y2="497.538" gradientUnits="userSpaceOnUse">
<stop stop-color="#C0BFF6"/>
<stop offset="0.2938" stop-color="#C5C4F7"/>
<stop offset="0.6399" stop-color="#D3D2F9"/>
<stop offset="1" stop-color="#E9E9FD"/>
</linearGradient>
<linearGradient id="paint26_linear_10950_4147" x1="265.68" y1="426.824" x2="11.6858" y2="426.824" gradientUnits="userSpaceOnUse">
<stop stop-color="#C0BFF6"/>
<stop offset="0.2938" stop-color="#C5C4F7"/>
<stop offset="0.6399" stop-color="#D3D2F9"/>
<stop offset="1" stop-color="#E9E9FD"/>
</linearGradient>
<linearGradient id="paint27_linear_10950_4147" x1="282.397" y1="408.18" x2="217.382" y2="408.18" gradientUnits="userSpaceOnUse">
<stop stop-color="#C0BFF6"/>
<stop offset="0.2938" stop-color="#C5C4F7"/>
<stop offset="0.6399" stop-color="#D3D2F9"/>
<stop offset="1" stop-color="#E9E9FD"/>
</linearGradient>
<linearGradient id="paint28_linear_10950_4147" x1="310.494" y1="303.998" x2="310.494" y2="0" gradientUnits="userSpaceOnUse">
<stop stop-color="#42E8E0"/>
<stop offset="0.1055" stop-color="#37B6BF"/>
<stop offset="0.2197" stop-color="#2C87A1"/>
<stop offset="0.338" stop-color="#235F87"/>
<stop offset="0.4587" stop-color="#1C3F72"/>
<stop offset="0.5824" stop-color="#172E62"/>
<stop offset="0.7105" stop-color="#142956"/>
<stop offset="0.8458" stop-color="#091E4C"/>
<stop offset="1" stop-color="#002576"/>
</linearGradient>
</defs>
</svg>
