<svg width="958" height="563" viewBox="0 0 958 563" fill="none" xmlns="http://www.w3.org/2000/svg">
<path opacity="0.1" d="M957.982 71.5527L931.439 86.8683V136.236L695.579 272.339L677.657 262.003L799.315 191.802V179.245L820.875 166.796V137.938L862.706 113.809C864.463 114.544 866.918 114.454 868.495 113.541C870.252 112.538 870.252 110.89 868.495 109.886C866.739 108.883 863.907 108.883 862.151 109.886C860.574 110.8 860.43 112.215 861.703 113.236L819.872 137.383V166.24L799.315 178.099V131.883L799.064 131.74L787.181 124.88L858.494 83.7335V37.4465L909.161 8.21266C910.918 8.94709 913.373 8.85752 914.95 7.94396C916.707 6.94084 916.707 5.29284 914.95 4.28972C913.194 3.2866 910.362 3.2866 908.606 4.28972C907.029 5.20328 906.885 6.61841 908.158 7.63944L857.491 36.8733V83.1603L786.177 124.306L670.237 57.4015V5.63319C671.205 5.56154 672.155 5.32868 672.907 4.89877C674.664 3.89564 674.664 2.24765 672.907 1.24453C671.151 0.241407 668.319 0.241407 666.563 1.24453C664.807 2.24765 664.807 3.89564 666.563 4.89877C667.316 5.32868 668.266 5.56154 669.233 5.63319V57.9747L669.484 58.1181L739.221 98.3684H688.392L647.296 74.6517C648.569 73.6485 648.425 72.2155 646.848 71.302C645.092 70.2988 642.26 70.2988 640.504 71.302C638.747 72.3051 638.747 73.9531 640.504 74.9562C642.081 75.8697 644.536 75.9414 646.293 75.2249L688.124 99.3715H740.941V99.3536L798.329 132.475V191.247L676.671 261.448L660.362 252.043L746.461 202.353C748.218 203.087 750.673 202.998 752.25 202.084C754.007 201.081 754.007 199.433 752.25 198.43C750.494 197.427 747.662 197.427 745.906 198.43C744.328 199.344 744.185 200.759 745.458 201.78L659.358 251.47L643.604 242.388L746.587 182.953H774.582C774.743 183.437 775.155 183.903 775.818 184.279C777.575 185.282 780.406 185.282 782.163 184.279C783.919 183.276 783.919 181.628 782.163 180.625C780.406 179.621 777.575 179.621 775.818 180.625C775.173 181.001 774.761 181.466 774.582 181.95H746.318L746.192 182.022L642.583 241.815L636.22 238.143L635.969 238.286L631.327 240.973L606.648 226.732V206.921L627.044 195.152V195.206H659.036L694.253 174.874C696.01 175.609 698.465 175.519 700.042 174.606C701.798 173.603 701.798 171.955 700.042 170.952C698.286 169.948 695.454 169.948 693.698 170.952C692.12 171.865 691.977 173.28 693.249 174.301L658.767 194.203H628.693L688.625 159.613C690.382 160.401 692.927 160.347 694.54 159.416C696.296 158.412 696.296 156.764 694.54 155.761C692.783 154.758 689.952 154.758 688.195 155.761C686.654 156.657 686.475 158.018 687.64 159.039L612.885 202.174V192.644L657.369 166.975V148.847L693.572 127.961C695.328 128.695 697.784 128.605 699.361 127.692C701.117 126.689 701.117 125.041 699.361 124.038C697.605 123.034 694.773 123.034 693.016 124.038C691.439 124.951 691.296 126.366 692.568 127.387L656.365 148.292V166.42L611.882 192.089V202.783L605.645 206.383V227.359L630.324 241.6L614.104 250.951L563.33 221.645V188.345L597.812 168.444C599.569 169.232 602.114 169.178 603.727 168.247C605.483 167.244 605.483 165.596 603.727 164.592C601.97 163.589 599.139 163.589 597.382 164.592C595.841 165.488 595.662 166.849 596.827 167.871L563.33 187.199V160.293L589.801 145.032V94.4096C590.769 94.338 591.719 94.1051 592.471 93.6752C594.228 92.6721 594.228 91.0241 592.471 90.021C590.715 89.0178 587.883 89.0178 586.127 90.021C584.371 91.0241 584.371 92.6721 586.127 93.6752C586.88 94.1051 587.83 94.338 588.797 94.4096V144.44L563.347 159.129V69.8868H562.344V222.254L613.118 251.56L594.909 262.057L528.542 223.759V132.564L496.64 114.15V79.8464L468.466 63.5994C469.739 62.5963 469.595 61.1632 468.018 60.2497C466.262 59.2466 463.43 59.2466 461.673 60.2497C459.917 61.2528 459.917 62.9008 461.673 63.9039C463.251 64.8175 465.706 64.8891 467.462 64.1726L495.636 80.4196V114.723L527.538 133.137V224.332L593.905 262.63L580.41 270.422L490.851 218.743V140.929L490.6 140.786L411.329 95.0366C412.602 94.0335 412.458 92.6004 410.881 91.6868C409.125 90.6837 406.293 90.6837 404.537 91.6868C402.78 92.69 402.78 94.338 404.537 95.3411C406.114 96.2547 408.569 96.3263 410.326 95.6098L489.847 141.503V219.316L490.098 219.46L579.406 270.995L557.541 283.624L408.533 197.642V158.914L408.282 158.771L283.542 86.7787C284.815 85.7756 284.671 84.3426 283.094 83.429C281.338 82.4259 278.506 82.4259 276.75 83.429C274.993 84.4321 274.993 86.0801 276.75 87.0832C278.327 87.9968 280.782 88.0684 282.539 87.3519L407.548 159.487V198.215L407.799 198.358L491.353 246.58H425.076L348.35 202.299C349.622 201.278 349.479 199.863 347.902 198.949C346.145 197.946 343.314 197.946 341.557 198.949C339.801 199.953 339.801 201.601 341.557 202.604C343.134 203.517 345.59 203.589 347.346 202.872L424.807 247.583H493.091L556.555 284.197L531.141 298.868L476.603 267.395H389.016L289.403 209.912H234.148L211.619 196.907C212.892 195.904 212.748 194.471 211.171 193.558C209.415 192.555 206.583 192.555 204.827 193.558C203.07 194.561 203.07 196.209 204.827 197.212C206.404 198.125 208.859 198.197 210.616 197.481L233.879 210.897H289.134L364.408 254.336H299.332L268.021 236.262C269.294 235.259 269.15 233.826 267.573 232.912C265.817 231.909 262.985 231.909 261.229 232.912C259.472 233.915 259.472 235.563 261.229 236.567C262.806 237.48 265.261 237.552 267.018 236.835L299.063 255.321H366.093L388.693 268.362H476.28L491.55 277.175H454.325L454.218 277.247L435.543 288.03H357.723L335.768 275.366H291.751C291.589 274.882 291.177 274.417 290.532 274.04C288.776 273.037 285.944 273.037 284.187 274.04C282.431 275.044 282.431 276.692 284.187 277.695C285.944 278.698 288.776 278.698 290.532 277.695C291.177 277.318 291.589 276.853 291.769 276.369H335.517L357.472 289.034H433.822L412.799 301.161C411.043 300.426 408.587 300.516 407.01 301.429C405.254 302.432 405.254 304.08 407.01 305.083C408.766 306.087 411.598 306.087 413.355 305.083C414.932 304.17 415.075 302.755 413.803 301.752L454.63 278.196H493.342L530.155 299.441L516.552 307.287L517.305 307.717L525.298 312.338H499.866L466.602 293.153C467.875 292.15 467.731 290.717 466.154 289.804C464.398 288.801 461.566 288.801 459.81 289.804C458.053 290.807 458.053 292.455 459.81 293.458C461.387 294.372 463.842 294.443 465.598 293.727L499.597 313.341H527.055L545.676 324.089L534.224 330.699H513.917L513.792 330.771L496.049 340.999H482.732L452.641 323.641C453.985 322.62 453.877 321.169 452.264 320.238C450.508 319.235 447.676 319.235 445.92 320.238C444.163 321.241 444.163 322.889 445.92 323.892C447.461 324.788 449.863 324.877 451.619 324.197L482.463 341.984H496.318L496.425 341.912L514.168 331.684H532.467L495.869 352.804H476.047L434.861 329.033H310.659L233.61 284.573C234.936 283.552 234.829 282.119 233.216 281.188C231.46 280.185 228.628 280.185 226.871 281.188C225.115 282.191 225.115 283.839 226.871 284.842C228.431 285.738 230.832 285.827 232.589 285.146L310.372 330.036H434.575L475.76 353.807H496.067L496.174 353.735L546.572 324.644L559.799 332.275L502.841 365.146H462.677L429.538 346.015H344.479C344.317 345.531 343.905 345.065 343.242 344.689C341.485 343.686 338.654 343.686 336.897 344.689C335.141 345.692 335.141 347.34 336.897 348.343C338.654 349.346 341.485 349.346 343.242 348.343C343.887 347.967 344.299 347.501 344.461 347.018H429.252L460.652 365.146H340.804L340.697 365.217L226.477 431.119C224.721 430.384 222.265 430.474 220.688 431.388C218.932 432.391 218.932 434.039 220.688 435.042C222.445 436.045 225.276 436.045 227.033 435.042C228.61 434.128 228.753 432.713 227.481 431.71L341.073 366.167H503.11L503.218 366.095L560.785 332.866L575.804 341.536L496.389 387.358H356.558L356.451 387.429L234.005 458.096H91.3239L8.10991 410.071C9.38241 409.068 9.23903 407.635 7.66185 406.739C5.90545 405.736 3.0737 405.736 1.3173 406.739C-0.4391 407.742 -0.4391 409.39 1.3173 410.394C2.89448 411.307 5.34985 411.379 7.10625 410.662L91.055 459.099H234.273L234.399 459.027L356.845 388.361H458.698L309.135 474.665V497.379L249.472 531.807C247.715 531.073 245.26 531.162 243.683 532.076C241.926 533.079 241.926 534.727 243.683 535.73C245.439 536.733 248.271 536.733 250.027 535.73C251.604 534.817 251.748 533.402 250.475 532.381L310.139 497.952V475.238L460.724 388.343H495.69L420.398 431.71V441.293L384.374 462.09C382.618 461.356 380.162 461.445 378.585 462.359C376.829 463.362 376.829 465.01 378.585 466.013C380.341 467.016 383.173 467.016 384.93 466.013C386.507 465.1 386.65 463.685 385.378 462.663L405.003 451.342V477.585L291.661 542.985C289.905 542.251 287.449 542.34 285.872 543.254C284.116 544.257 284.116 545.905 285.872 546.908C287.629 547.911 290.46 547.911 292.217 546.908C293.794 545.994 293.937 544.579 292.665 543.558L406.006 478.158V450.751L421.42 441.867V432.283L497.339 388.468L497.088 388.038L576.879 342.002L591.378 350.367L509.401 397.675V475.489L358.655 562.474H360.663L485.474 490.464V560.844L482.625 562.492H484.632L486.46 561.435V489.891L510.387 476.08V398.266L592.346 350.976L605.107 358.339L541.912 394.809V437.46L542.163 437.603L614.014 479.072V493.545L573.384 516.993C571.628 516.259 569.172 516.349 567.595 517.262C565.839 518.265 565.839 519.913 567.595 520.916C569.352 521.919 572.183 521.919 573.94 520.916C575.517 520.003 575.66 518.588 574.388 517.567L615.018 494.119V478.498L614.767 478.355L542.916 436.887V395.383L590.661 367.832V385.602L568.778 398.231C567.022 397.496 564.566 397.586 562.989 398.499C561.233 399.502 561.233 401.15 562.989 402.154C564.745 403.157 567.577 403.157 569.334 402.154C570.911 401.24 571.054 399.825 569.782 398.804L591.665 386.175V367.241L606.111 358.912L623.191 368.764V399.717L590.984 418.311V439.717L591.235 439.86L659.053 479C657.781 480.021 657.924 481.436 659.501 482.35C661.258 483.353 664.09 483.353 665.846 482.35C667.602 481.347 667.602 479.699 665.846 478.696C664.269 477.782 661.813 477.71 660.057 478.427L591.988 439.144V418.902L623.191 400.9V422.234L664.932 446.327C663.659 447.33 663.803 448.763 665.38 449.659C667.136 450.662 669.968 450.662 671.725 449.659C673.481 448.656 673.481 447.008 671.725 446.004C670.147 445.091 667.692 445.019 665.936 445.736L624.194 421.643V369.355L636.184 376.269L636.435 376.126L655.953 364.859L673.857 375.195V400.291L721.441 427.751V451.414C720.474 451.486 719.524 451.719 718.771 452.149C717.015 453.152 717.015 454.8 718.771 455.803C720.527 456.806 723.359 456.806 725.116 455.803C726.872 454.8 726.872 453.152 725.116 452.149C724.363 451.719 723.413 451.486 722.445 451.414V427.178L674.861 399.717V375.768L751.892 420.21V467.321L710.114 491.432H671.778L671.671 491.503L605.895 529.461C604.139 528.726 601.684 528.816 600.106 529.729C598.35 530.733 598.35 532.381 600.106 533.384C601.863 534.387 604.695 534.387 606.451 533.384C608.028 532.47 608.172 531.055 606.899 530.052L672.065 492.453H708.394L587.561 562.188C585.804 561.453 583.349 561.543 581.772 562.456C581.754 562.474 581.736 562.492 581.718 562.492H589.048L752.931 467.93V419.655L752.68 419.511L657.01 364.304L676.259 353.198L839.604 447.455V503.702L895.415 535.909C894.142 536.913 894.286 538.346 895.863 539.241C897.619 540.244 900.451 540.244 902.207 539.241C903.964 538.238 903.964 536.59 902.207 535.587C900.63 534.673 898.175 534.602 896.418 535.318L840.608 503.111V446.864L840.357 446.721L677.263 352.606L695.597 342.02L857.15 435.239H953.484L958 437.854V436.69L953.752 434.236H857.419L721.047 355.544H748.469L795.013 382.396H830.858L830.984 382.324L880.7 353.628C882.457 354.362 884.912 354.272 886.489 353.359C888.246 352.356 888.246 350.708 886.489 349.705C884.733 348.701 881.901 348.701 880.145 349.705C878.568 350.618 878.424 352.033 879.697 353.054L830.589 381.393H795.282L748.737 354.541H719.309L696.601 341.447L745.529 313.216L759.437 321.241V342.324L794.78 362.727C793.508 363.73 793.651 365.163 795.228 366.059C796.985 367.062 799.816 367.062 801.573 366.059C803.329 365.056 803.329 363.408 801.573 362.405C799.996 361.491 797.54 361.42 795.784 362.136L760.441 341.733V321.814L798.132 343.56H815.982L816.108 343.489L837.4 331.201C839.156 331.935 841.612 331.845 843.189 330.932C844.945 329.929 844.945 328.281 843.189 327.278C841.432 326.274 838.601 326.274 836.844 327.278C835.267 328.191 835.124 329.606 836.396 330.627L815.732 342.557H798.418L746.533 312.625L755.96 307.179L755.207 306.749L725.886 289.822L739.973 281.689H761.265L776.499 290.484C775.281 291.488 775.442 292.885 777.001 293.78C778.757 294.784 781.589 294.784 783.346 293.78C785.102 292.777 785.102 291.129 783.346 290.126C781.751 289.195 779.241 289.141 777.485 289.893L761.516 280.686H741.694L777.61 259.961L862.115 308.72H922.926L923.051 308.648L957.283 288.89C957.498 288.98 957.749 289.016 958 289.087V284.466C957.552 284.591 957.122 284.752 956.745 284.967C955.168 285.881 955.025 287.296 956.297 288.299L922.675 307.699H862.402L797.236 270.082H825.123L852.383 285.809C851.11 286.83 851.254 288.245 852.831 289.159C854.587 290.162 857.419 290.162 859.176 289.159C860.932 288.156 860.932 286.508 859.176 285.505C857.598 284.591 855.143 284.519 853.387 285.236L825.374 269.079H795.461L778.596 259.352L821.502 234.596H957.964V233.593H823.241L840.267 223.777H941.762L941.87 223.705L957.964 214.426V213.262L941.493 222.774H839.998L839.873 222.845L724.847 289.213L712.086 281.85L833.009 212.062H921.456L921.564 211.99L957.982 191.014V189.85L921.187 211.076H832.74L832.632 211.148L711.082 281.295L696.583 272.93L932.443 136.827V87.4594L957.982 72.7171V71.5527V71.5527ZM753.935 307.179L636.202 375.105L518.488 307.179L636.22 239.253L753.935 307.179Z" fill="#42E8E0"/>
</svg>
