<svg width="825" height="844" viewBox="0 0 825 844" fill="none" xmlns="http://www.w3.org/2000/svg">
<rect width="825" height="844" rx="10" fill="#D5E6FB"/>
<path d="M294.915 645.984L292.834 642.364L485.866 530.883L487.946 534.48L294.915 645.984Z" fill="url(#paint0_linear_10954_5466)"/>
<path d="M520.74 551.72C516.782 551.72 512.643 550.747 509.318 548.847L433.124 504.838C429.596 502.802 427.583 499.951 427.583 497.032C427.583 494.475 429.075 492.19 431.812 490.629L482.269 461.486C487.629 458.386 496.608 458.726 502.714 462.255L578.909 506.264C582.437 508.3 584.45 511.151 584.45 514.07C584.45 516.627 582.957 518.912 580.221 520.473L529.764 549.616C527.321 551.019 524.087 551.72 520.74 551.72ZM491.271 463.522C488.647 463.522 486.159 464.02 484.373 465.084L433.915 494.227C432.943 494.792 431.789 495.742 431.789 497.032C431.789 498.412 433.079 499.974 435.25 501.218L511.444 545.227C516.216 547.987 523.68 548.326 527.728 545.996L578.185 516.853C579.158 516.287 580.311 515.337 580.311 514.047C580.311 512.667 579.022 511.106 576.851 509.861L500.656 465.853C497.988 464.292 494.527 463.522 491.271 463.522Z" fill="url(#paint1_linear_10954_5466)"/>
<path d="M419.691 121.902C416.344 132.876 414.512 145.479 414.512 159.62V246.8C414.512 324.975 469.583 420.391 537.251 459.489C550.73 467.273 563.712 472.205 575.857 474.558L564.685 502.072L623.985 468.019C646.217 455.19 659.968 427.676 659.968 388.6V301.398C659.968 223.223 604.897 127.808 537.228 88.7089C503.665 69.3181 473.201 67.3948 451.014 79.8846H450.992L450.54 80.1561C450.517 80.1788 450.472 80.2014 450.427 80.224L391.94 113.937L419.691 121.902ZM437.105 126.902L500.59 145.139L543.968 191.931L572.894 244.492L593.159 309.317L591.711 379.55L585.446 450.936L583.072 456.751C569.163 456.299 553.625 451.592 537.228 442.135C477.838 407.833 429.506 324.092 429.506 255.489V168.309C429.529 152.131 432.243 138.261 437.105 126.902Z" fill="#ACCCF8"/>
<g opacity="0.51">
<path d="M565.023 501.213L583.885 490.375C606.117 477.546 619.868 450.032 619.868 410.956V323.776C619.868 245.601 564.797 150.186 497.129 111.087C467.162 93.7778 439.706 90.4065 418.356 98.7783L429.596 92.2845C429.641 92.2618 429.664 92.2392 429.709 92.2166L430.161 91.945H430.207C452.393 79.4326 482.835 81.3785 516.421 100.769C584.111 139.868 639.16 235.261 639.16 313.458V400.638C639.16 438.402 626.291 465.305 605.371 478.654L564.661 502.027L565.023 501.213Z" fill="#002576"/>
</g>
<path d="M601.527 480.872C622.447 467.522 635.316 440.619 635.316 402.855V315.653C635.316 237.479 580.245 142.063 512.576 102.964C479.217 83.6864 448.934 81.6726 426.792 93.9362L429.642 92.2845C429.687 92.2618 429.71 92.2392 429.755 92.2166L430.207 91.945H430.253C452.439 79.4326 482.881 81.3785 516.466 100.769C584.157 139.868 639.206 235.261 639.206 313.458V400.638C639.206 438.402 626.337 465.305 605.417 478.654L564.707 502.027L564.73 501.959L601.527 480.872Z" fill="url(#paint2_linear_10954_5466)"/>
<path d="M370.296 154.306L397.3 127.947L419.622 122.132C420.617 118.873 421.748 115.773 422.992 112.832C428.33 116.249 434.142 118.579 440.045 120.819C433.328 133.173 429.551 149.148 429.551 168.312V255.492C429.551 324.095 477.86 407.836 537.273 442.138C553.534 451.528 568.936 456.234 582.777 456.732C583.049 463.067 583.682 469.425 583.772 475.761C580.696 475.444 577.553 474.969 574.364 474.29L552.856 497.708H516.217L470.261 482.911L434.594 450.125L384.454 386.454L358.739 313.303V205.759L370.296 154.306Z" fill="#33ADF8"/>
<path d="M353.289 282.011V194.831C353.289 116.657 408.36 84.8437 476.028 123.942C543.719 163.041 598.767 258.434 598.767 336.631V423.811C598.767 501.986 543.696 533.798 476.028 494.7C408.337 455.601 353.289 360.185 353.289 282.011ZM368.306 203.497V290.677C368.306 359.28 416.615 443.021 476.028 477.323C535.419 511.624 583.75 483.726 583.75 415.122V327.943C583.75 259.339 535.441 175.599 476.028 141.297C416.637 106.995 368.306 134.894 368.306 203.497Z" fill="url(#paint3_linear_10954_5466)"/>
<path d="M572.464 305.294L671.117 248.298C673.763 246.759 676.183 246.737 677.993 247.891V247.868L687.288 253.231L681.204 253.909C681.295 254.588 681.34 255.289 681.34 256.036V404.941C681.34 412.476 676.749 421.232 671.117 424.49L574.206 480.468L576.264 481.215L575.156 487.437L565.951 482.12C563.667 480.943 562.197 477.979 562.197 473.726V324.821C562.242 317.309 566.81 308.552 572.464 305.294Z" fill="url(#paint4_linear_10954_5466)"/>
<path d="M581.85 486.891L680.503 429.894C686.157 426.636 690.725 417.88 690.725 410.345V261.44C690.725 253.906 686.134 250.444 680.503 253.702L581.85 310.698C576.196 313.956 571.627 322.713 571.627 330.247V479.152C571.605 486.687 576.196 490.149 581.85 486.891Z" fill="url(#paint5_linear_10954_5466)"/>
<path d="M584.497 312.916L678.038 258.884C680.548 257.436 682.833 257.391 684.552 258.5V258.477L687.469 260.197L681.702 260.83C681.792 261.464 681.838 262.12 681.838 262.844L687.718 407.382C687.718 414.532 683.375 422.836 678.015 425.913L580.267 475.624L582.235 476.348L581.195 482.253L578.367 480.579C576.196 479.47 574.817 476.664 574.817 472.614V331.448C574.794 324.298 579.136 316.016 584.497 312.916Z" fill="url(#paint6_linear_10954_5466)"/>
<path d="M587.504 481.71L681.046 427.677C686.406 424.578 690.748 416.274 690.748 409.146V267.98C690.748 260.83 686.406 257.549 681.046 260.649L587.504 314.681C582.144 317.781 577.802 326.085 577.802 333.212V474.378C577.802 481.528 582.144 484.809 587.504 481.71Z" fill="#24126A"/>
<g opacity="0.51">
<path d="M592.435 470.039L676.093 421.709C680.887 418.949 684.777 411.527 684.777 405.124V278.868C684.777 272.488 680.887 269.546 676.093 272.306L592.435 320.637C587.64 323.397 583.75 330.819 583.75 337.222V463.478C583.772 469.881 587.663 472.822 592.435 470.039Z" fill="#002576"/>
</g>
<path d="M567.082 385.663L566.742 385.459C566.177 385.142 565.679 385.12 565.295 385.323V385.301L564.006 386.047L564.639 386.093C564.526 386.387 564.458 386.749 564.458 387.179V407.904C564.458 409.601 565.476 411.57 566.765 412.294L567.104 412.498C567.263 412.588 567.421 412.656 567.579 412.701L567.24 413.403L568.62 412.611H568.597C569.095 412.339 569.411 411.683 569.411 410.755V390.03C569.389 388.355 568.348 386.409 567.082 385.663Z" fill="url(#paint7_linear_10954_5466)"/>
<path d="M565.77 413.271L565.431 413.067C564.164 412.343 563.124 410.375 563.124 408.678V387.952C563.124 386.255 564.141 385.485 565.431 386.209L565.77 386.413C567.036 387.137 568.077 389.106 568.077 390.803V411.528C568.077 413.225 567.036 413.995 565.77 413.271Z" fill="#E9E9FD"/>
<g opacity="0.51">
<path d="M587.504 314.677L681.045 260.645C686.405 257.545 690.748 260.826 690.748 267.976V404.549L577.824 354.386V333.185C577.801 326.081 582.144 317.777 587.504 314.677Z" fill="#335191"/>
</g>
<g opacity="0.51">
<path d="M429.529 209.652L368.306 244.995V237.686L429.529 202.344V209.652Z" fill="#453C9E"/>
</g>
<g opacity="0.51">
<path d="M353.288 229.023L368.306 237.689V244.998L353.288 236.332V229.023Z" fill="#453C9E"/>
</g>
<path opacity="0.2" d="M337.049 582.457C302.581 582.389 281.096 563.428 298.352 548.359C306.358 541.367 321.149 537.068 337.139 537.114C371.584 537.182 393.092 556.143 375.836 571.212C367.83 578.203 353.039 582.502 337.049 582.457Z" fill="#302E93"/>
<path d="M359.145 528.855C359.145 528.855 360.638 530.394 362.176 532.227C363.714 534.06 368.056 536.594 369.865 537.725C371.675 538.856 380.02 545.192 381.784 551.414C383.526 557.636 377.555 558.473 371.471 557.387C365.365 556.301 359.665 550.667 358.014 548.654C356.363 546.617 350.574 542.001 343.088 538.132C335.602 534.263 340.125 529.036 340.125 529.036L359.145 528.855Z" fill="#160A5B"/>
<path d="M303.577 547.359C303.577 547.359 302.333 550.165 301.994 553.763C301.655 557.36 301.134 565.166 300.953 567.452C300.772 569.737 300.682 575.326 304.708 580.688C308.733 586.051 310.814 588.155 316.152 586.051C321.489 583.946 321.376 574.964 320.426 570.348C319.476 565.732 318.594 555.414 318.707 554.328C318.798 553.242 318.391 552.541 318.391 552.541L303.577 547.359Z" fill="#160A5B"/>
<path d="M377.578 423.007C377.578 423.007 376.447 464.142 366.858 485.977C366.858 485.977 360.005 505.209 359.078 528.085C359.078 528.085 360.661 532.022 358.422 535.235C356.183 538.447 342.115 541.366 339.786 530.845C337.456 520.324 338.361 500.639 340.917 492.425C343.472 484.212 340.012 461.585 340.012 461.585C340.012 461.585 336.167 464.052 331.124 480.297C326.08 496.543 322.371 502.743 320.63 507.246C318.888 511.726 317.305 539.285 318.391 552.725C318.391 552.725 306.992 554.354 303.713 548.901C300.411 543.448 299.325 515.255 300.162 506.273C300.999 497.29 304.753 468.486 304.233 459.594C303.713 450.679 301.858 443.439 303.894 434.547C305.929 425.654 366.043 405.879 366.043 405.879L377.578 423.007Z" fill="#24126A"/>
<path d="M304.232 459.595C303.712 450.68 301.857 443.439 303.893 434.547C304.662 431.199 313.641 426.311 324.542 421.537C342.951 419.863 366.269 417.917 367.875 418.143C369.322 418.369 373.122 419.817 376.288 421.084L377.577 422.985C377.577 422.985 377.509 425.497 377.261 429.569C372.963 430.859 364.708 429.524 364.708 429.524C363.555 432.42 356.386 442.67 347.452 447.105C338.541 451.54 312.442 450.024 310.949 451.698C309.456 453.372 309.162 475.908 309.321 478.759C309.479 481.61 306.856 499.644 304.436 515.595C302.038 531.275 305.68 550.35 305.793 550.96C304.956 550.417 304.209 549.761 303.689 548.901C300.387 543.448 299.302 515.256 300.139 506.273C300.998 497.313 304.752 468.51 304.232 459.595Z" fill="#160A5B"/>
<path d="M357.448 288.423C357.448 288.423 370.792 291.477 375.27 292.518C376.016 292.699 376.604 293.22 376.898 293.921C378.188 297.202 381.444 307.406 379.002 322.272C375.994 340.554 376.944 352.886 376.944 352.886L383.118 385.015C383.118 385.015 390.875 415.606 390.197 416.443C389.518 417.281 372.33 430.359 366.97 428.526C361.587 426.693 363.374 423.639 363.374 423.639C363.374 423.639 359.031 445.813 339.762 445.609C320.493 445.405 304.752 445.451 301.495 437.667C298.216 429.884 302.4 397.12 305.792 384.155C309.185 371.19 317.259 345.351 317.259 345.351L289.034 314.104L313.143 295.686C313.143 295.686 318.91 284.984 321.262 283.626C323.637 282.268 324.858 283.422 324.858 283.422L357.448 288.423Z" fill="#0F62B2"/>
<path d="M366.63 421.494C366.608 422.603 367.264 424.254 370.724 425.454C374.456 426.743 383.638 421.155 389.631 416.969C386.623 419.458 371.855 430.25 366.947 428.553C365.884 428.191 365.092 427.784 364.527 427.354C365.658 424.888 366.291 422.739 366.63 421.494Z" fill="#33ADF8"/>
<path d="M301.608 435.093C305.069 443.307 321.669 443.262 342.001 443.465C347.18 443.533 351.319 442.04 354.644 439.822C351.116 443.171 346.298 445.705 339.74 445.637C320.47 445.434 304.729 445.479 301.473 437.695C300.41 435.139 300.138 429.889 300.364 423.531C300.319 428.69 300.681 432.853 301.608 435.093Z" fill="#33ADF8"/>
<path d="M321.783 283.359C321.783 283.359 316.853 289.332 323.954 297.364C328.319 302.32 335.828 312.999 342.228 324.086C346.231 331.01 349.918 334.721 351.998 340.672C351.998 340.672 352.292 333.589 352.564 322.683C352.835 312.366 352.971 301.663 352.496 298.971C351.546 293.405 327.233 280.643 321.783 283.359Z" fill="#F0F6FF"/>
<path d="M340.215 301.279C340.215 301.279 342.748 302.84 343.607 302.727C344.467 302.591 347.271 299.876 347.271 299.876C347.271 299.876 354.259 299.74 355.028 296.754C355.797 293.767 356.295 290.735 356.996 289.174C357.697 287.613 360.728 280.146 360.75 277.114C360.773 274.082 360.66 268.652 361.972 265.801C363.283 262.927 365.048 234.214 337.342 235.029C309.637 235.843 318.232 264.624 318.232 264.624C318.232 264.624 316.196 265.484 317.44 269.195C318.661 272.905 318.933 273.29 319.566 275.123C320.199 276.956 320.493 278.132 322.257 279.626L322.71 283.042C322.71 283.042 321.398 288.246 324.835 293.315C328.273 298.383 340.215 301.279 340.215 301.279Z" fill="#FCD1C5"/>
<path d="M376.04 292.859C376.04 292.859 379.002 293.289 388.592 317.432C393.952 330.894 402.207 344.832 403.948 354.856C405.69 364.857 404.717 375.559 402.75 376.306C400.85 377.03 366.405 389.927 355.617 394C355.029 394.226 354.373 393.841 354.26 393.23L351.297 376.577L372.67 368.319C372.67 368.319 376.741 363.341 380.563 361.463C380.563 361.463 376.266 353.566 376.56 351.394C376.831 349.245 376.175 326.912 378.686 317.839C381.174 308.766 376.04 292.859 376.04 292.859Z" fill="#002576"/>
<path d="M363.51 356.648C363.51 356.648 366.45 354.657 367.174 354.385C367.898 354.114 371.833 352.756 372.602 352.417C373.168 352.168 375.452 352.349 376.605 352.485C377.012 352.53 377.374 352.756 377.578 353.141C378.482 354.838 381.015 359.748 380.744 361.626C380.744 361.626 373.62 366.128 372.828 368.142L371.697 368.391C371.697 368.346 366.925 358.119 363.51 356.648Z" fill="#FCD1C5"/>
<path d="M305.77 384.182C306.584 381.059 307.67 377.19 308.868 373.117L352.156 391.694C352.156 391.694 339.197 407.645 316.49 406.604C310.271 406.333 305.747 404.093 302.423 402.147C303.395 395.065 304.617 388.503 305.77 384.182Z" fill="#335191"/>
<path d="M289.012 314.105C289.012 314.105 300.433 315.667 309.66 330.306C318.888 344.945 325.605 361.87 325.605 361.87L325.922 363.771C326.758 368.748 332.051 371.599 336.664 369.54C346.412 365.196 360.841 358.612 363.533 356.643C363.533 356.643 372.149 361.417 374.524 372.685C376.401 381.668 375.926 381.713 375.926 381.713C375.926 381.713 337.479 399.656 322.62 399.498C307.761 399.317 288.921 350.489 286.863 340.375C284.76 330.261 282.475 316.956 289.012 314.105Z" fill="#24126A"/>
<path d="M289.012 314.105C289.012 314.105 300.433 315.667 309.66 330.306C318.888 344.945 325.605 361.87 325.605 361.87L325.922 363.771C326.758 368.748 332.051 371.599 336.664 369.54C346.412 365.196 360.841 358.612 363.533 356.643C363.533 356.643 372.149 361.417 374.524 372.685C376.401 381.668 375.926 381.713 375.926 381.713C375.926 381.713 337.479 399.656 322.62 399.498C307.761 399.317 288.921 350.489 286.863 340.375C284.76 330.261 282.475 316.956 289.012 314.105Z" fill="#002576"/>
<path d="M331.146 371.828C331.146 371.828 326.306 376.376 324.18 373.887C322.077 371.398 322.688 371.126 322.688 371.126C322.688 371.126 318.323 371.081 317.802 368.343C317.282 365.605 315.111 367.054 314.998 363.999C314.885 360.944 318.526 361.578 318.526 361.578L331.146 371.828Z" fill="#453C9E"/>
<path d="M337.004 369.381C337.004 369.381 335.669 368.137 333.95 366.689C332.232 365.24 329.45 359.199 328.975 358.679C328.5 358.158 322.71 353.701 319.906 353.61C317.101 353.543 319.182 356.665 319.838 357.118C320.471 357.57 323.208 358.928 323.208 358.928C323.208 358.928 326.012 361.281 326.329 361.643C326.645 361.982 318.526 361.077 317.237 361.869C315.948 362.661 316.242 364.743 317.146 365.308C318.051 365.874 318.752 365.851 318.752 365.851C318.752 365.851 317.847 368.295 320.267 369.426C322.71 370.558 323.275 369.924 323.275 369.924C323.275 369.924 323.479 374.155 327.505 373.318L337.004 369.381Z" fill="#FCD1C5"/>
<path d="M362.583 251.114C362.583 251.114 366.201 262.631 356.68 259.35C347.158 256.07 338.541 250.594 335.556 252.676C333.272 254.259 333.385 259.147 333.566 261.387C333.634 262.156 333.43 262.903 333 263.536L330.173 267.632C329.857 268.084 329.676 268.627 329.631 269.193L329.427 272.044C329.382 272.768 328.794 273.334 328.093 273.379L327.437 273.424C326.713 273.469 326.08 272.949 325.944 272.248L325.22 268.062C325.22 268.062 322.981 262.428 318.232 264.645C318.232 264.645 315.066 260.391 316.106 251.273C317.169 242.177 321.24 232.696 339.107 231.18C356.951 229.642 362.583 251.114 362.583 251.114Z" fill="#AA8383"/>
<path d="M335.285 311.434L337.953 309.353C337.953 309.353 340.419 311.412 341.391 313.584C342.364 315.756 341.391 322.68 341.391 322.68L342.205 324.082L343.2 322.25L344.037 314.059C344.037 314.059 343.133 307.995 343.042 307.859C342.952 307.701 337.886 308.402 337.886 308.402C337.886 308.402 336.144 309.737 335.285 311.434Z" fill="#C4CCD6"/>
<path d="M348.13 303.27C348.13 303.27 350.98 303.451 352.269 304.537C352.269 304.537 349.261 304.695 348.786 304.74C348.334 304.785 348.13 303.27 348.13 303.27Z" fill="#C4CCD6"/>
<path d="M342.703 303.925L337.909 308.405C337.909 308.405 342.115 310.351 343.291 314.107C343.291 314.107 348.516 315.08 348.991 313.202C349.466 311.302 348.968 306.55 349.601 304.446C350.212 302.319 342.703 303.925 342.703 303.925Z" fill="#335191"/>
<path d="M348.787 313.09C348.787 313.09 349.669 317.005 350.641 318.634C351.614 320.263 352.609 322.073 352.609 322.073L352.496 345.084C352.496 345.084 344.037 327.639 342.206 324.109C342.206 324.109 342.477 315.715 343.291 314.109C344.083 312.525 348.787 313.09 348.787 313.09Z" fill="#335191"/>
<path d="M326.08 279.078C331.644 295.12 347.272 299.872 347.272 299.872C347.272 299.872 344.467 302.587 343.608 302.723C342.748 302.859 340.215 301.275 340.215 301.275C340.215 301.275 328.274 298.378 324.836 293.31C321.398 288.242 322.71 283.038 322.71 283.038L322.258 279.621C324.723 280.436 326.08 279.078 326.08 279.078Z" fill="#E2B1A6"/>
<path d="M313.369 297.859C313.369 297.859 315.563 305.439 315.834 305.711C316.106 305.982 321.353 305.394 321.353 305.394L318.82 310.213C318.82 310.213 345.123 338.451 350.596 353.634C350.596 353.634 338.134 334.379 316.219 311.39L319.317 306.684L313.935 307.725L313.369 297.859Z" fill="#335191"/>
<path d="M356.589 291.164L357.991 292.748L356.34 294.287L361.203 298.676C361.203 298.676 362.696 329.561 356.747 350.016C356.747 350.016 364.821 331.258 362.99 297.839L357.72 294.264L359.439 292.567L356.589 291.164Z" fill="#335191"/>
<path d="M340.011 461.608C340.011 461.608 339.943 461.653 339.83 461.744L346.638 454.48C343.494 458.915 347.113 479.256 347.497 483.895C347.882 488.556 343.856 498.15 342.363 509.418C340.871 520.663 343.946 536.705 343.946 536.773C342.001 535.642 340.441 533.764 339.808 530.845C337.478 520.324 338.383 500.638 340.939 492.425C343.472 484.212 340.011 461.608 340.011 461.608Z" fill="#160A5B"/>
<path d="M322.597 399.474C307.738 399.293 288.899 350.465 286.841 340.351C286.501 338.677 286.139 336.889 285.823 335.102C285.868 335.237 289.713 345.804 293.445 355.149C297.176 364.561 317.033 393.093 327.166 394.949C336.303 396.623 369.21 381.26 375.565 378.228C376.13 381.667 375.904 381.689 375.904 381.689C375.904 381.689 337.456 399.655 322.597 399.474Z" fill="#33ADF8"/>
<path d="M327.414 273.423C326.69 273.469 326.057 272.948 325.922 272.247L325.198 268.061C325.198 268.061 322.959 262.427 318.209 264.644C318.209 264.644 315.224 260.594 316.038 251.996C321.308 259.915 333 263.558 333 263.558L330.173 267.654C329.857 268.106 329.676 268.649 329.631 269.215L329.427 272.066C329.382 272.79 328.794 273.356 328.093 273.401L327.414 273.423Z" fill="#936D6D"/>
<path d="M351.953 733.735C349.873 733.735 347.86 733.305 346.322 732.4L108.94 595.284C107.063 594.198 106 592.523 106 590.691C106 588.631 107.334 586.663 109.686 585.328L159.013 556.841C162.745 554.692 168.286 554.488 171.61 556.411L408.992 693.528C410.869 694.614 411.932 696.288 411.932 698.121C411.932 700.18 410.598 702.149 408.246 703.484L358.919 731.97C356.906 733.147 354.373 733.735 351.953 733.735ZM166.001 559.715C164.373 559.715 162.631 560.1 161.32 560.869L111.993 589.356C110.863 590.012 110.636 590.577 110.636 590.713C110.636 590.781 110.772 591.007 111.247 591.279L348.629 728.395C350.551 729.504 354.283 729.3 356.59 727.965L405.916 699.479C407.047 698.822 407.273 698.257 407.273 698.121C407.273 698.076 407.115 697.827 406.663 697.555L169.281 560.439C168.444 559.964 167.268 559.715 166.001 559.715Z" fill="url(#paint8_linear_10954_5466)"/>
<path d="M205.422 477.537C211.664 481.135 217.567 486.226 222.814 492.222C230.096 468.78 252.351 461.517 278.654 476.722C300.433 489.303 319.386 514.033 329.428 540.235C332.752 540.348 336.461 541.434 340.374 543.697C354.577 551.91 366.089 571.867 366.089 588.271C366.089 588.633 366.044 588.95 366.044 589.289C370.092 589.561 374.57 591.009 379.274 593.724C397.435 604.223 412.181 629.745 412.181 650.72C412.181 671.717 397.458 680.225 379.274 669.726L205.377 569.287C183.439 556.616 165.662 525.822 165.662 500.48C165.707 475.139 183.484 464.866 205.422 477.537Z" fill="url(#paint9_linear_10954_5466)"/>
<path d="M205.422 477.537C209.041 479.619 212.546 482.221 215.871 485.185L235.321 473.94C245.996 466.428 261.465 466.745 278.677 476.7C300.456 489.281 319.409 514.011 329.45 540.213C332.775 540.326 336.484 541.412 340.397 543.675C354.6 551.888 366.112 571.845 366.112 588.249C366.112 588.611 366.066 588.928 366.066 589.267C370.115 589.539 374.593 590.987 379.297 593.702C397.458 604.201 412.204 629.723 412.204 650.698C412.204 661.106 408.585 668.414 402.727 671.899H402.75L402.592 671.989L402.569 672.012L354.939 699.662L344.536 649.589L205.422 569.243C183.484 556.572 165.708 525.777 165.708 500.435C165.708 475.094 183.484 464.867 205.422 477.537Z" fill="url(#paint10_radial_10954_5466)"/>
<path d="M128.865 502.924L177.129 474.868V474.89C184.321 470.591 194.34 471.134 205.422 477.537C209.041 479.619 212.546 482.221 215.871 485.185L235.321 473.94C245.996 466.428 261.465 466.745 278.677 476.7C300.456 489.281 319.409 514.011 329.45 540.213C332.775 540.326 336.484 541.412 340.397 543.675C354.6 551.888 366.112 571.845 366.112 588.249C366.112 588.611 366.066 588.928 366.066 589.267C370.115 589.539 374.593 590.987 379.297 593.702C397.458 604.201 412.204 629.723 412.204 650.698C412.204 661.106 408.585 668.414 402.727 671.899H402.75L402.592 671.989L402.569 672.012L354.939 699.662L344.536 649.589L205.422 569.243C187.645 558.97 172.606 536.774 167.539 515.256L128.865 502.924Z" fill="#33ADF8"/>
<path d="M157.633 505.275C163.875 508.873 169.778 513.964 175.025 519.96C182.308 496.519 204.562 489.256 230.865 504.461C252.645 517.041 271.597 541.772 281.639 567.973C284.964 568.086 288.673 569.172 292.585 571.435C306.789 579.648 318.3 599.605 318.3 616.009C318.3 616.371 318.255 616.688 318.255 617.027C322.303 617.299 326.781 618.747 331.486 621.462C349.647 631.961 364.393 657.484 364.393 678.458C364.393 699.456 349.669 707.963 331.486 697.464L157.588 597.026C135.65 584.355 117.874 553.56 117.874 528.218C117.942 502.877 135.718 492.604 157.633 505.275Z" fill="url(#paint11_linear_10954_5466)"/>
<defs>
<linearGradient id="paint0_linear_10954_5466" x1="390.39" y1="530.883" x2="390.39" y2="645.984" gradientUnits="userSpaceOnUse">
<stop stop-color="#002576"/>
<stop offset="1" stop-color="#33ADF8"/>
</linearGradient>
<linearGradient id="paint1_linear_10954_5466" x1="506.016" y1="459.367" x2="506.016" y2="551.72" gradientUnits="userSpaceOnUse">
<stop stop-color="#002576"/>
<stop offset="1" stop-color="#33ADF8"/>
</linearGradient>
<linearGradient id="paint2_linear_10954_5466" x1="532.972" y1="502.069" x2="532.972" y2="84.0968" gradientUnits="userSpaceOnUse">
<stop stop-color="#C0BFF6"/>
<stop offset="0.2938" stop-color="#C5C4F7"/>
<stop offset="0.6399" stop-color="#D3D2F9"/>
<stop offset="1" stop-color="#E9E9FD"/>
</linearGradient>
<linearGradient id="paint3_linear_10954_5466" x1="476.02" y1="494.697" x2="636.603" y2="216.69" gradientUnits="userSpaceOnUse">
<stop stop-color="#C0BFF6"/>
<stop offset="0.2938" stop-color="#C5C4F7"/>
<stop offset="0.6399" stop-color="#D3D2F9"/>
<stop offset="1" stop-color="#E9E9FD"/>
</linearGradient>
<linearGradient id="paint4_linear_10954_5466" x1="624.76" y1="487.446" x2="624.76" y2="247.077" gradientUnits="userSpaceOnUse">
<stop stop-color="#C0BFF6"/>
<stop offset="0.2048" stop-color="#C5C4F7"/>
<stop offset="0.4462" stop-color="#D3D2F9"/>
<stop offset="0.6972" stop-color="#E9E9FD"/>
</linearGradient>
<linearGradient id="paint5_linear_10954_5466" x1="631.177" y1="458.399" x2="554.866" y2="326.287" gradientUnits="userSpaceOnUse">
<stop stop-color="#5761D7"/>
<stop offset="0.1779" stop-color="#5C66D9"/>
<stop offset="0.3876" stop-color="#6A73DF"/>
<stop offset="0.6134" stop-color="#8289E8"/>
<stop offset="0.849" stop-color="#A3A7F5"/>
<stop offset="1" stop-color="#BCBEFF"/>
</linearGradient>
<linearGradient id="paint6_linear_10954_5466" x1="631.26" y1="482.235" x2="631.26" y2="257.731" gradientUnits="userSpaceOnUse">
<stop stop-color="#C0BFF6"/>
<stop offset="0.2048" stop-color="#C5C4F7"/>
<stop offset="0.4462" stop-color="#D3D2F9"/>
<stop offset="0.6972" stop-color="#E9E9FD"/>
</linearGradient>
<linearGradient id="paint7_linear_10954_5466" x1="566.688" y1="413.422" x2="566.688" y2="385.201" gradientUnits="userSpaceOnUse">
<stop stop-color="#5761D7"/>
<stop offset="0.1779" stop-color="#5C66D9"/>
<stop offset="0.3876" stop-color="#6A73DF"/>
<stop offset="0.6134" stop-color="#8289E8"/>
<stop offset="0.849" stop-color="#A3A7F5"/>
<stop offset="1" stop-color="#BCBEFF"/>
</linearGradient>
<linearGradient id="paint8_linear_10954_5466" x1="258.966" y1="555.09" x2="258.966" y2="733.735" gradientUnits="userSpaceOnUse">
<stop stop-color="#002576"/>
<stop offset="1" stop-color="#33ADF8"/>
</linearGradient>
<linearGradient id="paint9_linear_10954_5466" x1="412.213" y1="621.283" x2="165.715" y2="621.283" gradientUnits="userSpaceOnUse">
<stop stop-color="#5761D7"/>
<stop offset="0.1779" stop-color="#5C66D9"/>
<stop offset="0.3876" stop-color="#6A73DF"/>
<stop offset="0.6134" stop-color="#8289E8"/>
<stop offset="0.849" stop-color="#A3A7F5"/>
<stop offset="1" stop-color="#BCBEFF"/>
</linearGradient>
<radialGradient id="paint10_radial_10954_5466" cx="0" cy="0" r="1" gradientUnits="userSpaceOnUse" gradientTransform="translate(354.283 547.26) rotate(180) scale(117.584 117.636)">
<stop stop-color="#2B237C"/>
<stop offset="1" stop-color="#180D5B"/>
</radialGradient>
<linearGradient id="paint11_linear_10954_5466" x1="364.431" y1="649.027" x2="117.933" y2="649.027" gradientUnits="userSpaceOnUse">
<stop stop-color="#C0BFF6"/>
<stop offset="0.2938" stop-color="#C5C4F7"/>
<stop offset="0.6399" stop-color="#D3D2F9"/>
<stop offset="1" stop-color="#E9E9FD"/>
</linearGradient>
</defs>
</svg>
