<svg xmlns="http://www.w3.org/2000/svg" xmlns:xlink="http://www.w3.org/1999/xlink" version="1.1" style="enable-background:new 0 0 490 490;" xml:space="preserve" width="490" height="490"><rect id="backgroundrect" width="100%" height="100%" x="0" y="0" fill="none" stroke="none"/>
















<g class="currentLayer" style=""><title>Layer 1</title><g id="svg_1" class="selected" fill="#ffffff" fill-opacity="1">
	<g id="svg_2" fill="#ffffff" fill-opacity="1">
		<g id="svg_3" fill="#ffffff" fill-opacity="1">
			<path d="M245,135c-60.654,0-110,49.346-110,110s49.346,110,110,110s110-49.346,110-110S305.654,135,245,135z M245,335     c-49.626,0-90-40.374-90-90c0-49.626,40.374-90,90-90c49.626,0,90,40.374,90,90C335,294.626,294.626,335,245,335z" id="svg_4" fill="#ffffff" fill-opacity="1"/>
			<path d="M355,90c-19.299,0-35,15.701-35,35s15.701,35,35,35s35-15.701,35-35S374.299,90,355,90z M355,140     c-8.272,0-15-6.729-15-15s6.728-15,15-15c8.272,0,15,6.729,15,15S363.272,140,355,140z" id="svg_5" fill="#ffffff" fill-opacity="1"/>
			<path d="M245,175c-38.598,0-70,31.402-70,70c0,38.598,31.402,70,70,70c38.598,0,70-31.402,70-70C315,206.402,283.598,175,245,175     z M245,295c-27.57,0-50-22.43-50-50s22.43-50,50-50s50,22.43,50,50S272.57,295,245,295z" id="svg_6" fill="#ffffff" fill-opacity="1"/>
			<path d="M340,45H150C94.86,45,50,89.86,50,145v195c0,55.14,44.86,100,100,100h190c55.141,0,100-44.86,100-100V145     C440,89.86,395.141,45,340,45z M420,340c0,44.112-35.888,80-80,80H150c-44.112,0-80-35.888-80-80V145c0-44.112,35.888-80,80-80     h190c44.112,0,80,35.888,80,80V340z" id="svg_7" fill="#ffffff" fill-opacity="1"/>
			<path d="M390,0H100C44.86,0,0,44.86,0,100v290c0,55.14,44.86,100,100,100h290c55.141,0,100-44.86,100-100V100     C490,44.86,445.141,0,390,0z M470,390c0,44.112-35.888,80-80,80H100c-44.112,0-80-35.888-80-80V100c0-44.112,35.888-80,80-80h290     c44.112,0,80,35.888,80,80V390z" id="svg_8" fill="#ffffff" fill-opacity="1"/>
		</g>
	</g>
</g><g id="svg_9">
</g><g id="svg_10">
</g><g id="svg_11">
</g><g id="svg_12">
</g><g id="svg_13">
</g><g id="svg_14">
</g><g id="svg_15">
</g><g id="svg_16">
</g><g id="svg_17">
</g><g id="svg_18">
</g><g id="svg_19">
</g><g id="svg_20">
</g><g id="svg_21">
</g><g id="svg_22">
</g><g id="svg_23">
</g></g></svg>