<svg width="81" height="80" viewBox="0 0 81 80" fill="none" xmlns="http://www.w3.org/2000/svg">
<g clip-path="url(#clip0_10962_3299)">
<circle cx="40.6667" cy="40" r="40" fill="#D5E6FB"/>
<g clip-path="url(#clip1_10962_3299)">
<path d="M51.7529 41.8667C51.2129 41.6247 50.585 41.7187 50.141 42.1147L41.823 49.5207C41.447 49.8547 41.263 50.3547 41.335 50.8547L42.675 60.2087C42.755 60.7707 43.181 61.2047 43.719 61.3847L44.163 61.4547C44.577 61.4547 44.995 61.2827 45.289 60.9867C50.027 56.2467 52.637 49.9447 52.637 43.2367C52.639 42.6447 52.2929 42.1087 51.7529 41.8667Z" fill="#33ADF8"/>
<path d="M37.4329 28.0273C30.7249 28.0273 24.4209 30.6373 19.6829 35.3753L19.6129 35.4433C19.2109 35.8453 19.0709 36.4393 19.2509 36.9773C19.4309 37.5173 19.8989 37.9073 20.4609 37.9873L29.8149 39.3273L30.0269 39.3433C30.4509 39.3433 30.8609 39.1633 31.1469 38.8413L38.5529 30.5233C38.9469 30.0813 39.0429 29.4513 38.8009 28.9113C38.5589 28.3733 38.0229 28.0273 37.4329 28.0273Z" fill="#33ADF8"/>
<path d="M40.4226 54.3038C40.0386 54.3038 39.6546 54.1558 39.3626 53.8638L26.8046 41.3058C26.2426 40.7438 26.2166 39.8398 26.7466 39.2458L36.1586 28.7038C42.8246 20.9018 53.6466 15.8058 63.1966 16.0098C63.9966 16.0278 64.6426 16.6738 64.6606 17.4738C64.8806 26.9698 59.7706 37.8438 51.9426 44.5318L41.4246 53.9218C41.1366 54.1778 40.7806 54.3038 40.4226 54.3038Z" fill="#ECEFF1"/>
<path d="M50.9328 34.7309C49.6508 34.7309 48.3708 34.2429 47.3968 33.2689C45.4488 31.3189 45.4488 28.1469 47.3968 26.1969C49.3468 24.2469 52.5188 24.2469 54.4688 26.1969C56.4168 28.1469 56.4168 31.3189 54.4688 33.2689C53.4928 34.2449 52.2128 34.7309 50.9328 34.7309Z" fill="#33ADF8"/>
<path d="M18.1668 63.9986C17.7748 63.9986 17.3908 63.8446 17.1068 63.5586C16.7168 63.1686 16.5728 62.5966 16.7308 62.0666C17.2328 60.3846 19.8508 51.8886 21.8948 49.8466C24.2808 47.4626 28.4368 47.4626 30.8188 49.8466C32.0108 51.0406 32.6668 52.6226 32.6668 54.3106C32.6668 55.9966 32.0108 57.5806 30.8188 58.7726C28.7768 60.8146 20.2788 63.4326 18.5988 63.9366L18.1668 63.9986Z" fill="#E2B93B"/>
<path d="M36.7409 28.0352C30.2929 28.2092 24.2589 30.7992 19.6809 35.3752L19.6129 35.4432C19.2109 35.8452 19.0709 36.4392 19.2509 36.9772C19.4309 37.5172 19.8989 37.9072 20.4609 37.9872L27.0269 38.9292L36.1589 28.6992C36.3489 28.4772 36.5429 28.2552 36.7409 28.0352Z" fill="#2F80ED"/>
<path d="M62.6388 16C53.5028 16 43.3108 20.758 36.7408 28.036C36.5428 28.256 36.3488 28.476 36.1568 28.7L27.0268 38.93L26.7468 39.244C26.2168 39.838 26.2428 40.742 26.8048 41.304L33.0848 47.584L47.3968 33.272C45.4488 31.322 45.4488 28.15 47.3968 26.2C48.3708 25.226 49.6528 24.738 50.9328 24.738C52.2128 24.738 53.4948 25.226 54.4688 26.2L64.2228 16.446C63.9588 16.182 63.5968 16.016 63.1968 16.006C63.0108 16.002 62.8248 16 62.6388 16V16Z" fill="#CDD0D2"/>
<path d="M50.9328 24.7383C49.6528 24.7383 48.3708 25.2263 47.3968 26.2003C45.4488 28.1503 45.4488 31.3223 47.3968 33.2723L54.4668 26.2003C53.4928 25.2243 52.2128 24.7383 50.9328 24.7383Z" fill="#2F80ED"/>
<path d="M26.3568 48.0586C24.7208 48.0586 23.0868 48.6546 21.8928 49.8466C19.8508 51.8886 17.2328 60.3866 16.7288 62.0666C16.5708 62.5946 16.7148 63.1686 17.1048 63.5586L30.8168 49.8466C29.6268 48.6546 27.9928 48.0586 26.3568 48.0586Z" fill="#DAA912"/>
</g>
</g>
<defs>
<clipPath id="clip0_10962_3299">
<rect width="80" height="80" fill="white" transform="translate(0.666748)"/>
</clipPath>
<clipPath id="clip1_10962_3299">
<rect width="48" height="48" fill="white" transform="translate(16.6667 16)"/>
</clipPath>
</defs>
</svg>
