<svg width="81" height="80" viewBox="0 0 81 80" fill="none" xmlns="http://www.w3.org/2000/svg">
<g clip-path="url(#clip0_10989_3598)">
<circle cx="40.5" cy="40" r="40" fill="#D5E6FB"/>
<path d="M59.9275 25.7724L41.5525 18.1433C41.0922 17.9523 40.5747 17.9522 40.1145 18.1433L21.7395 25.7724C21.0397 26.0631 20.5835 26.7463 20.5835 27.5041V36.7783C20.5835 49.5483 28.3018 61.0352 40.1249 65.861C40.5791 66.0463 41.0878 66.0463 41.5421 65.861C53.365 61.0353 61.0835 49.5484 61.0835 36.7783V27.5041C61.0835 26.7463 60.6274 26.0631 59.9275 25.7724ZM57.3335 36.7783C57.3335 47.6341 50.9585 57.6276 40.8335 62.0884C30.9791 57.7467 24.3335 47.9283 24.3335 36.7783V28.7558L40.8335 21.9051L57.3335 28.7558V36.7783ZM38.7611 43.0984L46.8202 35.0393C47.5524 34.3071 48.7395 34.3071 49.4718 35.0393C50.2041 35.7716 50.204 36.9588 49.4717 37.691L40.0869 47.0758C39.3545 47.8082 38.1673 47.8079 37.4352 47.0758L32.1952 41.8357C31.4629 41.1035 31.4629 39.9163 32.1952 39.1841C32.9275 38.4519 34.1146 38.4518 34.8468 39.1841L38.7611 43.0984Z" fill="url(#paint0_linear_10989_3598)"/>
</g>
<defs>
<linearGradient id="paint0_linear_10989_3598" x1="40.8335" y1="18" x2="40.8335" y2="66" gradientUnits="userSpaceOnUse">
<stop stop-color="#002576"/>
<stop offset="1" stop-color="#33ADF8"/>
</linearGradient>
<clipPath id="clip0_10989_3598">
<rect width="80" height="80" fill="white" transform="translate(0.5)"/>
</clipPath>
</defs>
</svg>
